<?xml version="1.0" standalone="no"?>
<!DOCTYPE svg PUBLIC "-//W3C//DTD SVG 1.1//EN" "http://www.w3.org/Graphics/SVG/1.1/DTD/svg11.dtd" >
<svg xmlns="http://www.w3.org/2000/svg" xmlns:xlink="http://www.w3.org/1999/xlink" version="1.1">
<metadata></metadata>
<defs>
<font id="source_serif_proregular" horiz-adv-x="757" >
<font-face units-per-em="2048" ascent="1495" descent="-553" />
<missing-glyph horiz-adv-x="477" />
<glyph unicode="&#xfb01;" horiz-adv-x="1263" d="M70 860v90l172 23q15 171 51.5 271.5t114.5 172.5q130 117 331 117q136 0 227 -56.5t91 -148.5q-8 -35 -35.5 -57.5t-67.5 -22.5q-69 0 -131 84l-86 119q-141 -9 -227 -98q-55 -56 -79 -147t-21 -238h407l211 37l33 -21l-6 -278v-277q0 -124 4 -328l139 -28v-74h-475v74 l154 28q4 204 4 328v105q0 143 -7 325h-460v-430q0 -108 4 -326l182 -30v-74h-526v74l162 28q4 218 4 328v430h-170z" />
<glyph unicode="&#xfb02;" horiz-adv-x="1253" d="M70 860v90l172 23q16 176 52.5 277t119.5 173q134 111 311 111q72 0 134.5 -18t96.5 -52l58 29l28 -16l-8 -291v-756q0 -106 4 -328l164 -28v-74h-506v74l162 28q4 222 4 328v899q-98 6 -217 101l-12 10q-71 -29 -121 -82q-60 -65 -83.5 -156t-18.5 -233h282v-109h-278 v-430q0 -108 4 -326l182 -30v-74h-526v74l162 28q4 218 4 328v430h-170z" />
<glyph unicode="ft" horiz-adv-x="1318" d="M70 860v90l172 23q15 168 47.5 267.5t97.5 168.5q117 125 289 125q168 0 196 -111q-3 -41 -36 -66.5t-88 -25.5q-74 0 -148 62l-51 41q-44 -30 -72 -82q-72 -127 -67 -383h444l55 282h121l-10 -282h274v-109h-278v-624q0 -76 29.5 -113t82.5 -37q61 0 140 55l47 -55 q-38 -51 -101 -78.5t-141 -27.5q-110 0 -171.5 58t-61.5 175q0 22 1 76t1 98v473h-428v-430q0 -108 4 -326l184 -30v-74h-528v74l162 28q4 218 4 328v430h-170z" />
<glyph horiz-adv-x="0" />
<glyph horiz-adv-x="682" />
<glyph unicode=" "  horiz-adv-x="477" />
<glyph unicode="&#x09;" horiz-adv-x="477" />
<glyph unicode="&#xa0;" horiz-adv-x="477" />
<glyph unicode="!" horiz-adv-x="591" d="M164 102q0 54 39 94t94 40t93 -39.5t38 -94.5t-38 -94t-93 -39t-94 39.5t-39 93.5zM178 1272q0 129 119 129q117 0 117 -129q0 -22 -2.5 -57t-8 -90t-10.5 -106.5t-14.5 -140.5t-16.5 -157l-28 -281h-76l-27 281q-53 487 -53 551z" />
<glyph unicode="&#x22;" horiz-adv-x="727" d="M82 1380q0 129 106 129q105 0 105 -129q0 -28 -6 -82.5t-12 -97t-16 -106.5t-11 -70l-23 -145h-75l-23 145q-1 6 -11 70t-16 106.5t-12 97t-6 82.5zM434 1380q0 129 107 129q104 0 104 -129q0 -28 -6 -82.5t-12 -97t-16 -106.5t-11 -70l-22 -145h-76l-23 145q-1 6 -11 70 t-16 106.5t-12 97t-6 82.5z" />
<glyph unicode="#" horiz-adv-x="1077" d="M51 369v166h211l41 266h-186v168h213l55 362h96l-55 -362h324l55 362h96l-55 -362h182v-168h-209l-41 -266h185v-166h-209l-58 -369h-96l57 369h-323l-58 -369h-96l58 369h-187zM358 535h324l41 266h-324z" />
<glyph unicode="$" horiz-adv-x="1024" d="M104 268q28 64 95 64q43 0 72.5 -29.5t45.5 -105.5l25 -113q61 -12 141 -16v507l-22 9q-170 62 -256 154t-86 239q0 150 106 256t271 115v186h84v-186q140 -14 232 -94.5t99 -200.5q-10 -32 -34.5 -49t-55.5 -17q-92 0 -123 137l-24 111q-47 11 -94 14v-499l8 -2 q198 -69 280 -167t82 -233q0 -154 -101.5 -256t-279.5 -119v-209h-86v205q-163 5 -268 86.5t-111 212.5zM285 1022q0 -91 52.5 -149.5t158.5 -94.5v467q-96 -13 -153.5 -70t-57.5 -153zM569 72q100 15 156.5 76t56.5 159q0 89 -49 141.5t-164 96.5v-473z" />
<glyph unicode="%" horiz-adv-x="1763" d="M141 924q0 108 24 191t65.5 131.5t92 72.5t107.5 24q56 0 106 -24t90.5 -72.5t64.5 -131.5t24 -191q0 -107 -24 -190t-64.5 -131.5t-90.5 -72.5t-106 -24q-57 0 -107.5 24t-92 72.5t-65.5 131.5t-24 190zM291 924q0 -105 11 -177.5t32 -108.5t43.5 -50.5t52.5 -14.5 t52 14.5t42 50.5t30.5 108t10.5 178t-10.5 178t-30.5 108t-42 50t-52 14t-52.5 -14t-43.5 -49.5t-32 -108t-11 -178.5zM387 0l952 1370l64 -51l-952 -1370zM1049 406q0 108 24 191t65 131.5t91.5 72.5t107.5 24q56 0 106 -24t90.5 -72.5t64.5 -131.5t24 -191 q0 -107 -24 -190t-64.5 -131.5t-90.5 -72.5t-106 -24q-57 0 -107.5 24t-91.5 72.5t-65 131.5t-24 190zM1198 406q0 -105 11 -177.5t32 -108.5t43.5 -50.5t52.5 -14.5q23 0 42 8t37 31.5t30 61.5t19.5 101.5t7.5 148.5q0 106 -10.5 178t-31 108t-42.5 50t-52 14t-52.5 -14 t-43.5 -49.5t-32 -108t-11 -178.5z" />
<glyph unicode="&#x26;" horiz-adv-x="1474" d="M55 346q0 270 310 424l-9 10q-141 162 -141 330q0 133 94.5 212t241.5 79q149 0 230 -71.5t81 -190.5q0 -104 -71.5 -186.5t-231.5 -168.5q77 -88 164 -182q30 -32 76.5 -82.5t85 -91.5t73.5 -78q117 187 170 420l-161 27v82h415v-82l-155 -29q-65 -258 -211 -477 q23 -25 78.5 -83t87.5 -93l196 -25l-8 -90q-87 -20 -156 -20q-82 0 -135 21t-104 73l-70 76q-159 -181 -418 -181q-189 0 -310.5 109.5t-121.5 267.5zM233 401q0 -120 84 -210.5t226 -90.5q179 0 305 113q-43 48 -114.5 128.5t-96.5 107.5q-101 124 -223 264 q-97 -59 -139 -141.5t-42 -170.5zM362 1139q0 -60 19.5 -112.5t73.5 -119.5q21 -29 55 -67q106 73 161.5 143.5t55.5 153.5q0 87 -50.5 139.5t-127.5 52.5q-79 0 -133 -54.5t-54 -135.5z" />
<glyph unicode="'" horiz-adv-x="374" d="M82 1380q0 129 106 129q105 0 105 -129q0 -28 -6 -82.5t-12 -97t-16 -106.5t-11 -70l-23 -145h-75l-23 145q-1 6 -11 70t-16 106.5t-12 97t-6 82.5z" />
<glyph unicode="(" horiz-adv-x="694" d="M164 569q0 565 426 963l53 -47q-178 -256 -246.5 -460t-68.5 -456q0 -251 68.5 -455t246.5 -460l-53 -47q-426 398 -426 962z" />
<glyph unicode=")" horiz-adv-x="694" d="M51 -346q178 256 247 460t69 455t-69 455.5t-247 460.5l53 47q426 -398 426 -963q0 -564 -426 -962z" />
<glyph unicode="*" horiz-adv-x="899" d="M41 1212q0 31 19.5 51.5t48.5 20.5q14 0 30.5 -4.5t40.5 -15t42.5 -19.5t53.5 -27t56 -28l88 -43l-14 96q-27 177 -27 213q0 74 72 74q71 0 71 -74q0 -16 -4 -47t-12 -82t-12 -84l-15 -96l88 43q156 78 199 89q17 5 29 5q28 0 45.5 -20.5t17.5 -51.5q0 -13 -3.5 -23.5 t-12 -18.5t-16.5 -14.5t-25 -12t-30 -9t-37 -7.5t-41 -6.5t-48 -7t-51 -7.5l-96 -16l69 -72q20 -21 52 -52t48 -47t34 -37t25 -38t7 -33q0 -30 -20 -48t-47 -18q-11 0 -21 3t-19.5 10.5t-17.5 15t-18 21.5t-17 25.5t-17.5 32t-18 34.5t-20.5 40l-21 42l-45 86l-48 -86 q-10 -19 -27 -53.5t-25 -50t-21.5 -40t-22.5 -35t-22 -23.5t-25.5 -17.5t-26.5 -4.5q-26 0 -45.5 18.5t-19.5 47.5q0 17 7 33.5t25.5 38.5t33 36.5t48.5 47.5t52 51l67 72l-96 16q-158 24 -189 33q-69 21 -74 64q-1 4 -1 9z" />
<glyph unicode="+" horiz-adv-x="1087" d="M59 616v117h422v449h125v-449h422v-117h-422v-458h-125v458h-422z" />
<glyph unicode="," horiz-adv-x="614" d="M12 -393q238 120 301 319l-75 60q-78 61 -78 147q0 56 33 92.5t94 36.5q63 0 127 -59q22 -70 22 -148q0 -90 -33.5 -174.5t-90 -150t-126 -115.5t-145.5 -78z" />
<glyph unicode="-" horiz-adv-x="638" d="M82 446v136h475v-136h-475z" />
<glyph unicode="." horiz-adv-x="614" d="M162 115q0 62 42 104.5t103 42.5t103.5 -42.5t42.5 -104.5q0 -60 -42.5 -103t-103.5 -43t-103 43t-42 103z" />
<glyph unicode="/" horiz-adv-x="675" d="M4 -328l547 1782h121l-547 -1782h-121z" />
<glyph unicode="0" horiz-adv-x="1024" d="M84 659q0 148 24 266.5t64 196.5t96 130.5t117 75t129 22.5q67 0 127.5 -22.5t116 -75t96 -130.5t64.5 -196.5t24 -266.5t-24 -266.5t-64.5 -196.5t-96 -130t-116 -74.5t-127.5 -22.5q-68 0 -129 22.5t-117 74.5t-96 130t-64 196.5t-24 266.5zM272 659q0 -598 242 -598 q238 0 238 598t-238 598q-242 0 -242 -598z" />
<glyph unicode="1" horiz-adv-x="1024" d="M152 0v74l288 49q4 204 4 309v737l-270 -22v84l422 108l29 -20l-9 -293v-594q0 -54 5 -309l290 -49v-74h-759z" />
<glyph unicode="2" horiz-adv-x="1024" d="M90 1032q11 105 71.5 178t148 106.5t194.5 33.5q191 0 285 -94t94 -255q0 -136 -80 -264.5t-295 -328.5l-254 -240h688v-168h-842v133l318 326q280 287 280 524q0 126 -66 200t-179 74q-52 0 -101 -10l-39 -141q-20 -75 -47.5 -107t-70.5 -32q-69 0 -105 65z" />
<glyph unicode="3" horiz-adv-x="1024" d="M90 260q36 68 105 68q50 0 74 -33t46 -115l27 -106q58 -13 115 -13q148 0 225.5 79t77.5 220q0 136 -80 210.5t-234 74.5h-98v103h82q138 0 215.5 72t77.5 202q0 113 -65 174t-185 61q-45 0 -94 -8l-29 -106q-18 -70 -44 -100.5t-77 -30.5q-78 0 -102 75 q27 128 130.5 195.5t250.5 67.5q179 0 286 -89t107 -233q0 -111 -70 -198.5t-196 -131.5q154 -30 230.5 -116.5t76.5 -216.5q0 -169 -127.5 -282.5t-331.5 -113.5q-158 0 -262 71.5t-131 219.5z" />
<glyph unicode="4" horiz-adv-x="1024" d="M49 395v109l608 835h119v-815h215v-129h-215v-395h-170v395h-557zM174 524h432v600z" />
<glyph unicode="5" horiz-adv-x="1024" d="M78 258q27 70 104 70q47 0 73 -30t46 -110l29 -110q58 -17 116 -17q148 0 228 89.5t80 240.5q0 152 -85 234t-235 82q-84 0 -188 -23l-58 16l43 619h670v-168h-579l-25 -344q92 24 192 24q204 0 326.5 -109.5t122.5 -309.5q0 -197 -131.5 -320t-345.5 -123 q-319 0 -383 289z" />
<glyph unicode="6" horiz-adv-x="1024" d="M82 555q0 151 51.5 285.5t148.5 241t247 177t337 91.5l13 -66q-294 -71 -440.5 -218.5t-168.5 -387.5q132 135 299 135q169 0 272 -108t103 -291q0 -213 -116.5 -329t-301.5 -116q-208 0 -326 155t-118 431zM266 584q0 -259 69 -391t195 -132q108 0 170 82.5t62 239.5 q0 155 -63.5 230t-174.5 75q-153 0 -258 -94v-10z" />
<glyph unicode="7" horiz-adv-x="1024" d="M104 1151v168h846v-105l-487 -1214h-170l-21 20l539 1131h-707z" />
<glyph unicode="8" horiz-adv-x="1024" d="M90 301q0 108 72 191.5t217 156.5q-244 136 -244 359q0 157 109 249.5t274 92.5q159 0 255.5 -88t96.5 -228q0 -182 -241 -323q157 -79 230 -170t73 -222q0 -154 -119.5 -252t-298.5 -98q-192 0 -308 86t-116 246zM260 313q0 -110 72.5 -182t185.5 -72q107 0 174.5 70.5 t67.5 175.5q0 90 -66.5 157t-238.5 148q-102 -65 -148.5 -131.5t-46.5 -165.5zM297 1053q0 -87 55.5 -160t198.5 -145q92 70 129 133.5t37 148.5q0 96 -55 161.5t-148 65.5q-91 0 -154 -56.5t-63 -147.5z" />
<glyph unicode="9" horiz-adv-x="1024" d="M59 926q0 191 121 307.5t316 116.5q200 0 313 -143.5t113 -389.5q0 -120 -26 -228t-83.5 -207.5t-143.5 -180t-211.5 -143.5t-281.5 -99l-20 78q274 89 407.5 230.5t163.5 359.5q-106 -103 -270 -103q-169 0 -283.5 109.5t-114.5 292.5zM242 944q0 -149 74.5 -223 t195.5 -74q127 0 225 82v53q0 241 -66.5 358t-185.5 117q-104 0 -173.5 -82t-69.5 -231z" />
<glyph unicode=":" horiz-adv-x="614" d="M162 115q0 62 42 104.5t103 42.5t103.5 -42.5t42.5 -104.5q0 -60 -42.5 -103t-103.5 -43t-103 43t-42 103zM162 858q0 62 42 105t103 43t103.5 -43t42.5 -105q0 -60 -42.5 -102.5t-103.5 -42.5t-103 42.5t-42 102.5z" />
<glyph unicode=";" horiz-adv-x="614" d="M12 -393q238 120 301 319l-75 60q-78 61 -78 147q0 56 33 92.5t94 36.5q63 0 127 -59q22 -70 22 -148q0 -90 -33.5 -174.5t-90 -150t-126 -115.5t-145.5 -78zM162 858q0 62 42 105t103 43t103.5 -43t42.5 -105q0 -60 -42.5 -102.5t-103.5 -42.5t-103 42.5t-42 102.5z" />
<glyph unicode="&#x3c;" horiz-adv-x="1087" d="M117 627v96l792 461l62 -111l-711 -397l711 -400l-62 -110z" />
<glyph unicode="=" horiz-adv-x="1087" d="M59 412v116h969v-116h-969zM59 821v117h969v-117h-969z" />
<glyph unicode="&#x3e;" horiz-adv-x="1087" d="M117 276l710 400l-710 397l61 111l793 -461v-96l-793 -461z" />
<glyph unicode="?" horiz-adv-x="851" d="M135 1288q0 46 28 72.5t87 40.5q52 -5 113.5 -27.5t124 -64t114 -94.5t83.5 -124.5t32 -148.5q0 -192 -205 -258l-70 -22q-63 -20 -79.5 -40.5t-16.5 -72.5v-113h-80l-24 86q-33 100 -33 146q0 45 36.5 75.5t127.5 57.5l116 37q115 38 115 141q0 70 -51 151l-270 48 q-86 16 -117 42t-31 68zM174 102q0 55 38 94.5t93 39.5t94 -40t39 -94t-39 -93.5t-94 -39.5t-93 39t-38 94z" />
<glyph unicode="@" horiz-adv-x="1710" d="M72 420q0 186 69.5 353.5t188.5 288.5t286.5 192t356.5 71q307 0 486 -183.5t179 -479.5q0 -115 -29 -212.5t-76 -162.5t-108 -111t-124.5 -67t-126.5 -21q-91 0 -145.5 43t-63.5 111q-140 -154 -271 -154q-94 0 -157.5 69.5t-63.5 211.5q0 114 47 224t123 200 q142 172 309 172q77 0 140 -52l96 50l39 -33l-117 -584q-15 -78 14 -120t97 -42q55 0 106 28.5t94 85.5t69 156t26 226q0 173 -73.5 301t-198 193t-283.5 65q-165 0 -309.5 -67t-242.5 -178t-154 -257t-56 -303q0 -131 35 -241t96 -187.5t144 -131.5t180 -79.5t204 -25.5 q186 0 318 63l26 -61q-172 -88 -387 -88q-156 0 -290 47t-235.5 137t-159.5 232t-58 321zM616 406q0 -197 142 -197q46 0 94.5 23.5t116.5 82.5l92 486q-56 67 -125 67q-52 0 -107.5 -30.5t-99.5 -92.5q-113 -156 -113 -339z" />
<glyph unicode="A" horiz-adv-x="1359" d="M10 0v84l174 27l434 1259h130l436 -1268l153 -18v-84h-557v84l201 25l-113 335h-473l-114 -333l198 -27v-84h-469zM428 541h408l-203 600z" />
<glyph unicode="B" horiz-adv-x="1288" d="M90 0v84l189 22q4 172 4 529v100q0 353 -4 529l-189 22v84h594q209 0 327.5 -92t118.5 -242q0 -116 -77.5 -202.5t-239.5 -120.5q196 -28 291.5 -117.5t95.5 -220.5q0 -73 -31 -137.5t-94 -119t-171.5 -86.5t-250.5 -32h-563zM477 662q0 -388 4 -566h125 q194 0 291.5 71.5t97.5 207.5q0 145 -98 216t-307 71h-113zM477 756h107q186 0 270 63t84 203q0 136 -77 195t-238 59h-142q-4 -170 -4 -520z" />
<glyph unicode="C" horiz-adv-x="1292" d="M96 686q0 153 52.5 286t144 227t220 148t275.5 54q228 0 396 -98l8 -297h-127l-41 241q-96 51 -209 51q-104 0 -193.5 -40t-157 -115.5t-106.5 -193t-39 -263.5q0 -293 132.5 -453.5t349.5 -160.5q130 0 243 55l41 238h127l-8 -297q-180 -99 -413 -99q-204 0 -362.5 91 t-245.5 254t-87 372z" />
<glyph unicode="D" horiz-adv-x="1454" d="M90 0v84l189 22q4 174 4 553v76q0 353 -4 529l-189 22v84h604q143 0 264 -45.5t210 -130.5t139.5 -215.5t50.5 -292.5t-55.5 -293.5t-152 -216.5t-223.5 -130.5t-272 -45.5h-565zM477 659q0 -383 4 -563h183q217 0 344 153.5t127 436.5q0 282 -127.5 436t-345.5 154h-181 q-4 -176 -4 -541v-76z" />
<glyph unicode="E" horiz-adv-x="1234" d="M90 0v84l189 22q4 172 4 529v100q0 353 -4 529l-189 22v84h1020l14 -362h-116l-45 260h-482q-4 -170 -4 -520h301l29 194h94v-483h-94l-27 192h-303q0 -373 4 -549h523l45 263h116l-14 -365h-1061z" />
<glyph unicode="F" horiz-adv-x="1185" d="M90 0v84l189 22q4 172 4 529v100q0 353 -4 529l-189 22v84h1020l14 -362h-116l-45 260h-482q-4 -170 -4 -520h318l28 194h95v-504h-95l-28 213h-318q0 -371 4 -545l191 -22v-84h-582z" />
<glyph unicode="G" horiz-adv-x="1396" d="M96 686q0 205 87 367.5t247 255t365 92.5q244 0 411 -96l8 -299h-127l-43 241q-99 51 -231 51q-218 0 -356 -163t-138 -449q0 -291 134.5 -451.5t371.5 -160.5q117 0 219 41v65q0 123 -4 373l-213 16v84h539v-84l-125 -12q-4 -246 -4 -377v-90q-231 -121 -451 -121 q-203 0 -360.5 92.5t-243.5 255.5t-86 369z" />
<glyph unicode="H" horiz-adv-x="1613" d="M90 0v84l189 22q4 172 4 529v100q0 353 -4 529l-189 22v84h578v-84l-187 -20q-4 -170 -4 -516h662q0 344 -4 514l-189 22v84h578v-84l-189 -22q-4 -172 -4 -529v-100q0 -353 4 -529l189 -22v-84h-578v84l189 22q4 168 4 547h-662q0 -377 4 -549l187 -20v-84h-578z" />
<glyph unicode="I" horiz-adv-x="759" d="M90 0v84l189 22q4 172 4 529v100q0 353 -4 529l-189 22v84h580v-84l-189 -22q-4 -172 -4 -529v-100q0 -353 4 -529l189 -22v-84h-580z" />
<glyph unicode="J" horiz-adv-x="765" d="M-88 -233q16 102 127 102q70 0 154 -64l51 -41q44 42 62 100.5t18 149.5q0 39 -3 157.5t-8 405t-8 687.5l-209 22v84h600v-84l-188 -22q-4 -172 -4 -527v-319q0 -178 -6 -274t-23 -173q-29 -146 -138 -225.5t-247 -79.5q-152 0 -178 101z" />
<glyph unicode="K" horiz-adv-x="1366" d="M90 0v84l189 22q4 172 4 529v100q0 353 -4 529l-189 22v84h578v-84l-195 -22q-4 -174 -4 -529v-129l537 658l-152 22v84h471v-84l-199 -26l-350 -422l420 -734l160 -20v-84h-527v84l166 20l-331 598l-195 -233q0 -236 4 -363l195 -22v-84h-578z" />
<glyph unicode="L" horiz-adv-x="1220" d="M90 0v84l189 22q4 176 4 529v100q0 357 -4 529l-189 22v84h580v-84l-189 -22q-4 -176 -4 -529v-139q0 -320 4 -494h465l60 283h124l-20 -385h-1020z" />
<glyph unicode="M" horiz-adv-x="1847" d="M80 0v84l186 27v1155l-184 20v84h367l471 -1100l485 1100h350v-84l-188 -22q-4 -172 -4 -529v-100q0 -353 4 -529l188 -22v-84h-557v84l172 20q4 174 4 531v440l-469 -1075h-63l-471 1083l-2 -972l170 -27v-84h-459z" />
<glyph unicode="N" horiz-adv-x="1505" d="M80 0v84l174 25v1136l-18 25l-146 16v84h316l739 -1014v904l-215 26v84h493v-84l-174 -26v-1280h-71l-820 1122v-989l217 -29v-84h-495z" />
<glyph unicode="O" horiz-adv-x="1447" d="M96 686q0 131 35 246.5t95.5 200t140 146t171.5 92t187 30.5q120 0 231 -47t200 -134.5t142.5 -226t53.5 -307.5q0 -132 -34.5 -247.5t-95 -200.5t-140 -146t-171 -92t-186.5 -31q-97 0 -188 29t-171 89t-140 143.5t-95 201t-35 254.5zM319 686q0 -120 24 -227t71.5 -195 t127.5 -140t183 -52q83 0 151 34.5t113.5 92.5t77 137.5t45.5 167t14 182.5t-14 182t-45.5 166t-77 137t-113.5 92.5t-151 34.5q-103 0 -183 -52t-127.5 -139.5t-71.5 -194.5t-24 -226z" />
<glyph unicode="P" horiz-adv-x="1206" d="M90 0v84l189 22q4 172 4 529v100q0 353 -4 529l-189 22v84h551q253 0 386.5 -110t133.5 -297q0 -89 -34.5 -163t-105.5 -133.5t-192.5 -92.5t-283.5 -33h-68q0 -288 4 -435l191 -22v-84h-582zM477 637h96q198 0 291.5 86.5t93.5 239.5q0 313 -354 313h-123 q-4 -176 -4 -541v-98z" />
<glyph unicode="Q" horiz-adv-x="1447" d="M96 686q0 131 35 246.5t95.5 200t140 146t171.5 92t187 30.5q120 0 231 -47t200 -134.5t142.5 -226t53.5 -307.5q0 -149 -44 -277t-119.5 -217t-172.5 -145t-205 -72q4 -145 79 -224t204 -79q67 0 159 25l23 -74q-101 -65 -252 -65q-124 0 -217 58.5t-140 153.5t-49 210 q-106 18 -199.5 72.5t-166 141.5t-114.5 214t-42 278zM319 686q0 -120 24 -227t71.5 -195t127.5 -140t183 -52q83 0 151 34.5t113.5 92.5t77 137.5t45.5 167t14 182.5t-14 182t-45.5 166t-77 137t-113.5 92.5t-151 34.5q-103 0 -183 -52t-127.5 -139.5t-71.5 -194.5 t-24 -226z" />
<glyph unicode="R" horiz-adv-x="1333" d="M90 0v84l189 22q4 172 4 529v100q0 353 -4 529l-189 22v84h574q234 0 365.5 -93.5t131.5 -256.5q0 -136 -82.5 -233t-249.5 -128q79 -22 129 -81.5t82 -171.5l88 -302l177 -20v-84q-68 -20 -154 -20q-102 0 -156.5 29.5t-72.5 101.5l-80 327q-30 120 -88 158.5t-187 38.5 h-90q0 -359 4 -529l189 -22v-84h-580zM477 727h158q160 0 241.5 78.5t81.5 212.5q0 258 -301 258h-176q-4 -176 -4 -549z" />
<glyph unicode="S" horiz-adv-x="1048" d="M82 78l12 287h127l41 -242q92 -51 213 -51q146 0 232 66.5t86 185.5q0 91 -56.5 143t-195.5 106l-80 33q-171 68 -261.5 164.5t-90.5 243.5q0 177 129.5 282t330.5 105q193 0 336 -107l-12 -268h-125l-43 231q-75 41 -168 41q-122 0 -199 -62t-77 -177q0 -93 57 -151.5 t174 -102.5l82 -33q201 -78 287 -172.5t86 -237.5q0 -181 -134.5 -287t-351.5 -106q-111 0 -218 30.5t-181 78.5z" />
<glyph unicode="T" horiz-adv-x="1236" d="M41 1006l16 364h1123l16 -364h-119l-45 262h-313q-4 -174 -4 -533v-100q0 -353 4 -529l209 -22v-84h-619v84l209 22q4 174 4 529v100q0 355 -4 533h-313l-45 -262h-119z" />
<glyph unicode="U" horiz-adv-x="1488" d="M80 1286v84h579v-84l-208 -24q-5 -215 -5 -525v-162q0 -129 23 -219.5t69 -142.5t106.5 -75t141.5 -23q178 0 264.5 115t86.5 380v650l-209 26v84h491v-84l-178 -22v-703q0 -158 -36.5 -274t-103.5 -184.5t-153.5 -101t-195.5 -32.5q-233 0 -365.5 135t-132.5 412v221 q0 353 -4 529z" />
<glyph unicode="V" horiz-adv-x="1380" d="M31 1286v84h559v-92l-197 -18l344 -990l334 987l-182 21v92h473v-84l-178 -24l-432 -1282h-90l-478 1288z" />
<glyph unicode="W" horiz-adv-x="1970" d="M31 1286v84h557v-84l-189 -22l252 -947l314 945l-207 24v84h557v-84l-207 -24l303 -953l262 951l-186 26v84h465v-84l-172 -24l-346 -1282h-88l-355 1067l-334 -1067h-88l-368 1286z" />
<glyph unicode="X" horiz-adv-x="1327" d="M20 0v84l195 25l365 557l-361 600l-180 20v84h579v-84l-182 -20l262 -439l273 435l-176 24v84h471v-84l-181 -22l-335 -521l385 -639l172 -20v-84h-580v84l188 22l-286 478l-299 -478l159 -22v-84h-469z" />
<glyph unicode="Y" horiz-adv-x="1296" d="M31 1286v84h577v-84l-194 -22l284 -621l293 619l-184 24v84h469v-84l-180 -26l-348 -721v-58q0 -228 4 -375l209 -22v-84h-619v84l209 22q4 145 4 375v49l-362 738z" />
<glyph unicode="Z" horiz-adv-x="1128" d="M41 0v74l776 1194h-575l-56 -262h-125l17 364h964v-72l-774 -1196h639l56 263h124l-16 -365h-1030z" />
<glyph unicode="[" horiz-adv-x="655" d="M205 -326q6 211 6 650v491q0 434 -6 649h391v-84l-231 -26q-5 -220 -5 -539v-491q0 -316 5 -539l231 -27v-84h-391z" />
<glyph unicode="\" horiz-adv-x="675" d="M4 1454h121l547 -1782h-121z" />
<glyph unicode="]" horiz-adv-x="655" d="M59 -242l232 27q4 176 4 539v491q0 361 -4 539l-232 26v84h392q-7 -246 -7 -649v-491q0 -399 7 -650h-392v84z" />
<glyph unicode="^" horiz-adv-x="1087" d="M180 496l301 489h131l301 -489l-92 -70l-274 436l-275 -436z" />
<glyph unicode="_" horiz-adv-x="1048" d="M82 0h885v-135h-885v135z" />
<glyph unicode="`" horiz-adv-x="819" d="M174 1475q0 37 23 57t55 20q62 0 115 -88l178 -284l-51 -39l-246 219q-74 64 -74 115z" />
<glyph unicode="a" horiz-adv-x="1042" d="M92 229q0 63 26.5 111.5t103 100.5t210.5 100q110 40 232 67v56q0 144 -43.5 195.5t-149.5 51.5q-55 0 -104 -12l-41 -141q-28 -99 -111 -99q-42 0 -66.5 24t-29.5 65q29 118 136 188t263 70q164 0 241 -83.5t77 -273.5v-442q0 -121 67 -121q41 0 76 35l10 10l41 -45 q-33 -61 -72.5 -83.5t-93.5 -22.5q-85 0 -134.5 41.5t-61.5 115.5q-94 -94 -155 -131t-146 -37q-118 0 -196.5 68.5t-78.5 191.5zM274 260q0 -67 41 -108q45 -48 123 -48q47 0 86 21t140 92v315q-99 -27 -189 -61q-63 -25 -105.5 -53t-62 -56.5t-26.5 -51.5t-7 -50z" />
<glyph unicode="b" horiz-adv-x="1181" d="M51 1329v72l314 92l28 -16l-8 -291v-338q142 158 315 158q167 0 278.5 -139t111.5 -371q0 -234 -120 -380.5t-302 -146.5q-167 0 -283 146l-16 -135l-308 20v74l154 28q4 204 4 328v879zM391 201q121 -115 244 -115q116 0 193 102t77 291q0 193 -71 301.5t-189 108.5 q-110 0 -254 -119v-569z" />
<glyph unicode="c" horiz-adv-x="999" d="M96 483q0 118 39.5 218t105 165.5t150.5 102.5t178 37q137 0 240 -76t123 -191q-15 -77 -94 -77q-89 0 -113 98l-37 135q-52 16 -110 16q-134 0 -218 -107.5t-84 -299.5q0 -189 90 -295.5t236 -106.5q89 0 163.5 41.5t121.5 116.5l51 -27q-43 -128 -141 -196t-242 -68 q-211 0 -335 139t-124 375z" />
<glyph unicode="d" horiz-adv-x="1161" d="M92 477q0 233 123.5 381t312.5 148q154 0 269 -134v437l-174 20v72l319 92l29 -16l-8 -291v-1086l165 -26v-74l-317 -20l-14 139q-113 -150 -287 -150q-187 0 -302.5 141.5t-115.5 366.5zM276 481q0 -194 78 -294.5t207 -100.5q67 0 119.5 27.5t110.5 91.5v575 q-125 109 -232 109q-122 0 -202.5 -104.5t-80.5 -303.5z" />
<glyph unicode="e" horiz-adv-x="1044" d="M96 477q0 230 137.5 379.5t333.5 149.5q164 0 272.5 -107.5t108.5 -288.5q0 -65 -14 -112h-653q3 -187 91.5 -291.5t239.5 -104.5q91 0 157.5 36.5t127.5 107.5l49 -39q-59 -113 -158.5 -175.5t-234.5 -62.5q-208 0 -332.5 137t-124.5 371zM285 584h372q68 0 94.5 28 t26.5 78q0 89 -64.5 155t-158.5 66q-98 0 -176 -81t-94 -246z" />
<glyph unicode="f" horiz-adv-x="724" d="M70 860v90l172 23q15 168 47.5 267.5t97.5 168.5q117 125 289 125q168 0 196 -111q-3 -41 -36 -66.5t-88 -25.5q-74 0 -148 62l-51 41q-44 -30 -72 -82q-67 -119 -67 -350v-33h282v-109h-278v-430q0 -108 4 -326l184 -30v-74h-528v74l162 28q4 218 4 328v430h-170z" />
<glyph unicode="g" horiz-adv-x="1060" d="M68 -242q0 70 46 125.5t158 110.5q-63 26 -94 74t-31 104q0 113 129 211q-155 86 -155 287q0 157 103.5 246.5t267.5 89.5q165 0 266 -84l225 77l31 -20v-129h-199q45 -76 45 -180q0 -157 -103.5 -246.5t-267.5 -89.5q-85 0 -149 20q-39 -51 -39 -116q0 -58 36 -83.5 t128 -25.5h209q166 0 248 -68.5t82 -195.5q0 -68 -32.5 -130.5t-93.5 -113t-159.5 -80.5t-220.5 -30q-215 0 -322.5 66.5t-107.5 180.5zM236 -209q0 -186 270 -186q162 0 253 58.5t91 148.5q0 72 -50 113.5t-155 41.5h-219q-59 0 -109 13q-44 -49 -62.5 -92.5t-18.5 -96.5z M287 668q0 -115 52 -183.5t146 -68.5q97 0 153 72t56 188q0 111 -53 178.5t-147 67.5q-96 0 -151.5 -70t-55.5 -184z" />
<glyph unicode="h" horiz-adv-x="1230" d="M51 1329v72l314 92l28 -16l-8 -291v-371q76 86 178 138.5t197 52.5q134 0 198 -90.5t64 -288.5v-197q0 -124 4 -328l143 -28v-74h-475v74l150 26q4 204 4 330v180q0 139 -38 193.5t-130 54.5q-74 0 -141 -30.5t-148 -102.5v-295q0 -124 4 -328l142 -28v-74h-476v74 l154 28q4 204 4 328v879z" />
<glyph unicode="i" horiz-adv-x="610" d="M59 809v72l318 125l31 -21l-7 -278v-277q0 -73 5 -328l141 -28v-74h-475v74l151 28q4 204 4 328v102q0 136 -6 259zM176 1356q0 59 38.5 95t98.5 36q58 0 98 -36t40 -95q0 -56 -40 -93.5t-98 -37.5q-59 0 -98 37t-39 94z" />
<glyph unicode="j" horiz-adv-x="567" d="M-170 -393q27 86 121 86q67 0 153 -64l35 -26q14 17 25 35q45 86 54 166t9 354v374q0 136 -6 259l-162 18v72l312 125l30 -21l-6 -278v-521q0 -265 -23.5 -387t-99.5 -205q-51 -54 -107.5 -79t-131.5 -25q-100 0 -150.5 35.5t-52.5 81.5zM174 1356q0 59 39.5 95t97.5 36 q60 0 100 -36t40 -95q0 -56 -40.5 -93.5t-99.5 -37.5q-58 0 -97.5 37.5t-39.5 93.5z" />
<glyph unicode="k" horiz-adv-x="1120" d="M51 0v74l164 28q4 218 4 328v879l-168 20v72l320 92l28 -16l-8 -291v-697l359 373l-148 23v84h465v-84l-195 -27l-223 -227l336 -533l135 -24v-74h-278l-316 506l-135 -137q0 -91 4 -267l164 -28v-74h-508z" />
<glyph unicode="l" horiz-adv-x="610" d="M51 0v74l164 28q4 222 4 328v879l-168 20v72l320 92l28 -16l-8 -291v-756q0 -110 4 -328l164 -28v-74h-508z" />
<glyph unicode="m" horiz-adv-x="1845" d="M70 809v72l286 125l31 -21l16 -164q75 84 171 134.5t188 50.5q98 0 158 -46.5t84 -146.5q78 95 175 144t197 49q262 0 262 -359v-217q0 -124 4 -328l144 -28v-74h-475v74l151 28q4 200 4 328v184q0 138 -40 191t-132 53q-131 0 -274 -129q4 -62 4 -102v-197 q0 -124 4 -328l143 -28v-74h-475v74l152 28q4 200 4 328v180q0 138 -38 193t-130 55q-70 0 -133 -29t-139 -94v-305q0 -124 4 -328l141 -28v-74h-475v74l151 28q5 255 5 328v105q0 113 -7 256z" />
<glyph unicode="n" horiz-adv-x="1241" d="M70 809v72l286 125l31 -21l16 -166q76 85 174.5 136t192.5 51q134 0 198 -90.5t64 -288.5v-197q0 -124 4 -328l144 -28v-74h-475v74l151 28q4 200 4 328v180q0 139 -39 193.5t-131 54.5q-70 0 -134.5 -29t-143.5 -94v-305q0 -124 4 -328l141 -28v-74h-475v74l151 28 q5 255 5 328v105q0 113 -7 256z" />
<glyph unicode="o" horiz-adv-x="1124" d="M92 485q0 122 40 223t106.5 165t149.5 98.5t173 34.5t174 -34.5t150.5 -98.5t106.5 -165t40 -223q0 -123 -39.5 -223t-106 -163t-150.5 -96.5t-175 -33.5t-174 33.5t-149.5 96t-106 163t-39.5 223.5zM287 483q0 -205 71 -313.5t203 -108.5q134 0 205.5 108.5t71.5 313.5 q0 207 -71.5 317.5t-205.5 110.5q-132 0 -203 -110.5t-71 -317.5z" />
<glyph unicode="p" horiz-adv-x="1193" d="M72 -418l164 29q4 226 4 332v592q0 113 -7 256l-161 18v72l286 125l31 -21l12 -131q140 152 310 152q169 0 280 -139t111 -371q0 -234 -120 -380.5t-302 -146.5q-158 0 -272 135v-161q0 -108 4 -330l186 -31v-71h-526v71zM414 190q107 -104 225 -104q122 0 200.5 101.5 t78.5 291.5q0 193 -70.5 301.5t-185.5 108.5q-111 0 -248 -113v-586z" />
<glyph unicode="q" horiz-adv-x="1140" d="M92 477q0 233 122.5 381t307.5 148q162 0 283 -142l139 142l33 -21l-6 -276v-768q0 -108 4 -330l164 -29v-71h-527v71l189 31q4 222 4 328v190q-115 -162 -295 -162q-187 0 -302.5 141.5t-115.5 366.5zM276 481q0 -194 78 -294.5t207 -100.5q67 0 122 30.5t116 98.5v561 q-129 113 -240 113q-122 0 -202.5 -104.5t-80.5 -303.5z" />
<glyph unicode="r" horiz-adv-x="866" d="M70 809v72l286 125l31 -21l23 -244q52 124 131.5 194.5t163.5 70.5q51 0 91.5 -26t47.5 -75q0 -51 -34.5 -81.5t-88.5 -30.5q-66 0 -117 51l-16 16q-120 -87 -176 -270v-160q0 -122 4 -326l168 -30v-74h-498v74l147 26q5 255 5 330v105q0 113 -7 256z" />
<glyph unicode="s" horiz-adv-x="888" d="M96 272h113l39 -176q70 -33 166 -33q114 0 172.5 42.5t58.5 115.5q0 62 -45.5 102.5t-146.5 77.5l-95 33q-247 91 -247 273q0 123 99 211t257 88q148 0 287 -84l-9 -209h-106l-33 164q-67 34 -141 34q-92 0 -141.5 -39.5t-49.5 -109.5q0 -60 41 -96.5t148 -75.5l63 -23 q150 -55 215.5 -129t65.5 -174q0 -123 -104.5 -209t-292.5 -86q-153 0 -306 78z" />
<glyph unicode="t" horiz-adv-x="665" d="M18 860v90l183 23l53 278h123l-10 -282h274v-109h-279v-624q0 -150 113 -150q61 0 137 55l50 -55q-83 -106 -242 -106q-111 0 -172.5 58t-61.5 175q0 22 1 76t1 98v473h-170z" />
<glyph unicode="u" horiz-adv-x="1193" d="M51 883v73l301 29l21 -20l-11 -287v-322q0 -130 39.5 -184.5t124.5 -54.5q147 0 287 131l6 604l-145 31v73l297 29l20 -20l-6 -287v-576l139 -28v-74l-284 -20l-21 182q-159 -193 -362 -193q-131 0 -199 87q-68 86 -68 276v6l7 514z" />
<glyph unicode="v" horiz-adv-x="1034" d="M0 885v84h496v-84l-181 -23l250 -661l230 659l-168 25v84h389v-84l-113 -25l-332 -880h-88l-370 888z" />
<glyph unicode="w" horiz-adv-x="1564" d="M0 885v84h467v-84l-160 -23l211 -629l230 629l-152 23v84h453v-84l-152 -25l231 -622l193 622l-152 25v84h375v-84l-110 -23l-299 -882h-76l-275 710l-262 -710h-76l-329 886z" />
<glyph unicode="x" horiz-adv-x="1036" d="M20 0v74l130 24l284 371l-276 397l-127 19v84h440v-84l-115 -19l189 -282l205 278l-132 23v84h365v-84l-113 -21l-274 -354l285 -412l135 -24v-74h-481v74l141 26l-195 295l-213 -295l148 -26v-74h-396z" />
<glyph unicode="y" horiz-adv-x="1040" d="M-8 -373q10 41 48.5 63.5t86.5 22.5q40 0 75 -17t77 -58l10 -11q119 98 186 291l8 25l-368 923l-117 19v84h491v-86l-176 -21l252 -682l232 680l-179 25v84h402v-84l-113 -25l-309 -854q-99 -275 -196 -395.5t-224 -120.5q-77 0 -131.5 38.5t-54.5 98.5z" />
<glyph unicode="z" horiz-adv-x="933" d="M59 0v72l586 809h-412l-55 -228l-106 9l16 307h764v-74l-584 -809h447l61 248h107l-21 -334h-803z" />
<glyph unicode="{" horiz-adv-x="704" d="M82 528v82q127 17 185.5 64t58.5 125q0 45 -21.5 114.5t-43 150.5t-21.5 153q0 120 81.5 183.5t229.5 63.5h92v-82l-55 -6q-106 -12 -142 -45.5t-36 -122.5q0 -87 12 -221t12 -166q0 -211 -190 -252q190 -41 190 -252q0 -32 -12 -166t-12 -221q0 -89 36 -122.5t142 -45.5 l55 -6v-82h-92q-148 0 -229.5 64t-81.5 184q0 72 21.5 153t43 150.5t21.5 114.5q0 78 -58.5 124.5t-185.5 63.5z" />
<glyph unicode="|" horiz-adv-x="514" d="M197 -512v2048h120v-2048h-120z" />
<glyph unicode="}" horiz-adv-x="704" d="M61 -244l56 6q106 12 142 45.5t36 122.5q0 87 -12.5 221t-12.5 166q0 210 191 252q-191 42 -191 252q0 32 12.5 166t12.5 221q0 89 -36 122.5t-142 45.5l-56 6v82h93q148 0 229.5 -63.5t81.5 -183.5q0 -72 -21.5 -153t-43 -150.5t-21.5 -114.5q0 -78 58.5 -125t185.5 -64 v-82q-127 -17 -185.5 -63.5t-58.5 -124.5q0 -45 21.5 -114.5t43 -150.5t21.5 -153q0 -120 -81.5 -184t-229.5 -64h-93v82z" />
<glyph unicode="~" horiz-adv-x="1087" d="M100 575q9 142 71 215.5t175 73.5q62 0 117.5 -27.5t120.5 -84.5q91 -84 170 -84q108 0 131 186l102 -16q-8 -141 -70 -215t-176 -74q-60 0 -116 28t-119 85q-93 83 -172 83q-106 0 -129 -186z" />
<glyph unicode="&#xa2;" horiz-adv-x="1024" d="M88 643q0 215 121 354t299 162v193h84v-189q129 -8 223 -82t113 -184q-15 -78 -97 -78q-50 0 -80.5 36.5t-50.5 119.5l-18 80q-52 13 -90 16v-813q89 3 166.5 45t124.5 115l49 -27q-79 -241 -340 -262v-221h-84v221q-191 12 -305.5 150.5t-114.5 363.5zM266 662 q0 -164 65.5 -267.5t176.5 -128.5v799q-110 -24 -176 -129t-66 -274z" />
<glyph unicode="&#xa3;" horiz-adv-x="1024" d="M72 0v106q107 60 168 171.5t61 234.5q0 36 -6 70h-211v104h180q-6 17 -25 61.5t-28 69.5t-18 68.5t-9 87.5q0 162 107.5 269.5t275.5 107.5q143 0 247.5 -84.5t111.5 -214.5q-23 -66 -95 -66q-45 0 -74 31t-46 106l-29 125q-41 10 -84 10q-102 0 -163.5 -67.5 t-61.5 -208.5q0 -54 4.5 -99.5t16.5 -113t14 -82.5h337v-104h-327q2 -18 2 -56q-3 -236 -156 -358h690v-168h-882z" />
<glyph unicode="&#xa5;" horiz-adv-x="1024" d="M-23 1239v80h498v-80l-153 -20l237 -543l244 541l-150 22v80h394v-80l-146 -25l-258 -563h293v-102h-338v-137h338v-103h-338q0 -61 4 -205l211 -22v-82h-598v82l207 20q1 35 2 104t2 103h-324v103h324v137h-324v102h279l-270 572z" />
<glyph unicode="&#xa8;" horiz-adv-x="819" d="M86 1313q0 49 34.5 80.5t82.5 31.5q50 0 84.5 -31.5t34.5 -80.5t-34.5 -81t-84.5 -32q-48 0 -82.5 32t-34.5 81zM498 1313q0 49 34 80.5t84 31.5q48 0 82.5 -31.5t34.5 -80.5t-34.5 -81t-82.5 -32q-50 0 -84 32t-34 81z" />
<glyph unicode="&#xa9;" horiz-adv-x="1546" d="M61 690q0 216 96 379.5t256.5 247.5t360.5 84q199 0 359 -84t256 -247.5t96 -379.5q0 -163 -55.5 -300t-151.5 -228.5t-226 -142t-278 -50.5q-149 0 -279 50.5t-226.5 142t-152 228t-55.5 300.5zM166 690q0 -193 80.5 -339.5t218 -223t309.5 -76.5t309.5 77t218 223.5 t80.5 338.5q0 144 -46.5 263t-128.5 198.5t-193 123.5t-240 44t-240 -43.5t-193 -123t-128.5 -199t-46.5 -263.5zM406 690q0 181 114 299.5t285 118.5q132 0 233 -57l4 -195h-88l-22 148q-52 24 -109 24q-117 0 -192.5 -88.5t-75.5 -247.5q0 -161 72.5 -247.5t195.5 -86.5 q54 0 119 23l23 145h90l-6 -194q-110 -58 -242 -58q-178 0 -289.5 116t-111.5 300z" />
<glyph unicode="&#xab;" horiz-adv-x="997" d="M61 463v108l420 361l49 -55l-307 -359l307 -360l-49 -56zM475 463v108l420 361l49 -55l-307 -359l307 -360l-49 -56z" />
<glyph unicode="&#xad;" horiz-adv-x="638" d="M82 446v136h475v-136h-475z" />
<glyph unicode="&#xae;" horiz-adv-x="940" d="M61 1057q0 182 119 291.5t289 109.5q82 0 156.5 -27.5t131 -78t89.5 -127t33 -168.5q0 -122 -56.5 -216.5t-149.5 -143t-204 -48.5q-174 0 -291 112t-117 296zM133 1057q0 -153 98 -248.5t238 -95.5q142 0 240 95.5t98 248.5q0 152 -97.5 245t-240.5 93 q-141 0 -238.5 -93t-97.5 -245zM281 858v31l59 6v336l-59 6v33h194q72 0 114 -29t42 -76q0 -36 -24.5 -64.5t-76.5 -41.5q78 -16 93 -80l16 -84l49 -6v-31q-36 -8 -61 -8q-39 0 -56.5 11t-23.5 42l-19 88q-8 49 -71 49h-29v-145l57 -6v-31h-204zM428 1075h27q42 0 62 23 t20 59q0 78 -82 78h-27v-160z" />
<glyph unicode="&#xb2;" d="M98 1495q7 99 88 153t197 54q125 0 186.5 -61.5t61.5 -151.5q0 -84 -57.5 -162.5t-206.5 -216.5l-105 -96h400v-144h-551v103l190 182q93 89 136.5 165t43.5 153t-40 118t-113 41q-18 0 -54 -4l-20 -80q-13 -57 -32 -79.5t-48 -22.5q-51 0 -76 49z" />
<glyph unicode="&#xb3;" d="M92 1047q18 53 72 53q30 0 50 -22t30 -77l16 -73q31 -8 68 -8q90 0 139 46t49 128q0 161 -190 161h-62v82h51q168 0 168 148q0 71 -39.5 109t-109.5 38q-13 0 -49 -4l-15 -74q-7 -44 -28.5 -65t-51.5 -21q-48 0 -69 43q11 94 81.5 142.5t172.5 48.5q114 0 184 -55 t70 -146q0 -71 -42 -126t-112 -75q92 -17 141.5 -72t49.5 -141q0 -80 -44 -134.5t-109.5 -77.5t-145.5 -23q-119 0 -189.5 50.5t-85.5 144.5z" />
<glyph unicode="&#xb4;" horiz-adv-x="819" d="M266 1180l178 284q56 88 115 88q32 0 55 -20t23 -57q0 -51 -74 -115l-244 -219z" />
<glyph unicode="&#xb8;" horiz-adv-x="819" d="M215 -432l14 63q49 -6 99 -6q118 0 118 92q0 46 -35.5 71t-111.5 36l27 182h75l-16 -125q83 -13 135.5 -55.5t52.5 -112.5q0 -73 -60 -118.5t-169 -45.5q-65 0 -129 19z" />
<glyph unicode="&#xb9;" d="M135 870v60l184 33v604l-157 -13v76l284 66l19 -13v-720l180 -33v-60h-510z" />
<glyph unicode="&#xbb;" horiz-adv-x="997" d="M53 158l307 360l-307 359l49 55l420 -361v-108l-420 -361zM467 158l307 360l-307 359l49 55l420 -361v-108l-420 -361z" />
<glyph unicode="&#xc4;" horiz-adv-x="1359" d="M10 0v84l174 27l434 1259h130l436 -1268l153 -18v-84h-557v84l201 25l-113 335h-473l-114 -333l198 -27v-84h-469zM330 1622q0 48 35.5 80.5t83.5 32.5q50 0 83 -32t33 -81q0 -47 -33.5 -80t-82.5 -33q-48 0 -83.5 33t-35.5 80zM428 541h408l-203 600zM788 1622 q0 49 33.5 81t83.5 32q48 0 83.5 -32.5t35.5 -80.5q0 -47 -35.5 -80t-83.5 -33q-49 0 -83 33t-34 80z" />
<glyph unicode="&#xd6;" horiz-adv-x="1447" d="M96 686q0 131 35 246.5t95.5 200t140 146t171.5 92t187 30.5q120 0 231 -47t200 -134.5t142.5 -226t53.5 -307.5q0 -132 -34.5 -247.5t-95 -200.5t-140 -146t-171 -92t-186.5 -31q-97 0 -188 29t-171 89t-140 143.5t-95 201t-35 254.5zM319 686q0 -120 24 -227t71.5 -195 t127.5 -140t183 -52q83 0 151 34.5t113.5 92.5t77 137.5t45.5 167t14 182.5t-14 182t-45.5 166t-77 137t-113.5 92.5t-151 34.5q-103 0 -183 -52t-127.5 -139.5t-71.5 -194.5t-24 -226zM375 1622q0 48 35.5 80.5t83.5 32.5q50 0 83 -32t33 -81q0 -47 -33.5 -80t-82.5 -33 q-48 0 -83.5 33t-35.5 80zM834 1622q0 49 33 81t83 32q48 0 83.5 -32.5t35.5 -80.5q0 -47 -35.5 -80t-83.5 -33q-49 0 -82.5 33t-33.5 80z" />
<glyph unicode="&#xdc;" horiz-adv-x="1488" d="M80 1286v84h579v-84l-208 -24q-5 -215 -5 -525v-162q0 -129 23 -219.5t69 -142.5t106.5 -75t141.5 -23q178 0 264.5 115t86.5 380v650l-209 26v84h491v-84l-178 -22v-703q0 -158 -36.5 -274t-103.5 -184.5t-153.5 -101t-195.5 -32.5q-233 0 -365.5 135t-132.5 412v221 q0 353 -4 529zM438 1622q0 48 35.5 80.5t83.5 32.5q50 0 83.5 -32t33.5 -81q0 -47 -34 -80t-83 -33q-48 0 -83.5 33t-35.5 80zM897 1622q0 49 33.5 81t83.5 32q48 0 83.5 -32.5t35.5 -80.5q0 -47 -35.5 -80t-83.5 -33q-49 0 -83 33t-34 80z" />
<glyph unicode="&#xdf;" horiz-adv-x="1212" d="M51 0v74l164 28q4 222 4 328v428q0 275 70 426q52 114 159.5 182t243.5 68q158 0 257.5 -78.5t99.5 -200.5q0 -156 -177 -284q-116 -85 -116 -191q0 -60 32 -94.5t127 -91.5q148 -92 201 -161t53 -169q0 -138 -87.5 -216.5t-260.5 -78.5q-130 0 -286 58l-9 245h101 l49 -184q66 -25 135 -25q193 0 193 166q0 58 -35.5 105t-143.5 112q-57 33 -92 58t-66 58.5t-45 74.5t-14 94q0 150 140 264q72 60 101.5 111t29.5 123q0 100 -54 156.5t-163 56.5q-99 0 -157 -44.5t-87 -133.5q-19 -57 -23 -128.5t-4 -250.5v-455q0 -216 6 -430h-346z" />
<glyph unicode="&#xe4;" horiz-adv-x="1042" d="M92 229q0 63 26.5 111.5t103 100.5t210.5 100q110 40 232 67v56q0 144 -43.5 195.5t-149.5 51.5q-55 0 -104 -12l-41 -141q-28 -99 -111 -99q-42 0 -66.5 24t-29.5 65q29 118 136 188t263 70q164 0 241 -83.5t77 -273.5v-442q0 -121 67 -121q41 0 76 35l10 10l41 -45 q-33 -61 -72.5 -83.5t-93.5 -22.5q-85 0 -134.5 41.5t-61.5 115.5q-94 -94 -155 -131t-146 -37q-118 0 -196.5 68.5t-78.5 191.5zM188 1313q0 49 34.5 80.5t82.5 31.5q50 0 84.5 -31.5t34.5 -80.5t-34.5 -81t-84.5 -32q-48 0 -82.5 32t-34.5 81zM274 260q0 -67 41 -108 q45 -48 123 -48q47 0 86 21t140 92v315q-99 -27 -189 -61q-63 -25 -105.5 -53t-62 -56.5t-26.5 -51.5t-7 -50zM600 1313q0 49 34.5 80.5t84.5 31.5q48 0 82.5 -31.5t34.5 -80.5t-34.5 -81t-82.5 -32q-50 0 -84.5 32t-34.5 81z" />
<glyph unicode="&#xf6;" horiz-adv-x="1124" d="M92 485q0 122 40 223t106.5 165t149.5 98.5t173 34.5t174 -34.5t150.5 -98.5t106.5 -165t40 -223q0 -123 -39.5 -223t-106 -163t-150.5 -96.5t-175 -33.5t-174 33.5t-149.5 96t-106 163t-39.5 223.5zM238 1313q0 49 34 80.5t82 31.5q50 0 84.5 -31.5t34.5 -80.5 t-34.5 -81t-84.5 -32q-48 0 -82 32t-34 81zM287 483q0 -205 71 -313.5t203 -108.5q134 0 205.5 108.5t71.5 313.5q0 207 -71.5 317.5t-205.5 110.5q-132 0 -203 -110.5t-71 -317.5zM649 1313q0 49 34.5 80.5t84.5 31.5q48 0 82.5 -31.5t34.5 -80.5t-34.5 -81t-82.5 -32 q-50 0 -84.5 32t-34.5 81z" />
<glyph unicode="&#xfc;" horiz-adv-x="1193" d="M51 883v73l301 29l21 -20l-11 -287v-322q0 -130 39.5 -184.5t124.5 -54.5q147 0 287 131l6 604l-145 31v73l297 29l20 -20l-6 -287v-576l139 -28v-74l-284 -20l-21 182q-159 -193 -362 -193q-131 0 -199.5 87t-67.5 282l7 514zM274 1313q0 49 34.5 80.5t82.5 31.5 q50 0 84.5 -31.5t34.5 -80.5t-34.5 -81t-84.5 -32q-48 0 -82.5 32t-34.5 81zM686 1313q0 49 34.5 80.5t84.5 31.5q48 0 82.5 -31.5t34.5 -80.5t-34.5 -81t-82.5 -32q-50 0 -84.5 32t-34.5 81z" />
<glyph unicode="&#x2b0;" horiz-adv-x="843" d="M33 1720v58l223 61l20 -10v-428q105 133 246 133q189 0 189 -236v-348l92 -18v-62h-328v62l96 16v322q0 84 -23.5 118.5t-82.5 34.5q-79 0 -184 -92v-381l94 -18v-62h-332v62l98 18v758z" />
<glyph unicode="&#x2b2;" horiz-adv-x="395" d="M-129 629q19 73 90 73q59 0 113 -57l20 -20q9 14 10 16q27 45 34 110t7 222v413l-108 13v49l225 84l23 -14v-547q0 -152 -17 -224.5t-69 -123.5q-67 -78 -179 -78q-69 0 -105.5 24t-43.5 60zM115 1751q0 41 28 66.5t70 25.5t71 -26t29 -66q0 -41 -29 -67.5t-71 -26.5 t-70 26.5t-28 67.5z" />
<glyph unicode="&#x2b3;" horiz-adv-x="600" d="M47 1393v57l205 84l22 -12l19 -166q35 82 90 130t113 48q34 0 60.5 -18.5t33.5 -59.5q0 -41 -24.5 -65.5t-63.5 -24.5q-44 0 -88 47l-8 10q-74 -57 -113 -155v-316l115 -20v-62h-349v62l95 16v432z" />
<glyph unicode="&#x2b7;" horiz-adv-x="1079" d="M0 1446v63h326v-63l-95 -12l136 -359l143 359l-96 12v63h311v-63l-92 -12l147 -357l125 355l-96 14v63h258v-63l-82 -14l-207 -576h-55l-184 459l-179 -459h-55l-223 580z" />
<glyph unicode="&#x2b8;" horiz-adv-x="712" d="M-6 647q7 30 31.5 45t56.5 15q59 0 111 -45l14 -15q75 53 125 178l-252 607l-82 14v63h354v-63l-121 -16l170 -412l144 414l-113 14v63h273v-63l-84 -14l-213 -584q-56 -154 -125 -225.5t-158 -71.5q-56 0 -93.5 26.5t-37.5 69.5z" />
<glyph unicode="&#x2c6;" horiz-adv-x="819" d="M104 1184l271 360h69l271 -360l-47 -45l-258 219l-258 -219z" />
<glyph unicode="&#x2da;" horiz-adv-x="819" d="M195 1313q0 93 64 150t151 57q89 0 152 -55t63 -152q0 -93 -64 -150t-151 -57q-88 0 -151.5 56t-63.5 151zM293 1313q0 -51 31.5 -89t85.5 -38q53 0 84.5 38t31.5 89t-31 89t-85 38q-53 0 -85 -38.5t-32 -88.5z" />
<glyph unicode="&#x2dc;" horiz-adv-x="819" d="M76 1245q0 102 56 163.5t140 61.5q86 0 177 -88q42 -42 72 -60.5t61 -18.5q43 0 69.5 35.5t26.5 109.5h70q4 -28 4 -49q0 -102 -56.5 -163.5t-140.5 -61.5q-86 0 -176 90q-45 43 -73 61t-58 18q-45 0 -71.5 -36t-26.5 -109h-70q-4 24 -4 47z" />
<glyph unicode="&#x2e1;" horiz-adv-x="417" d="M33 1720v58l227 61l21 -10v-879l104 -18v-62h-348v62l104 18v758z" />
<glyph unicode="&#x2e2;" horiz-adv-x="616" d="M68 1063h82l22 -113q55 -28 123 -28q145 0 145 88q0 39 -30 63.5t-103 50.5l-63 23q-168 64 -168 192q0 85 67.5 140t182.5 55q101 0 198 -51l-8 -144h-76l-20 103q-48 20 -94 20q-129 0 -129 -82q0 -34 28 -57t103 -49l43 -14q101 -36 145.5 -86t44.5 -119 q0 -90 -72.5 -147.5t-201.5 -57.5q-111 0 -215 61z" />
<glyph unicode="&#x2e3;" horiz-adv-x="716" d="M14 870v62l99 16l174 232l-178 254l-89 12v63h308v-63l-70 -10l127 -172l125 170l-82 12v63h248v-63l-84 -14l-172 -220l184 -262l98 -18v-62h-333v62l82 14l-129 182l-129 -180l92 -16v-62h-271z" />
<glyph unicode="&#x1d43;" horiz-adv-x="718" d="M57 1022q0 68 51 118t187 93q112 33 147 41v37q0 92 -27.5 125.5t-99.5 33.5q-25 0 -63 -6l-21 -78q-7 -44 -29.5 -67t-54.5 -23q-61 0 -71 62q15 79 91 127.5t191 48.5q117 0 170.5 -56.5t53.5 -185.5v-293q0 -63 41 -63q25 0 53 31l31 -27q-41 -84 -127 -84 q-56 0 -90.5 28.5t-43.5 78.5q-61 -61 -102.5 -86t-101.5 -25q-81 0 -133 45.5t-52 124.5zM201 1049q0 -47 28 -72q26 -29 76 -29q7 0 12.5 0.5t12.5 2.5t11.5 3.5t13 6t12.5 7t15.5 9.5t16.5 10.5t20 13.5t23 15v207q-50 -13 -114 -37q-72 -27 -99.5 -60.5t-27.5 -76.5z " />
<glyph unicode="&#x1d47;" horiz-adv-x="813" d="M33 1720v58l221 61l27 -10v-387q95 92 204 92q114 0 189.5 -86t75.5 -252q0 -164 -80.5 -255t-204.5 -91q-114 0 -193 88l-10 -86l-219 18v58l98 18v762zM281 1012q84 -68 163 -68q162 0 162 246q0 137 -40.5 194.5t-112.5 57.5q-79 0 -172 -72v-358z" />
<glyph unicode="&#x1d48;" horiz-adv-x="798" d="M59 1192q0 165 84 253.5t209 88.5q100 0 180 -92v266l-108 12v58l227 61l21 -10v-883l104 -20v-56l-225 -14l-14 96q-92 -102 -203 -102q-54 0 -102 20t-87.5 60t-62.5 107.5t-23 154.5zM205 1192q0 -248 174 -248q75 0 153 66v358q-87 74 -153 74q-83 0 -128.5 -57.5 t-45.5 -192.5z" />
<glyph unicode="&#x1d49;" horiz-adv-x="718" d="M61 1190q0 150 95.5 247t230.5 97q118 0 193 -76t75 -198q0 -34 -8 -74h-444q4 -114 62 -172t155 -58q66 0 111.5 24.5t84.5 74.5l35 -27q-37 -85 -105.5 -131.5t-160.5 -46.5q-149 0 -236.5 90t-87.5 250zM205 1251h239q48 0 66 18t18 56q0 65 -41 101t-104 36 q-65 0 -116 -50t-62 -161z" />
<glyph unicode="&#x1d4d;" horiz-adv-x="731" d="M39 717q0 86 127 145q-78 41 -78 121q0 85 94 147q-108 54 -108 185q0 100 70.5 158.5t189.5 58.5q121 0 190 -57l154 55l20 -12v-93h-133q29 -50 29 -110q0 -98 -71 -157.5t-189 -59.5q-64 0 -107 14q-24 -30 -24 -65t23.5 -51.5t82.5 -16.5h142q241 0 241 -182 q0 -100 -95.5 -170t-264.5 -70q-150 0 -221.5 44t-71.5 116zM158 745q0 -116 182 -116q109 0 168 33t59 86q0 40 -31 64t-98 24h-147q-51 0 -92 12q-41 -49 -41 -103zM209 1313q0 -73 31.5 -115.5t89.5 -42.5q61 0 95 44.5t34 117.5q0 72 -32.5 115t-90.5 43 q-59 0 -93 -44.5t-34 -117.5z" />
<glyph unicode="&#x1d4f;" horiz-adv-x="765" d="M33 1720v58l227 61l21 -10v-647l235 250l-100 14v63h319v-63l-133 -16l-147 -152l200 -328l95 -18v-62h-191l-197 312l-81 -84v-148l104 -18v-62h-348v62l104 18v758z" />
<glyph unicode="&#x1d50;" horiz-adv-x="1263" d="M47 1393v57l205 84l22 -12l17 -121q98 133 231 133q138 0 178 -135q103 135 242 135q188 0 188 -238v-346l95 -18v-62h-330v62l98 18v318q0 86 -24 120.5t-78 34.5q-66 0 -180 -88q2 -12 2 -39v-346l92 -18v-62h-328v62l98 18v318q0 86 -23.5 120.5t-78.5 34.5 q-67 0 -178 -86v-387l90 -18v-62h-328v62l99 18v430z" />
<glyph unicode="&#x1d52;" horiz-adv-x="772" d="M57 1192q0 155 98 248.5t232 93.5q132 0 230 -94t98 -248q0 -156 -97 -249t-231 -93q-135 0 -232.5 93.5t-97.5 248.5zM201 1192q0 -270 186 -270q184 0 184 270q0 135 -47.5 202.5t-136.5 67.5q-186 0 -186 -270z" />
<glyph unicode="&#x1d56;" horiz-adv-x="821" d="M47 1393v57l207 84l20 -12l17 -97q95 109 211 109q111 0 185.5 -86.5t74.5 -251.5q0 -163 -80.5 -254.5t-200.5 -91.5q-109 0 -186 92v-303l117 -21v-61h-363v61l107 21v741zM295 1018q86 -74 162 -74q161 0 161 246q0 138 -40.5 195t-114.5 57q-44 0 -82.5 -18.5 t-85.5 -57.5v-348z" />
<glyph unicode="&#x1d57;" horiz-adv-x="462" d="M14 1423v76l119 14l35 185h98l-4 -189h178v-86h-178v-368q0 -94 72 -94q47 0 92 32l35 -47q-62 -90 -174 -90q-71 0 -117.5 42t-46.5 122v403h-109z" />
<glyph unicode="&#x1d58;" horiz-adv-x="821" d="M37 1442v57l211 23l14 -13v-393q0 -153 98 -153q81 0 187 88v374l-86 17v55l213 25l12 -13v-557l88 -20v-62l-203 -14l-20 129q-104 -135 -238 -135q-190 0 -190 242v333z" />
<glyph unicode="&#x1d5b;" horiz-adv-x="714" d="M0 1446v63h342v-63l-104 -16l161 -394l146 396l-109 14v63h269v-63l-82 -14l-230 -576h-61l-250 576z" />
<glyph unicode="&#x1d9c;" horiz-adv-x="679" d="M61 1190q0 155 97.5 249.5t234.5 94.5q98 0 168.5 -52.5t81.5 -131.5q-12 -62 -70 -62q-71 0 -90 109l-10 57q-27 8 -72 8q-89 0 -143.5 -65t-54.5 -189q0 -123 58.5 -187.5t156.5 -64.5q67 0 112 25t78 76l37 -23q-28 -87 -97 -135.5t-171 -48.5q-144 0 -230 91t-86 249 z" />
<glyph unicode="&#x1da0;" horiz-adv-x="473" d="M45 1423v76l111 12q11 105 36 166t80 115q69 74 191 74q52 0 89.5 -20t47.5 -56q-3 -35 -25 -57.5t-55 -22.5q-27 0 -49.5 17t-58.5 57l-21 20q-32 -16 -49 -43q-54 -75 -51 -252h182v-86h-180v-471l121 -20v-62h-365v62l105 18v473h-109z" />
<glyph unicode="&#x1dbb;" horiz-adv-x="632" d="M35 870v52l387 524h-264l-37 -143l-78 6l10 200h533v-51l-383 -522h284l39 156h76l-14 -222h-553z" />
<glyph unicode="&#x2000;" horiz-adv-x="933" />
<glyph unicode="&#x2001;" horiz-adv-x="1866" />
<glyph unicode="&#x2002;" horiz-adv-x="933" />
<glyph unicode="&#x2003;" horiz-adv-x="1866" />
<glyph unicode="&#x2004;" horiz-adv-x="622" />
<glyph unicode="&#x2005;" horiz-adv-x="466" />
<glyph unicode="&#x2006;" horiz-adv-x="311" />
<glyph unicode="&#x2007;" horiz-adv-x="311" />
<glyph unicode="&#x2008;" horiz-adv-x="233" />
<glyph unicode="&#x2009;" horiz-adv-x="373" />
<glyph unicode="&#x200a;" horiz-adv-x="103" />
<glyph unicode="&#x2010;" horiz-adv-x="638" d="M82 446v136h475v-136h-475z" />
<glyph unicode="&#x2011;" horiz-adv-x="638" d="M82 446v136h475v-136h-475z" />
<glyph unicode="&#x2012;" horiz-adv-x="638" d="M82 446v136h475v-136h-475z" />
<glyph unicode="&#x2013;" horiz-adv-x="1048" d="M82 446v136h885v-136h-885z" />
<glyph unicode="&#x2014;" horiz-adv-x="1662" d="M82 446v136h1499v-136h-1499z" />
<glyph unicode="&#x2018;" horiz-adv-x="434" d="M76 1094q0 127 79.5 244.5t202.5 195.5l39 -55q-81 -66 -124.5 -117.5t-75.5 -128.5l59 -53q80 -70 80 -152q0 -60 -32 -90.5t-89 -30.5q-67 0 -111 41q-28 70 -28 146z" />
<glyph unicode="&#x2019;" horiz-adv-x="434" d="M37 963q82 67 126 118t75 127l-60 54q-80 70 -80 151q0 60 32 90.5t89 30.5q67 0 111 -41q28 -70 28 -145q0 -127 -79.5 -245t-202.5 -196z" />
<glyph unicode="&#x201a;" horiz-adv-x="434" d="M37 -264q81 66 125 117.5t76 128.5l-60 53q-80 70 -80 151q0 60 32 90.5t89 30.5q67 0 111 -41q28 -70 28 -145q0 -127 -79.5 -244.5t-202.5 -195.5z" />
<glyph unicode="&#x201c;" horiz-adv-x="849" d="M76 1094q0 127 79.5 244.5t202.5 195.5l39 -55q-81 -66 -124.5 -117.5t-75.5 -128.5l59 -53q80 -70 80 -152q0 -60 -32 -90.5t-89 -30.5q-67 0 -111 41q-28 70 -28 146zM492 1094q0 127 79.5 244.5t202.5 195.5l39 -55q-81 -66 -125 -117.5t-76 -128.5l60 -53 q80 -70 80 -152q0 -60 -32 -90.5t-89 -30.5q-67 0 -111 41q-28 70 -28 146z" />
<glyph unicode="&#x201d;" horiz-adv-x="849" d="M37 963q82 67 126 118t75 127l-60 54q-80 70 -80 151q0 60 32 90.5t89 30.5q67 0 111 -41q28 -70 28 -145q0 -127 -79.5 -245t-202.5 -196zM453 963q81 66 124.5 117t75.5 128l-59 54q-80 70 -80 151q0 60 32 90.5t89 30.5q66 0 110 -41q29 -73 29 -145 q0 -127 -79.5 -245t-202.5 -196z" />
<glyph unicode="&#x201e;" horiz-adv-x="849" d="M37 -264q81 66 125 117.5t76 128.5l-60 53q-80 70 -80 151q0 60 32 90.5t89 30.5q67 0 111 -41q28 -70 28 -145q0 -127 -79.5 -244.5t-202.5 -195.5zM453 -264q81 66 124.5 117.5t75.5 128.5l-59 53q-80 70 -80 151q0 60 32 90.5t89 30.5q66 0 110 -41q29 -73 29 -145 q0 -127 -79.5 -244.5t-202.5 -195.5z" />
<glyph unicode="&#x2026;" horiz-adv-x="1843" d="M162 115q0 62 42 104.5t103 42.5t103.5 -42.5t42.5 -104.5q0 -60 -42.5 -103t-103.5 -43t-103 43t-42 103zM776 115q0 62 42.5 104.5t103.5 42.5t103 -42.5t42 -104.5q0 -60 -42 -103t-103 -43t-103.5 43t-42.5 103zM1391 115q0 62 42 104.5t103 42.5t103 -42.5 t42 -104.5q0 -60 -42 -103t-103 -43t-103 43t-42 103z" />
<glyph unicode="&#x202f;" horiz-adv-x="373" />
<glyph unicode="&#x2039;" horiz-adv-x="583" d="M61 463v108l420 361l49 -55l-307 -359l307 -360l-49 -56z" />
<glyph unicode="&#x203a;" horiz-adv-x="583" d="M53 158l307 360l-307 359l49 55l420 -361v-108l-420 -361z" />
<glyph unicode="&#x205f;" horiz-adv-x="466" />
<glyph unicode="&#x2070;" d="M92 1276q0 108 24 191t65.5 131.5t92 73t107.5 24.5q56 0 106 -24.5t90.5 -73t64.5 -131.5t24 -191q0 -107 -24 -190t-64.5 -131.5t-90.5 -72.5t-106 -24q-57 0 -107.5 24t-92 72.5t-65.5 131.5t-24 190zM242 1276q0 -105 11 -177.5t32 -108.5t43.5 -50t52.5 -14t52 14 t42 50t30.5 108t10.5 178t-10.5 178t-30.5 108t-42 50t-52 14t-52.5 -14t-43.5 -49.5t-32 -108t-11 -178.5z" />
<glyph unicode="&#x2071;" horiz-adv-x="419" d="M43 1393v57l223 84l21 -12v-572l94 -18v-62h-332v62l98 18v430zM121 1751q0 41 28 66.5t70 25.5t71 -26t29 -66q0 -41 -29 -67.5t-71 -26.5t-70 26.5t-28 67.5z" />
<glyph unicode="&#x2074;" d="M66 1077v94l385 525h96v-502h131v-117h-131v-207h-133v207h-348zM166 1194h248v354z" />
<glyph unicode="&#x2075;" d="M96 1036q15 68 78 68q29 0 46.5 -22.5t29.5 -77.5l14 -72q43 -12 82 -12q75 0 121.5 52.5t46.5 141.5q0 86 -47 132t-139 46q-55 0 -123 -14l-37 25l29 378h438v-143h-377l-12 -168q62 12 121 12q133 0 215 -66.5t82 -193.5q0 -125 -86 -197.5t-218 -72.5 q-114 0 -182.5 51t-81.5 133z" />
<glyph unicode="&#x2076;" d="M100 1200q0 71 20.5 141t63 134t101.5 113.5t142 81.5t179 38l8 -59q-160 -31 -249 -121t-107 -217q72 63 174 63q115 0 180.5 -66t65.5 -182q0 -130 -78 -202t-199 -72q-138 0 -219.5 96t-81.5 252zM252 1235q0 -315 151 -315q62 0 98 47.5t36 142.5q0 176 -142 176 q-75 0 -143 -51z" />
<glyph unicode="&#x2077;" d="M115 1538v143h547v-84l-310 -727h-131l-12 13l340 655h-434z" />
<glyph unicode="&#x2078;" d="M100 1053q0 135 168 211q-137 80 -137 217q0 102 73.5 161.5t182.5 59.5q105 0 170.5 -55.5t65.5 -139.5q0 -107 -140 -190q89 -45 132.5 -101t43.5 -131q0 -106 -78.5 -169.5t-205.5 -63.5q-124 0 -199.5 52.5t-75.5 148.5zM229 1059q0 -64 42.5 -102.5t107.5 -38.5 q67 0 106 40t39 97q0 51 -41.5 90t-154.5 90q-99 -66 -99 -176zM256 1520q0 -97 166 -174q80 67 80 157q0 63 -30.5 97t-88.5 34q-55 0 -91 -29.5t-36 -84.5z" />
<glyph unicode="&#x2079;" d="M84 1434q0 116 81.5 192t205.5 76q135 0 211.5 -94.5t76.5 -259.5q0 -198 -129 -331t-352 -165l-14 59q153 46 231.5 124t100.5 196q-61 -43 -150 -43q-115 0 -188.5 66.5t-73.5 179.5zM227 1452q0 -92 43.5 -134t116.5 -42q67 0 119 35q2 16 2 51q0 270 -143 270 q-59 0 -98.5 -44.5t-39.5 -135.5z" />
<glyph unicode="&#x207d;" horiz-adv-x="516" d="M109 1223q0 331 288 579l43 -41q-110 -148 -154 -273t-44 -265q0 -138 44 -263.5t154 -273.5l-43 -39q-288 242 -288 576z" />
<glyph unicode="&#x207e;" horiz-adv-x="516" d="M76 686q109 149 153.5 274.5t44.5 262.5q0 138 -44.5 263.5t-153.5 274.5l43 41q289 -246 289 -579q0 -336 -289 -576z" />
<glyph unicode="&#x207f;" horiz-adv-x="851" d="M47 1393v57l205 84l22 -12l15 -117q54 69 112 99t127 30q191 0 191 -236v-348l92 -18v-62h-330v62l99 18v320q0 83 -24 118t-77 35q-84 0 -186 -86v-387l92 -18v-62h-328v62l97 16v432z" />
<glyph unicode="&#x2080;" d="M92 -29q0 108 24 191t65.5 131.5t92 73t107.5 24.5q56 0 106 -24.5t90.5 -73t64.5 -131.5t24 -191q0 -107 -24 -189.5t-64.5 -131t-90.5 -72.5t-106 -24q-57 0 -107.5 24t-92 72.5t-65.5 131t-24 189.5zM242 -29q0 -105 11 -177.5t32 -108.5t43.5 -50t52.5 -14t52 14 t42 50t30.5 108t10.5 178t-10.5 178t-30.5 108t-42 50.5t-52 14.5t-52.5 -14t-43.5 -50t-32 -108.5t-11 -178.5z" />
<glyph unicode="&#x2081;" d="M135 -375l184 33v604l-157 -12v76l284 65l19 -12v-721l180 -33v-59h-510v59z" />
<glyph unicode="&#x2082;" d="M98 190q7 99 88 153t197 54q125 0 186.5 -61.5t61.5 -151.5q0 -84 -57.5 -162.5t-206.5 -216.5l-105 -96h400v-143h-551v102l190 182q93 89 136.5 165t43.5 153t-40 118.5t-113 41.5q-18 0 -54 -4l-20 -80q-13 -58 -32 -80.5t-48 -22.5q-51 0 -76 49z" />
<glyph unicode="&#x2083;" d="M92 -258q18 53 72 53q30 0 50 -21.5t30 -76.5l16 -74q31 -8 68 -8q90 0 139 46t49 128q0 162 -190 162h-62v82h51q168 0 168 147q0 71 -39.5 109.5t-109.5 38.5q-13 0 -49 -4l-15 -74q-7 -44 -28.5 -65t-51.5 -21q-48 0 -69 43q11 94 81.5 142t172.5 48q114 0 184 -54.5 t70 -145.5q0 -71 -42 -126t-112 -75q92 -17 141.5 -72t49.5 -141q0 -80 -44 -135t-109.5 -78t-145.5 -23q-119 0 -189.5 50.5t-85.5 144.5z" />
<glyph unicode="&#x2084;" d="M66 -133l385 524h96v-502h131v-116h-131v-207h-133v207h-348v94zM166 -111h248v355z" />
<glyph unicode="&#x2085;" d="M96 -268q15 67 78 67q29 0 46.5 -22.5t29.5 -77.5l14 -72q44 -12 82 -12q75 0 121.5 53t46.5 142q0 86 -47 132t-139 46q-50 0 -123 -15l-37 25l29 379h438v-144h-377l-12 -167q62 12 121 12q133 0 215 -66.5t82 -193.5q0 -125 -86 -198t-218 -73q-114 0 -182.5 51.5 t-81.5 133.5z" />
<glyph unicode="&#x2086;" d="M100 -104q0 90 33.5 176.5t95 158t160 118.5t217.5 54l8 -59q-160 -31 -249 -121t-107 -217q73 64 174 64q115 0 180.5 -66t65.5 -182q0 -130 -78 -202.5t-199 -72.5q-138 0 -219.5 96.5t-81.5 252.5zM252 -70q0 -315 151 -315q62 0 98 47.5t36 142.5q0 177 -142 177 q-73 0 -143 -52z" />
<glyph unicode="&#x2087;" d="M115 233v144h547v-84l-310 -727h-131l-12 12l340 655h-434z" />
<glyph unicode="&#x2088;" d="M100 -252q0 135 168 211q-137 80 -137 217q0 102 73.5 161.5t182.5 59.5q105 0 170.5 -55t65.5 -139q0 -108 -140 -191q89 -46 132.5 -101t43.5 -130q0 -106 -78.5 -170t-205.5 -64q-124 0 -199.5 52.5t-75.5 148.5zM229 -246q0 -64 42.5 -102.5t107.5 -38.5q67 0 106 40 t39 97q0 51 -41.5 90t-154.5 90q-99 -66 -99 -176zM256 215q0 -97 166 -174q80 67 80 158q0 63 -30.5 97t-88.5 34q-55 0 -91 -30t-36 -85z" />
<glyph unicode="&#x2089;" d="M84 129q0 117 81.5 192.5t205.5 75.5q135 0 211.5 -94.5t76.5 -259.5q0 -198 -129 -331t-352 -165l-14 60q153 46 231.5 123.5t100.5 195.5q-61 -43 -150 -43q-115 0 -188.5 66.5t-73.5 179.5zM227 147q0 -92 43.5 -134t116.5 -42q67 0 119 35q2 16 2 51q0 271 -143 271 q-59 0 -98.5 -45t-39.5 -136z" />
<glyph unicode="&#x208d;" horiz-adv-x="516" d="M109 -82q0 332 288 580l43 -41q-110 -148 -154 -273.5t-44 -265.5q0 -138 44 -263t154 -273l-43 -39q-288 242 -288 575z" />
<glyph unicode="&#x208e;" horiz-adv-x="516" d="M76 457l43 41q289 -246 289 -580q0 -335 -289 -575l-43 39q109 149 153.5 274t44.5 262q0 139 -44.5 264.5t-153.5 274.5z" />
<glyph unicode="&#x20ac;" horiz-adv-x="1024" d="M23 481v103h108q-2 25 -2 75q0 42 2 62h-108v102h118q35 245 173 386t343 141q142 0 233.5 -73.5t110.5 -191.5q-9 -36 -37 -55.5t-63 -19.5q-41 0 -69.5 30.5t-49.5 106.5l-30 106q-27 4 -64 4q-141 0 -235 -112t-121 -322h456v-102h-464q-2 -20 -2 -62q0 -50 2 -75h464 v-103h-454q28 -203 120 -311.5t232 -108.5q18 0 62 7l28 100q19 77 51.5 107t75.5 30q35 0 59.5 -17.5t30.5 -51.5q-17 -118 -114 -192.5t-238 -74.5q-197 0 -330 136.5t-170 375.5h-118z" />
<glyph unicode="&#x2122;" horiz-adv-x="1478" d="M25 1198l4 172h536l4 -172h-69l-17 113h-121v-475l84 -11v-57h-301v57l84 11v475h-120l-17 -113h-67zM635 768v57l80 13v469l-70 6v57h184l199 -414l191 414h198v-57l-76 -6v-473l76 -9v-57h-284v57l75 9v380l-200 -446h-37l-197 436v-366l80 -13v-57h-219z" />
<glyph unicode="&#x25fc;" horiz-adv-x="972" d="M0 0v973h973v-973h-973z" />
<glyph horiz-adv-x="610" d="M59 809v72l318 125l31 -21l-7 -278v-277q0 -73 5 -328l141 -28v-74h-475v74l151 28q4 204 4 328v102q0 136 -6 259zM176 1356q0 59 38.5 95t98.5 36q58 0 98 -36t40 -95q0 -56 -40 -93.5t-98 -37.5q-59 0 -98 37t-39 94z" />
<glyph horiz-adv-x="1024" d="M84 659q0 148 24 266.5t64 196.5t96 130.5t117 75t129 22.5q67 0 127.5 -22.5t116 -75t96 -130.5t64.5 -196.5t24 -266.5t-24 -266.5t-64.5 -196.5t-96 -130t-116 -74.5t-127.5 -22.5q-68 0 -129 22.5t-117 74.5t-96 130t-64 196.5t-24 266.5zM272 659q0 -278 52 -423 l340 931q-57 90 -150 90q-242 0 -242 -598zM367 145q56 -84 147 -84q238 0 238 598q0 265 -47 414z" />
<glyph horiz-adv-x="1028" d="M80 659q0 183 36.5 321t99.5 216.5t138 116t162 37.5q68 0 129 -22.5t117 -75t96 -130.5t64 -196.5t24 -266.5t-24 -267t-64 -197t-96 -129.5t-117 -74t-129 -22.5q-69 0 -130.5 22.5t-118 74t-97.5 129.5t-65.5 197t-24.5 267zM276 659q0 -598 238 -598q236 0 236 598 t-236 598q-238 0 -238 -598z" />
<glyph horiz-adv-x="872" d="M129 0v74l246 45q4 208 4 313v737l-250 -20v84l403 106l29 -20l-8 -293v-594q0 -105 4 -313l246 -45v-74h-674z" />
<glyph horiz-adv-x="1040" d="M104 1032q11 105 71.5 178t148 106.5t194.5 33.5q191 0 285 -94t94 -255q0 -136 -80 -264.5t-295 -328.5l-254 -240h688v-168h-841v133l317 326q281 288 281 524q0 126 -66.5 200t-179.5 74q-51 0 -100 -10l-39 -141q-20 -74 -48 -106.5t-71 -32.5q-69 0 -105 65z" />
<glyph horiz-adv-x="1030" d="M74 260q36 68 104 68q50 0 74.5 -33t46.5 -115l27 -106q59 -13 114 -13q148 0 225.5 79t77.5 220q0 136 -79.5 210.5t-233.5 74.5h-98v103h82q138 0 215.5 72t77.5 202q0 113 -65 174t-185 61q-46 0 -95 -8l-28 -106q-18 -70 -44 -100.5t-77 -30.5q-78 0 -102 75 q27 128 130.5 195.5t250.5 67.5q179 0 286 -89t107 -233q0 -111 -70.5 -198.5t-196.5 -131.5q154 -30 231 -116.5t77 -216.5q0 -169 -127.5 -282.5t-331.5 -113.5q-158 0 -262 71.5t-131 219.5z" />
<glyph horiz-adv-x="1017" d="M59 395v109l609 835h118v-815h215v-129h-215v-395h-170v395h-557zM184 524h432v600z" />
<glyph horiz-adv-x="1038" d="M84 258q27 70 104 70q47 0 73 -30t46 -110l29 -110q58 -17 117 -17q148 0 227.5 89.5t79.5 240.5q0 152 -85 234t-235 82q-84 0 -188 -23l-57 16l43 619h669v-168h-579l-25 -344q92 24 193 24q204 0 326 -109.5t122 -309.5q0 -197 -131.5 -320t-345.5 -123 q-319 0 -383 289z" />
<glyph horiz-adv-x="1042" d="M104 555q0 151 51.5 285.5t149 241t247.5 177t337 91.5l12 -66q-294 -71 -440 -218.5t-168 -387.5q132 135 299 135q169 0 272 -108t103 -291q0 -213 -116.5 -329t-301.5 -116q-208 0 -326.5 155t-118.5 431zM289 584q0 -259 69 -391t195 -132q108 0 169.5 82.5 t61.5 239.5q0 155 -63 230t-174 75q-153 0 -258 -94v-10z" />
<glyph horiz-adv-x="980" d="M57 1151v168h846v-105l-487 -1214h-170l-21 20l539 1131h-707z" />
<glyph horiz-adv-x="1042" d="M100 301q0 108 72 191.5t217 156.5q-244 136 -244 359q0 157 109 249.5t274 92.5q160 0 256.5 -88t96.5 -228q0 -181 -242 -323q157 -79 230 -170t73 -222q0 -154 -119.5 -252t-298.5 -98q-192 0 -308 86t-116 246zM270 313q0 -110 72.5 -182t185.5 -72q107 0 174.5 70.5 t67.5 175.5q0 90 -66.5 157t-238.5 148q-102 -65 -148.5 -131.5t-46.5 -165.5zM307 1053q0 -87 55.5 -160t198.5 -145q92 70 129 133.5t37 148.5q0 96 -55 161.5t-148 65.5q-91 0 -154 -56.5t-63 -147.5z" />
<glyph horiz-adv-x="1064" d="M94 926q0 191 121 307.5t315 116.5q200 0 313 -143.5t113 -389.5q0 -120 -26 -228t-83.5 -207.5t-143 -180t-211 -143.5t-281.5 -99l-21 78q274 89 408 230.5t164 359.5q-106 -103 -270 -103q-169 0 -283.5 109.5t-114.5 292.5zM276 944q0 -149 75 -223t196 -74 q127 0 225 82v53q0 241 -66.5 358t-185.5 117q-104 0 -174 -82t-70 -231z" />
<glyph horiz-adv-x="1024" d="M68 537q0 142 37 253t100 179t141.5 102.5t167.5 34.5t167 -34.5t140.5 -102.5t98.5 -179t36 -253t-36 -253.5t-98.5 -178.5t-140.5 -101.5t-167 -34.5t-167.5 34.5t-141.5 101.5t-100 178.5t-37 253.5zM258 537q0 -107 14 -190.5t37 -136.5t56.5 -87t69.5 -48t79 -14 q51 0 94.5 23.5t80.5 76t58 148.5t21 228t-21 228t-58 148t-80 75.5t-95 23.5q-54 0 -97.5 -23t-80.5 -75t-57.5 -148t-20.5 -229z" />
<glyph horiz-adv-x="1024" d="M150 0v74l288 49q4 204 4 309v492l-290 -25v86l442 111l29 -21l-7 -293v-350q0 -54 5 -309l288 -49v-74h-759z" />
<glyph horiz-adv-x="1024" d="M88 788q11 104 74.5 178t152.5 107t193 33q177 0 267.5 -84.5t90.5 -222.5q0 -47 -12.5 -87.5t-35 -76.5t-70 -83t-99 -90t-141.5 -114l-229 -180h655v-168h-840v133l324 275q145 124 204.5 208t59.5 177q0 106 -59 162.5t-156 56.5q-49 0 -119 -13l-37 -137 q-21 -75 -48 -108t-70 -33q-67 0 -105 67z" />
<glyph horiz-adv-x="1024" d="M88 14q36 68 105 68q50 0 74 -33t46 -115l27 -106q54 -12 115 -12q148 0 225.5 79t77.5 220q0 136 -79.5 210t-234.5 74h-98v103h82q138 0 215.5 72t77.5 202q0 113 -65 174.5t-185 61.5q-45 0 -94 -8l-29 -107q-18 -70 -44 -100.5t-77 -30.5q-78 0 -102 76 q27 128 130.5 195t250.5 67q179 0 286 -89t107 -233q0 -111 -70 -198t-196 -131q153 -30 230 -116.5t77 -217.5q0 -169 -127.5 -282t-331.5 -113q-158 0 -262 71t-131 219z" />
<glyph horiz-adv-x="1024" d="M49 131v109l608 835h119v-815h215v-129h-215v-395h-170v395h-557zM174 260h432v600z" />
<glyph horiz-adv-x="1024" d="M78 12q27 70 104 70q47 0 73 -29.5t46 -109.5l29 -111q55 -16 116 -16q148 0 228 89t80 240q0 152 -85 234t-235 82q-84 0 -188 -23l-58 17l43 618h670v-168h-579l-25 -344q95 25 192 25q204 0 326.5 -110t122.5 -310q0 -197 -131.5 -319.5t-345.5 -122.5 q-319 0 -383 288z" />
<glyph horiz-adv-x="1024" d="M82 555q0 151 51.5 285.5t148.5 241t247 177t337 91.5l13 -66q-294 -71 -440.5 -218.5t-168.5 -387.5q132 135 299 135q169 0 272 -108t103 -291q0 -213 -116.5 -329t-301.5 -116q-208 0 -326 155t-118 431zM266 584q0 -259 69 -391t195 -132q108 0 170 82.5t62 239.5 q0 155 -63.5 230t-174.5 75q-153 0 -258 -94v-10z" />
<glyph horiz-adv-x="1024" d="M94 905v168h846v-104l-487 -1215h-170l-21 21l539 1130h-707z" />
<glyph horiz-adv-x="1024" d="M92 301q0 108 72 191.5t217 156.5q-244 136 -244 359q0 157 109 249.5t274 92.5q159 0 255.5 -88t96.5 -228q0 -182 -241 -323q157 -79 230 -170t73 -222q0 -154 -119.5 -252t-298.5 -98q-192 0 -308 86t-116 246zM262 313q0 -110 72.5 -182t185.5 -72q107 0 174.5 70.5 t67.5 175.5q0 90 -66.5 157t-238.5 148q-102 -65 -148.5 -131.5t-46.5 -165.5zM299 1053q0 -87 55.5 -160t198.5 -145q92 70 129 133.5t37 148.5q0 96 -55 161.5t-148 65.5q-91 0 -154 -56.5t-63 -147.5z" />
<glyph horiz-adv-x="1024" d="M72 680q0 191 121 307.5t315 116.5q200 0 313 -143.5t113 -389.5q0 -120 -26 -228t-83.5 -207.5t-143.5 -180t-211.5 -143.5t-281.5 -99l-20 78q274 89 407.5 230.5t163.5 359.5q-105 -102 -270 -102q-169 0 -283 109t-114 292zM254 698q0 -149 74.5 -223t195.5 -74 q128 0 226 82v54q0 241 -66.5 358t-185.5 117q-104 0 -174 -82.5t-70 -231.5z" />
<glyph horiz-adv-x="583" d="M61 555v109l420 360l49 -55l-307 -359l307 -360l-49 -55z" />
<glyph horiz-adv-x="583" d="M53 250l307 360l-307 359l49 55l420 -360v-109l-420 -360z" />
<glyph horiz-adv-x="997" d="M61 555v109l420 360l49 -55l-307 -359l307 -360l-49 -55zM475 555v109l420 360l49 -55l-307 -359l307 -360l-49 -55z" />
<glyph horiz-adv-x="997" d="M53 250l307 360l-307 359l49 55l420 -360v-109l-420 -360zM467 250l307 360l-307 359l49 55l420 -360v-109l-420 -360z" />
<glyph horiz-adv-x="638" d="M82 559v135h475v-135h-475z" />
<glyph horiz-adv-x="1048" d="M82 559v135h885v-135h-885z" />
<glyph horiz-adv-x="1662" d="M82 559v135h1499v-135h-1499z" />
<glyph horiz-adv-x="694" d="M164 641q0 565 426 963l53 -48q-178 -256 -246.5 -460t-68.5 -455t68.5 -455t246.5 -460l-53 -48q-426 398 -426 963z" />
<glyph horiz-adv-x="694" d="M51 -274q178 256 247 460t69 455t-69 455t-247 460l53 48q426 -398 426 -963t-426 -963z" />
<glyph horiz-adv-x="655" d="M205 -254q6 211 6 649v492q0 434 -6 649h391v-84l-231 -27q-5 -220 -5 -538v-492q0 -315 5 -538l231 -27v-84h-391z" />
<glyph horiz-adv-x="655" d="M59 -170l232 27q4 176 4 538v492q0 360 -4 538l-232 27v84h392q-7 -246 -7 -649v-492q0 -398 7 -649h-392v84z" />
<glyph horiz-adv-x="704" d="M82 600v82q127 17 185.5 63.5t58.5 124.5q0 45 -21.5 114.5t-43 150.5t-21.5 153q0 120 81.5 184t229.5 64h92v-82l-55 -6q-106 -12 -142 -45.5t-36 -122.5q0 -87 12 -221t12 -166q0 -211 -190 -252q190 -41 190 -252q0 -32 -12 -166t-12 -221q0 -89 36 -122.5t142 -45.5 l55 -6v-82h-92q-148 0 -229.5 64t-81.5 184q0 72 21.5 153t43 150.5t21.5 114.5q0 78 -58.5 124.5t-185.5 63.5z" />
<glyph horiz-adv-x="704" d="M61 -172l56 6q106 12 142 45.5t36 122.5q0 87 -12.5 221t-12.5 166q0 210 191 252q-191 42 -191 252q0 32 12.5 166t12.5 221q0 89 -36 122.5t-142 45.5l-56 6v82h93q148 0 229.5 -64t81.5 -184q0 -72 -21.5 -153t-43 -150.5t-21.5 -114.5q0 -78 58.5 -124.5t185.5 -63.5 v-82q-127 -17 -185.5 -63.5t-58.5 -124.5q0 -45 21.5 -114.5t43 -150.5t21.5 -153q0 -120 -81.5 -184t-229.5 -64h-93v82z" />
<glyph horiz-adv-x="1710" d="M72 571q0 186 69.5 353.5t188.5 289t287 192.5t356 71q204 0 356 -85t230.5 -234.5t78.5 -344.5q0 -115 -29 -212t-76 -162.5t-108 -111.5t-124.5 -66.5t-126.5 -20.5q-92 0 -146 42.5t-63 110.5q-139 -153 -271 -153q-94 0 -157.5 69t-63.5 211q0 114 47 224t123 200 q142 172 309 172q78 0 140 -51l96 49l39 -33l-117 -583q-15 -78 14 -120t97 -42q55 0 106 28.5t94 85.5t69 155.5t26 225.5q0 130 -42.5 236.5t-117 177t-176 108.5t-219.5 38q-165 0 -309.5 -67t-242.5 -178t-154 -257t-56 -303q0 -131 35 -241t96 -187.5t144 -132t180 -80 t204 -25.5q184 0 318 64l26 -62q-172 -88 -387 -88q-156 0 -290 47t-235.5 137t-159.5 232t-58 321zM616 557q0 -197 142 -197q46 0 94.5 23.5t116.5 83.5l92 485q-57 68 -125 68q-52 0 -107.5 -30.5t-99.5 -92.5q-113 -156 -113 -340z" />
<glyph horiz-adv-x="475" d="M137 956q0 42 30 73.5t71 31.5t70.5 -31.5t29.5 -73.5q0 -43 -29.5 -73.5t-70.5 -30.5t-71 30.5t-30 73.5z" />
<glyph horiz-adv-x="450" d="M72 676q130 42 176 147l-47 33q-58 41 -58 105q0 42 25.5 71t67.5 29q43 0 83 -37q17 -66 17 -106q0 -110 -75 -191.5t-173 -108.5z" />
<glyph horiz-adv-x="475" d="M137 956q0 42 30 73.5t71 31.5t70.5 -31.5t29.5 -73.5q0 -43 -29.5 -73.5t-70.5 -30.5t-71 30.5t-30 73.5zM137 1430q0 43 30 73.5t71 30.5t70.5 -30.5t29.5 -73.5t-29.5 -75t-70.5 -32t-71 32t-30 75z" />
<glyph horiz-adv-x="501" d="M94 1139v102h314v-102h-314z" />
<glyph horiz-adv-x="763" d="M94 1139v102h576v-102h-576z" />
<glyph horiz-adv-x="1157" d="M94 1139v102h969v-102h-969z" />
<glyph horiz-adv-x="475" d="M137 -348q0 42 30 73t71 31t70.5 -31t29.5 -73q0 -43 -29.5 -74t-70.5 -31t-71 31t-30 74z" />
<glyph horiz-adv-x="450" d="M72 -629q58 19 105.5 56.5t70.5 91.5l-47 32q-58 41 -58 105q0 42 25.5 71t67.5 29q43 0 83 -37q17 -66 17 -106q0 -74 -38 -138.5t-93 -104t-117 -56.5z" />
<glyph d="M92 406q0 108 24 191t65.5 131.5t92 72.5t107.5 24q56 0 106 -24t90.5 -72.5t64.5 -131.5t24 -191q0 -107 -24 -190t-64.5 -131.5t-90.5 -72.5t-106 -24q-57 0 -107.5 24t-92 72.5t-65.5 131.5t-24 190zM242 406q0 -105 11 -177.5t32 -108.5t43.5 -50.5t52.5 -14.5 t52 14.5t42 50.5t30.5 108t10.5 178t-10.5 178t-30.5 108t-42 50t-52 14t-52.5 -14t-43.5 -49.5t-32 -108t-11 -178.5z" />
<glyph d="M135 0v59l184 33v604l-157 -12v76l284 65l19 -12v-721l180 -33v-59h-510z" />
<glyph d="M98 625q7 99 88 152.5t197 53.5q125 0 186.5 -61.5t61.5 -151.5q0 -58 -30 -115.5t-81.5 -113t-152.5 -149.5l-105 -97h400v-143h-551v102l190 183q93 90 136.5 165t43.5 152t-40 118.5t-113 41.5q-18 0 -54 -4l-20 -80q-13 -58 -32 -80.5t-48 -22.5q-50 0 -76 50z" />
<glyph d="M92 176q18 53 72 53q30 0 50 -21.5t30 -76.5l16 -74q31 -8 68 -8q90 0 139 46t49 128q0 162 -190 162h-62v82h51q168 0 168 147q0 71 -39.5 109.5t-109.5 38.5q-13 0 -49 -4l-15 -74q-7 -44 -28.5 -65t-51.5 -21q-48 0 -69 43q11 94 81.5 142t172.5 48q114 0 184 -54.5 t70 -145.5q0 -71 -42 -126t-112 -75q92 -17 141.5 -72t49.5 -141q0 -80 -44 -134.5t-109.5 -77.5t-145.5 -23q-119 0 -189.5 50t-85.5 144z" />
<glyph d="M66 207v94l385 524h96v-501h131v-117h-131v-207h-133v207h-348zM166 324h248v354z" />
<glyph d="M96 166q15 67 78 67q29 0 46.5 -22.5t29.5 -77.5l14 -72q44 -12 82 -12q75 0 121.5 53t46.5 142q0 86 -47 132t-139 46q-55 0 -123 -14l-37 24l29 379h438v-143h-377l-12 -168q62 12 121 12q133 0 215 -66.5t82 -193.5q0 -125 -86 -197.5t-218 -72.5q-114 0 -182.5 51 t-81.5 133z" />
<glyph d="M100 330q0 71 20.5 141t63 134t101.5 113.5t142 81.5t179 38l8 -60q-160 -31 -249 -121t-107 -217q73 64 174 64q115 0 180.5 -66t65.5 -182q0 -130 -78 -202t-199 -72q-138 0 -219.5 96t-81.5 252zM252 365q0 -316 151 -316q62 0 98 48t36 143q0 176 -142 176 q-75 0 -143 -51z" />
<glyph d="M115 668v143h547v-84l-310 -727h-131l-12 12l340 656h-434z" />
<glyph d="M100 182q0 135 168 211q-137 80 -137 217q0 102 73.5 161.5t182.5 59.5q105 0 170.5 -55t65.5 -139q0 -108 -140 -191q89 -46 132.5 -101t43.5 -130q0 -106 -78.5 -169.5t-205.5 -63.5q-124 0 -199.5 52t-75.5 148zM229 188q0 -64 42.5 -102.5t107.5 -38.5q67 0 106 40 t39 97q0 51 -41.5 90.5t-154.5 90.5q-99 -66 -99 -177zM256 649q0 -97 166 -174q80 67 80 158q0 63 -30.5 97t-88.5 34q-55 0 -91 -30t-36 -85z" />
<glyph d="M84 563q0 117 81.5 192.5t205.5 75.5q135 0 211.5 -94.5t76.5 -259.5q0 -198 -129 -330.5t-352 -164.5l-14 59q153 46 231.5 123.5t100.5 195.5q-61 -43 -150 -43q-115 0 -188.5 66.5t-73.5 179.5zM227 582q0 -92 43.5 -134t116.5 -42q69 0 119 34q2 16 2 52 q0 270 -143 270q-59 0 -98.5 -44.5t-39.5 -135.5z" />
<glyph horiz-adv-x="516" d="M109 352q0 332 288 580l43 -41q-110 -148 -154 -273.5t-44 -265.5q0 -138 44 -263t154 -273l-43 -39q-288 242 -288 575z" />
<glyph horiz-adv-x="516" d="M76 -184q109 149 153.5 274t44.5 262q0 139 -44.5 264.5t-153.5 274.5l43 41q289 -246 289 -580q0 -335 -289 -575z" />
<glyph horiz-adv-x="475" d="M137 86q0 42 30 73t71 31t70.5 -31t29.5 -73q0 -43 -29.5 -73.5t-70.5 -30.5t-71 30.5t-30 73.5z" />
<glyph horiz-adv-x="450" d="M72 -195q58 19 105.5 56.5t70.5 91.5l-47 33q-58 41 -58 104q0 42 25.5 71t67.5 29q45 0 83 -36q17 -66 17 -107q0 -74 -38 -138.5t-93 -104t-117 -56.5z" />
<glyph d="M92 924q0 108 24 191t65.5 131.5t92 72.5t107.5 24q56 0 106 -24t90.5 -72.5t64.5 -131.5t24 -191q0 -107 -24 -190t-64.5 -131.5t-90.5 -72.5t-106 -24q-57 0 -107.5 24t-92 72.5t-65.5 131.5t-24 190zM242 924q0 -105 11 -177.5t32 -108.5t43.5 -50.5t52.5 -14.5 t52 14.5t42 50.5t30.5 108t10.5 178t-10.5 178t-30.5 108t-42 50t-52 14t-52.5 -14t-43.5 -49.5t-32 -108t-11 -178.5z" />
<glyph d="M135 518v60l184 32v604l-157 -12v76l284 65l19 -12v-721l180 -32v-60h-510z" />
<glyph d="M98 1143q7 99 88 153t197 54q125 0 186.5 -61.5t61.5 -151.5q0 -84 -57.5 -162.5t-206.5 -216.5l-105 -96h400v-144h-551v103l190 182q93 90 136.5 165t43.5 152t-40 118.5t-113 41.5q-18 0 -54 -4l-20 -80q-13 -57 -32 -79.5t-48 -22.5q-51 0 -76 49z" />
<glyph d="M92 694q18 54 72 54q30 0 50 -22t30 -77l16 -74q31 -8 68 -8q90 0 139 46t49 128q0 162 -190 162h-62v82h51q168 0 168 148q0 71 -39.5 109t-109.5 38q-13 0 -49 -4l-15 -74q-7 -44 -28.5 -65t-51.5 -21q-48 0 -69 43q11 94 81.5 142.5t172.5 48.5q114 0 184 -55t70 -146 q0 -71 -42 -126t-112 -75q92 -17 141.5 -72t49.5 -141q0 -80 -44 -134.5t-109.5 -77.5t-145.5 -23q-119 0 -189.5 50t-85.5 144z" />
<glyph d="M66 725v94l385 524h96v-501h131v-117h-131v-207h-133v207h-348zM166 842h248v354z" />
<glyph d="M96 684q15 68 78 68q29 0 46.5 -22.5t29.5 -78.5l14 -71q47 -13 82 -13q75 0 121.5 53t46.5 142q0 86 -47 132t-139 46q-55 0 -123 -14l-37 24l29 379h438v-143h-377l-12 -168q62 12 121 12q133 0 215 -66.5t82 -193.5q0 -125 -86 -197.5t-218 -72.5q-114 0 -182.5 51 t-81.5 133z" />
<glyph d="M100 848q0 71 20.5 141t63 134t101.5 113.5t142 81.5t179 38l8 -60q-160 -31 -249 -121t-107 -217q73 64 174 64q115 0 180.5 -66t65.5 -182q0 -130 -78 -202t-199 -72q-138 0 -219.5 96t-81.5 252zM252 883q0 -316 151 -316q62 0 98 48t36 143q0 176 -142 176 q-75 0 -143 -51z" />
<glyph d="M115 1186v143h547v-84l-310 -727h-131l-12 12l340 656h-434z" />
<glyph d="M100 700q0 135 168 211q-137 80 -137 217q0 102 73.5 162t182.5 60q105 0 170.5 -55.5t65.5 -139.5q0 -107 -140 -190q89 -45 132.5 -101t43.5 -131q0 -106 -78.5 -169.5t-205.5 -63.5q-124 0 -199.5 52t-75.5 148zM229 707q0 -65 42.5 -103.5t107.5 -38.5q67 0 106 40 t39 97q0 51 -41.5 90.5t-154.5 90.5q-99 -66 -99 -176zM256 1167q0 -97 166 -174q80 67 80 158q0 63 -30.5 97t-88.5 34q-55 0 -91 -30t-36 -85z" />
<glyph d="M84 1081q0 117 82 193t205 76q135 0 211.5 -95t76.5 -260q0 -198 -129 -330.5t-352 -164.5l-14 59q153 46 231.5 124t100.5 196q-61 -43 -150 -43q-115 0 -188.5 66t-73.5 179zM227 1100q0 -92 43.5 -134t116.5 -42q69 0 119 34q2 16 2 52q0 270 -143 270 q-59 0 -98.5 -44.5t-39.5 -135.5z" />
<glyph horiz-adv-x="516" d="M109 870q0 332 288 580l43 -41q-110 -148 -154 -273.5t-44 -265.5q0 -138 44 -263t154 -273l-43 -39q-288 242 -288 575z" />
<glyph horiz-adv-x="516" d="M76 334q109 149 153.5 274t44.5 262q0 139 -44.5 264.5t-153.5 274.5l43 41q289 -246 289 -580q0 -335 -289 -575z" />
<glyph horiz-adv-x="475" d="M137 604q0 42 30 73.5t71 31.5t70.5 -31.5t29.5 -73.5q0 -43 -29.5 -73.5t-70.5 -30.5t-71 30.5t-30 73.5z" />
<glyph horiz-adv-x="450" d="M72 324q130 42 176 147l-47 33q-58 41 -58 104q0 42 25.5 71.5t67.5 29.5q43 0 83 -37q17 -66 17 -107q0 -74 -38 -138.5t-93 -104t-117 -56.5z" />
<glyph horiz-adv-x="786" d="M61 1186q0 169 82 258.5t201 89.5q120 0 199 -102l110 102l25 -12v-883l104 -21v-61h-362v61l119 21v330q-101 -119 -220 -119q-110 0 -184 86.5t-74 249.5zM205 1192q0 -133 44 -190.5t116 -57.5q83 0 174 82v336q-89 80 -172 80q-72 0 -117 -60t-45 -190z" />
<glyph horiz-adv-x="286" d="M-365 0l953 1370l63 -51l-952 -1370z" />
<glyph horiz-adv-x="272" />
</font>
</defs>
</svg>
