<?xml version="1.0" standalone="no"?>
<!DOCTYPE svg PUBLIC "-//W3C//DTD SVG 1.1//EN" "http://www.w3.org/Graphics/SVG/1.1/DTD/svg11.dtd" >
<svg xmlns="http://www.w3.org/2000/svg" xmlns:xlink="http://www.w3.org/1999/xlink" version="1.1">
<metadata></metadata>
<defs>
<font id="gandhi_serifregular" horiz-adv-x="1159" >
<font-face units-per-em="2048" ascent="1567" descent="-481" />
<missing-glyph horiz-adv-x="527" />
<glyph horiz-adv-x="0" />
<glyph horiz-adv-x="682" />
<glyph unicode=" "  horiz-adv-x="527" />
<glyph unicode="&#x09;" horiz-adv-x="527" />
<glyph unicode="&#xa0;" horiz-adv-x="527" />
<glyph unicode="!" horiz-adv-x="678" d="M369 413h-59q-14 124 -33 308t-36 370.5t-17 228.5q0 63 30.5 93t85.5 30q115 0 115 -123q0 -61 -31 -375t-55 -532zM469 98.5q0 -52.5 -38.5 -90.5t-91 -38t-90.5 38t-38 90.5t38 91t90.5 38.5t91 -38.5t38.5 -91z" />
<glyph unicode="&#x22;" horiz-adv-x="801" d="M272 890h-59l-66 473h191zM588 890h-59l-64 473h189z" />
<glyph unicode="#" d="M95 787v107h274l57 342h110l-57 -342h291l57 342h109l-56 -342h227v-107h-244l-48 -285h265v-108h-283l-56 -341h-111l58 341h-291l-57 -341h-110l57 341h-219v108h236l48 285h-257zM462 787l-49 -285h292l48 285h-291z" />
<glyph unicode="$" d="M546 -240v210h-10q-169 0 -377 87l-20 344h74q16 -68 32 -116t43 -97t60 -78.5t83.5 -49t114.5 -20.5v568q-96 45 -164 87t-119 91.5t-75.5 105.5t-24.5 123q0 110 51 193.5t139 129t202 52.5v224h82v-224q143 -7 327 -63l-6 -306h-72q-21 124 -82 203.5t-167 95.5v-512 l40 -19q190 -90 275.5 -186.5t85.5 -226.5q0 -156 -112 -266t-298 -134v-216h-82zM863 294q0 89 -56 150t-179 124v-524q104 19 169.5 84.5t65.5 165.5zM336 1103q0 -86 49.5 -140.5t169.5 -114.5v477q-96 -7 -157.5 -66.5t-61.5 -155.5z" />
<glyph unicode="%" horiz-adv-x="1649" d="M376 -30l-85 60l983 1363l85 -60zM1566 312q0 -158 -91.5 -250t-246.5 -92q-73 0 -134 27.5t-101 74t-62 105.5t-22 123q0 152 91 246t244 94q73 0 134.5 -27.5t102 -73.5t63 -104.5t22.5 -122.5zM1415 308q0 278 -181 278q-81 0 -128 -67.5t-47 -216.5q0 -278 181 -278 q83 0 129 70.5t46 213.5zM84 1051q0 158 91.5 250t246.5 92q73 0 134 -28t101 -74t62 -105t22 -123q0 -100 -40.5 -177t-117 -120t-178.5 -43q-73 0 -134.5 27.5t-101.5 73t-62.5 104.5t-22.5 123zM234 1055q0 -278 181 -278q81 0 128 67.5t47 216.5q0 278 -181 278 q-83 0 -129 -70.5t-46 -213.5z" />
<glyph unicode="&#x26;" horiz-adv-x="1526" d="M1464 719l-171 -63l-264 -365q41 -54 66.5 -85.5t56 -64t55.5 -48.5t55.5 -26t64.5 -10h94v-47q-115 -40 -215 -40q-90 0 -158.5 40t-140.5 133q-78 -85 -180 -129t-208 -44q-89 0 -167.5 26t-138 73.5t-94.5 119t-35 157.5q0 140 95 258.5t256 182.5q-61 87 -96 160.5 t-35 147.5q0 126 95.5 212t248.5 86q64 0 121.5 -17t103 -48t72.5 -81.5t27 -113.5q0 -113 -74 -207t-214 -163l299 -407l200 302l-147 61v42h428v-42zM574 63q77 0 151.5 36.5t137.5 105.5l-390 531q-65 -35 -111 -90.5t-68 -120.5t-22 -137q0 -150 85 -237.5t217 -87.5z M471 1160q0 -113 111 -260l64 -85q72 50 115.5 132t43.5 176q0 88 -42 147t-123 59q-72 0 -120.5 -47t-48.5 -122z" />
<glyph unicode="'" horiz-adv-x="485" d="M272 890h-59l-66 473h191z" />
<glyph unicode="(" horiz-adv-x="948" d="M147 668q1 147 36 284t96 248.5t143 203.5t178 156t199 98l24 -48q-151 -85 -258.5 -224t-164 -322t-56.5 -396q0 -322 124 -567t353 -373l-26 -48q-104 34 -199.5 98t-177 156t-142 203t-95 248t-34.5 283z" />
<glyph unicode=")" horiz-adv-x="948" d="M801 668q0 -122 -24.5 -238t-68.5 -214.5t-104.5 -185.5t-133 -154.5t-153.5 -117.5t-168 -78l-22 48q228 129 353.5 374.5t125.5 565.5q0 323 -124 568.5t-353 373.5l25 48q104 -34 199.5 -98t177 -156t142 -203.5t94.5 -248.5t34 -284z" />
<glyph unicode="*" horiz-adv-x="904" d="M473 992l50 -350h-141l51 350l-279 -220l-70 124l329 131l-329 131l70 124l279 -219l-51 350h141l-50 -350l278 219l70 -124l-330 -131l330 -131l-70 -124z" />
<glyph unicode="+" d="M1055 586h-418v-415h-114v415h-418v110h418v413h114v-413h418v-110z" />
<glyph unicode="," horiz-adv-x="527" d="M260 221q39 0 69.5 -17t49 -52.5t18.5 -83.5q0 -110 -62.5 -218t-161.5 -170l-42 54q61 40 111 107.5t58 128.5h-30q-33 0 -63.5 12t-53 41.5t-22.5 71.5q0 28 10 52.5t27.5 40.5t41 24.5t50.5 8.5z" />
<glyph unicode="-" horiz-adv-x="737" d="M664 471h-590v117h590v-117z" />
<glyph unicode="." horiz-adv-x="527" d="M135 98.5q0 52.5 38 91t90.5 38.5t90.5 -38.5t38 -91t-38 -90.5t-90.5 -38t-90.5 38t-38 90.5z" />
<glyph unicode="/" horiz-adv-x="1129" d="M1089 1635l-924 -2130h-123l924 2130h123z" />
<glyph unicode="0" d="M1059 682q0 -115 -18.5 -219.5t-57 -194.5t-93.5 -156t-132.5 -104t-169.5 -38q-97 0 -177.5 37.5t-137.5 102.5t-96 155t-57.5 195t-18.5 222q0 114 20 219.5t61 195t98 155.5t136 103.5t170 37.5q110 0 200.5 -57.5t149.5 -156t91 -226.5t32 -271zM850 682 q0 118 -8 212.5t-21 160.5t-32.5 114.5t-41 77t-49 45.5t-52.5 22.5t-56 5.5q-103 0 -164 -63.5t-88.5 -201.5t-27.5 -373q0 -102 5.5 -186t16.5 -147.5t25.5 -112t34.5 -82t41 -56t48 -34.5t53 -17t58 -5q45 0 81 16.5t70 60t56.5 113.5t36.5 184.5t14 265.5z" />
<glyph unicode="1" d="M734 107l321 -61v-46h-842v46l325 61v1091l-346 -21v49l485 149h57v-1268z" />
<glyph unicode="2" d="M914 165l71 232h49l-19 -397h-947v42q88 75 154.5 134.5t140.5 131.5t127 133t103.5 132t81 136.5t49.5 138t19 144.5q0 91 -26.5 165.5t-82.5 122t-134 47.5q-107 0 -164 -77.5t-60 -215.5q-35 1 -62 5.5t-52.5 15t-39 31.5t-13.5 51q0 43 21 82.5t60 70.5t91 54.5 t116.5 36t133.5 12.5q200 0 314.5 -95.5t114.5 -255.5q0 -185 -154 -393t-500 -484h608z" />
<glyph unicode="3" d="M640 755q98 -17 174 -54.5t121.5 -88.5t68.5 -108.5t23 -119.5q0 -65 -19 -125.5t-58 -113t-94 -91.5t-133 -61.5t-170 -22.5q-97 0 -185 21t-148 54.5t-95.5 76t-35.5 85.5q0 60 43 97.5t111 39.5q2 -96 45.5 -166t113 -104t155.5 -34q137 0 219.5 70t82.5 192 q0 149 -140.5 242t-400.5 104v57q223 37 340 128.5t117 217.5q0 94 -67.5 153.5t-173.5 59.5q-90 0 -168 -38t-136 -103l-51 35q78 107 189 171t248 64q162 0 258 -78t96 -204q0 -65 -25 -122.5t-70.5 -101.5t-104.5 -77t-130 -55z" />
<glyph unicode="4" d="M1085 413h-237v-310l221 -57v-46h-656v46l243 57v310h-588v40l689 922h91v-844h237v-118zM656 1111l-437 -580h437v580z" />
<glyph unicode="5" d="M934 1175h-622l-28 -344h134q99 0 186.5 -13t167.5 -44t137.5 -77.5t91 -117t33.5 -159.5q0 -106 -39 -192.5t-107.5 -142t-160 -85.5t-198.5 -30q-112 0 -203.5 26t-145 74.5t-53.5 110.5q0 54 46 90.5t101 36.5q7 -56 25 -102.5t50 -85t85 -60.5t121 -22 q64 0 120.5 17.5t102.5 52t73 92.5t27 132q0 85 -40 149t-114 102t-172.5 56.5t-222.5 18.5h-130l67 699h593l41 118h50z" />
<glyph unicode="6" d="M439 751l-13 50q45 30 109.5 49t132.5 19q182 0 289.5 -109.5t107.5 -288.5q0 -109 -37 -202t-101.5 -158.5t-154.5 -103t-194 -37.5q-99 0 -182 34t-146 98.5t-98.5 167t-35.5 232.5q0 166 62 317t171.5 268t256 203.5t318.5 132.5l16 -64q-142 -54 -253.5 -131 t-194.5 -180t-127.5 -238t-44.5 -293q0 -134 36.5 -242t104.5 -170.5t155 -62.5q110 0 180.5 101.5t70.5 261.5q0 103 -32.5 186.5t-98.5 135.5t-156 52q-56 0 -141 -28z" />
<glyph unicode="7" d="M956 1171h-726l-51 -165h-52l36 425h48l23 -74h869v-45q-330 -630 -646 -1312h-223z" />
<glyph unicode="8" d="M103 308q0 117 74.5 214t212.5 157q-55 30 -95.5 61t-76.5 72t-54.5 94t-18.5 117q0 109 61.5 194t164.5 130.5t226 45.5q204 0 316 -90t112 -236q0 -106 -77 -195.5t-205 -139.5q56 -28 97.5 -52t85.5 -59.5t71.5 -72.5t45.5 -87.5t18 -108.5q0 -78 -33 -147.5 t-93 -121.5t-150.5 -82.5t-198.5 -30.5q-222 0 -352.5 95t-130.5 243zM884 280q0 38 -11.5 71.5t-28.5 59t-46.5 51.5t-57 44t-69 39.5t-73 35.5t-78.5 35.5t-77 35.5q-152 -131 -152 -332q0 -124 84.5 -201t228.5 -77q52 0 100.5 13.5t89.5 41t65.5 75t24.5 108.5z M316 1099q0 -28 7 -54t16.5 -47t29 -43t35 -37.5t45 -35t49 -31.5t55.5 -30t56 -27.5l60 -28.5q11 -5 17 -8q75 53 122.5 132t47.5 176q0 110 -69.5 181.5t-198.5 71.5q-53 0 -101 -13t-86.5 -39t-61.5 -69t-23 -98z" />
<glyph unicode="9" d="M723 612l13 -51q-44 -30 -109 -49t-134 -19q-182 0 -289 110t-107 289q0 108 37 201.5t101.5 159t154.5 103t194 37.5q98 0 181.5 -34t146.5 -99t98.5 -167t35.5 -232q0 -166 -62 -317t-171 -268.5t-256.5 -204t-318.5 -132.5l-17 65q142 53 254 130.5t195 180.5 t127.5 237.5t44.5 293.5q0 134 -37 242t-104.5 170t-154.5 62q-73 0 -130 -45.5t-88.5 -128.5t-31.5 -188q0 -103 32 -187t98 -135.5t156 -51.5q56 0 141 28z" />
<glyph unicode=":" horiz-adv-x="527" d="M135 98.5q0 52.5 38 91t90.5 38.5t90.5 -38.5t38 -91t-38 -90.5t-90.5 -38t-90.5 38t-38 90.5zM135 752.5q0 52.5 38 91t90.5 38.5t90.5 -38.5t38 -91t-38 -90.5t-90.5 -38t-90.5 38t-38 90.5z" />
<glyph unicode=";" horiz-adv-x="527" d="M135 752.5q0 52.5 38 91t90.5 38.5t90.5 -38.5t38 -91t-38 -90.5t-90.5 -38t-90.5 38t-38 90.5zM260 221q39 0 69.5 -17t49 -52.5t18.5 -83.5q0 -110 -62.5 -218t-161.5 -170l-34 46q61 40 110 111t57 133h-36q-33 0 -63.5 12t-53 41.5t-22.5 71.5q0 28 10 52.5 t27.5 40.5t41 24.5t50.5 8.5z" />
<glyph unicode="&#x3c;" d="M159 590v106l771 411l57 -103l-683 -360l683 -362l-57 -103z" />
<glyph unicode="=" d="M1055 386h-950v109h950v-109zM1055 787h-950v109h950v-109z" />
<glyph unicode="&#x3e;" d="M1002 690v-106l-772 -411l-57 103l683 361l-683 361l57 103z" />
<glyph unicode="?" horiz-adv-x="868" d="M84 1209q1 67 49 121t126.5 83.5t171.5 29.5q157 0 255.5 -84.5t98.5 -213.5q0 -66 -24 -124.5t-62 -102t-84 -82t-92.5 -71.5t-84.5 -64t-62 -65.5t-24 -70.5q0 -41 29 -66.5t76 -25.5q66 0 140 38l17 -58q-32 -20 -85.5 -36t-100.5 -16q-64 0 -117.5 19.5t-88.5 64 t-35 105.5q0 50 19 94.5t50 78t71 67.5t81 62t80.5 62t70.5 67.5t50 78t19 94.5q0 85 -52.5 138.5t-136.5 53.5q-92 0 -142.5 -70.5t-53.5 -188.5h-40q-58 0 -88.5 18.5t-30.5 63.5zM284 98.5q0 52.5 38.5 91t91 38.5t90.5 -38.5t38 -91t-38 -90.5t-90.5 -38t-91 38 t-38.5 90.5z" />
<glyph unicode="@" horiz-adv-x="1999" d="M127 465q0 158 37 300t113 260.5t184 205t257 134.5t324 48q129 0 248.5 -29.5t226 -93t185.5 -155.5t125.5 -225.5t46.5 -293.5q0 -185 -65 -331t-185 -228.5t-276 -82.5q-92 0 -144 40.5t-59 112.5q-50 -66 -130.5 -111.5t-170.5 -45.5q-68 0 -122 21t-88.5 67.5 t-34.5 112.5q0 136 140.5 223t405.5 119v248q0 76 -19 123t-52 66.5t-82 19.5q-90 0 -147 -64.5t-60 -190.5h-40q-46 0 -73 11.5t-36.5 28.5t-9.5 42q0 66 61.5 120t157 83t201.5 29q272 0 272 -280v-534q0 -73 18 -103t65 -30q76 0 143.5 38.5t116.5 107t77.5 169.5 t28.5 221q0 139 -38 255t-105.5 198.5t-159 139.5t-198 84.5t-224.5 27.5q-180 0 -331.5 -62t-256.5 -174t-163.5 -271.5t-58.5 -350.5q0 -197 52 -353t153.5 -266.5t259 -169t362.5 -58.5q175 0 340 53.5t286 143.5l54 -73q-126 -95 -312.5 -155t-369.5 -60q-197 0 -354 48 t-263.5 132.5t-178 203.5t-103 256.5t-31.5 297.5zM787 213q0 -66 34.5 -103.5t96.5 -37.5q40 0 82.5 18t79.5 50.5t65 74.5v238q-164 -26 -261 -89t-97 -151z" />
<glyph unicode="A" horiz-adv-x="1564" d="M1125 97l-157 410h-483l-153 -412l206 -51v-44h-485v44l175 53l525 1346h62l510 -1350l177 -47v-46h-595v46zM728 1145l-213 -561h423z" />
<glyph unicode="B" horiz-adv-x="1309" d="M84 0v46l200 53v1215l-200 53v46h606q69 0 130 -9t121 -32t102.5 -59t69 -94t26.5 -132q0 -123 -89 -215.5t-249 -132.5q64 -4 121 -17t111.5 -39.5t94 -64.5t63.5 -96t24 -130q0 -82 -33.5 -153t-97 -124.5t-162 -84t-220.5 -30.5h-618zM481 772h153q137 0 215.5 77 t78.5 220q0 90 -30.5 151.5t-89.5 92.5t-146 31q-98 0 -181 -15v-557zM996 367q0 160 -96 245.5t-276 85.5h-143v-614q71 -16 159 -16q186 0 271 73t85 226z" />
<glyph unicode="C" horiz-adv-x="1439" d="M1314 390l-28 -320q-108 -45 -214.5 -72.5t-225.5 -27.5q-165 0 -301.5 52t-230.5 145.5t-146 227.5t-52 295q0 181 52.5 324.5t146.5 237t222 142.5t282 49q75 0 174.5 -16t178 -36t126.5 -39l12 -323h-72q-99 344 -433 344q-145 0 -254 -81.5t-168 -231.5t-59 -349 q0 -153 35 -276.5t101 -210.5t167 -134.5t229 -47.5q101 0 179.5 41t129 119t69.5 188h80z" />
<glyph unicode="D" horiz-adv-x="1596" d="M84 0v46l200 53v1215l-200 53v46h642q182 0 325.5 -48.5t237.5 -136.5t143 -211.5t49 -273.5q0 -167 -53 -304t-152 -234.5t-246 -151t-330 -53.5h-616zM1272 726q0 103 -18 191.5t-60.5 167t-107 133.5t-163 87t-223.5 32h-219v-1261h215q130 0 233.5 38t181 115 t119.5 203t42 294z" />
<glyph unicode="E" horiz-adv-x="1276" d="M84 0v46l200 53v1215l-200 53v46h1043v-364h-56l-101 286h-489v-556h298l73 208h46v-494h-46l-73 209h-298v-624h495l135 346h49l-19 -424h-1057z" />
<glyph unicode="F" horiz-adv-x="1210" d="M481 99l221 -53v-46h-618v46l200 53v1215l-200 53v46h1043v-358h-56l-103 280h-487v-556h276l74 208h47v-494h-47l-74 209h-276v-603z" />
<glyph unicode="G" horiz-adv-x="1582" d="M1123 116v413l-207 53v46h592v-46l-190 -53v-436q-101 -52 -226 -87.5t-246 -35.5q-165 0 -301.5 52t-230.5 145.5t-146 227.5t-52 295q0 181 52.5 324.5t146.5 237t222 142.5t282 49q75 0 174.5 -16t178 -36t126.5 -39l12 -323h-72q-99 344 -433 344q-145 0 -254 -81.5 t-168 -231.5t-59 -349q0 -153 35 -276.5t101 -210.5t167 -134.5t229 -47.5q77 0 148 20t119 54z" />
<glyph unicode="H" horiz-adv-x="1731" d="M1250 99v601h-769v-601l207 -53v-46h-604v46l200 53v1215l-200 53v46h604v-46l-207 -53v-535h769v535l-206 53v46h603v-46l-200 -53v-1215l200 -53v-46h-603v46z" />
<glyph unicode="I" horiz-adv-x="765" d="M481 1314v-1215l201 -53v-46h-598v46l200 53v1215l-200 53v46h598v-46z" />
<glyph unicode="J" horiz-adv-x="769" d="M300 291v1023l-201 53v46h597v-46l-201 -53v-928q0 -114 -20 -203.5t-65.5 -164.5t-122.5 -129.5t-186 -89.5l-27 56q70 39 110 72.5t68 83.5t38 115t10 165z" />
<glyph unicode="K" horiz-adv-x="1522" d="M723 803l547 -662q43 -54 86.5 -74.5t103.5 -20.5v-46q-33 -10 -94 -20t-112 -10q-66 0 -111 27t-94 87l-518 639l560 591l-211 55v44h515v-44l-178 -61zM481 1314v-1215l201 -53v-46h-598v46l200 53v1215l-200 53v46h598v-46z" />
<glyph unicode="L" horiz-adv-x="1244" d="M481 1314v-1236h495l135 346h49l-19 -424h-1057v46l200 53v1215l-200 53v46h612v-46z" />
<glyph unicode="M" horiz-adv-x="1882" d="M1599 99l200 -53v-46h-597v46l201 53v1187l-477 -1305h-74l-483 1239v-1125l201 -49v-46h-496v46l200 49v1219l-200 53v46h426l438 -1133l406 1133h455v-46l-200 -53v-1215z" />
<glyph unicode="N" horiz-adv-x="1626" d="M1352 -19h-61l-922 1265v-1151l211 -49v-46h-506v46l200 49v1219l-200 53v46h419l765 -1063v968l-212 49v46h506v-46l-200 -49v-1337z" />
<glyph unicode="O" horiz-adv-x="1606" d="M825 42q142 0 246.5 86t157.5 235t53 342q0 329 -129.5 497.5t-369.5 168.5q-142 0 -246.5 -85t-158.5 -234t-54 -341q0 -330 130.5 -499.5t370.5 -169.5zM795 -30q-116 0 -214 25.5t-172 73.5t-130.5 114t-91.5 149t-53 177.5t-18 201.5q0 124 28 234t85 201.5 t139 157.5t195.5 102.5t248.5 36.5q139 0 252 -36.5t191.5 -102t132 -158.5t78.5 -203.5t25 -237.5q0 -124 -27.5 -234.5t-85 -202t-139.5 -158t-195.5 -103.5t-248.5 -37z" />
<glyph unicode="P" horiz-adv-x="1244" d="M284 99v1215l-200 53v46h566q51 0 98 -4t94 -13t88 -24.5t78.5 -36t67 -49.5t51 -64.5t33 -81t11.5 -98.5q0 -87 -37 -162.5t-102.5 -130.5t-161.5 -87t-210 -32h-65v60q189 14 279 108t90 253q0 143 -83.5 217t-234.5 74q-78 0 -165 -15v-1228l221 -53v-46h-618v46z" />
<glyph unicode="Q" horiz-adv-x="1606" d="M1266 -493q-56 0 -117.5 29.5t-116 76.5t-109 110t-97.5 124.5t-79 124.5q-129 6 -234 46t-178 106.5t-122.5 157.5t-73 198t-23.5 231t28 234t85 201.5t139 157.5t195.5 102.5t248.5 36.5q139 0 252 -36.5t191.5 -102t132 -158.5t78.5 -203.5t25 -237.5 q0 -134 -33 -251.5t-96.5 -211.5t-161.5 -159.5t-224 -92.5q30 -61 82.5 -129.5t112.5 -126.5t125 -96.5t115 -38.5h76v-48q-118 -44 -221 -44zM825 42q142 0 246.5 86t157.5 235t53 342q0 329 -129.5 497.5t-369.5 168.5q-142 0 -246.5 -85t-158.5 -234t-54 -341 q0 -330 130.5 -499.5t370.5 -169.5z" />
<glyph unicode="R" horiz-adv-x="1425" d="M284 99v1215l-200 53v46h570q80 0 147.5 -8t127 -24.5t105 -44.5t78.5 -66t50 -90.5t17 -116.5q0 -56 -15 -105t-48.5 -93.5t-84.5 -79t-125.5 -61t-169.5 -40.5q28 -5 48 -10t53.5 -18t60 -31.5t57.5 -50.5t55 -74l212 -363q30 -53 70.5 -72t112.5 -19v-46 q-99 -30 -196 -30q-69 0 -114.5 26.5t-82.5 87.5l-265 462q-23 41 -48 65.5t-60 37.5t-82 13h-76v-563l207 -53v-46h-604v46zM481 1327v-591h156q150 0 242.5 92.5t92.5 242.5q0 131 -84 202t-238 71q-70 0 -169 -17z" />
<glyph unicode="S" horiz-adv-x="1099" d="M1004 390q0 -59 -16.5 -113.5t-46.5 -101t-75 -84.5t-100 -65t-122.5 -41.5t-141.5 -14.5q-173 0 -377 89l-20 356h74q12 -50 23 -88t27.5 -78.5t35 -70t44 -56.5t56.5 -43.5t71.5 -26.5t88.5 -10q84 0 152.5 31t110 91.5t41.5 139.5q0 58 -24 107t-64.5 85.5t-93 68.5 t-110.5 61.5t-116 59.5t-110.5 66t-93 77.5t-64.5 98.5t-24 125q0 121 58 210.5t156 134.5t222 45q58 0 128.5 -10.5t128.5 -25.5t108 -32l-6 -316h-72q-11 70 -33.5 125.5t-58.5 99t-90.5 67.5t-123.5 24q-68 0 -123 -27t-88 -80.5t-33 -124.5q0 -56 24 -103t64.5 -81.5 t93.5 -65t111 -59t116 -58t111 -66.5t93.5 -80.5t64.5 -105t24 -134.5z" />
<glyph unicode="T" horiz-adv-x="1381" d="M1141 1335h-352v-1236l215 -53v-46h-626v46l214 53v1236h-352l-101 -286h-55v364h1214v-364h-56z" />
<glyph unicode="U" horiz-adv-x="1590" d="M1238 551v767l-213 49v46h513v-46l-201 -49v-799q0 -90 -20.5 -168.5t-56.5 -138t-85.5 -106t-109 -76t-124.5 -45t-133 -15.5q-82 0 -158.5 17.5t-147 56.5t-123.5 94.5t-84 137t-31 179.5v859l-201 53v46h603v-46l-207 -53v-797q0 -110 31.5 -196.5t86.5 -140t126 -81 t153 -27.5q80 0 149 30t121 88t82 150.5t30 210.5z" />
<glyph unicode="V" horiz-adv-x="1564" d="M837 278l395 1038l-215 53v44h495v-44l-179 -59l-521 -1329h-61l-508 1333l-180 53v46h605v-46l-225 -53z" />
<glyph unicode="W" horiz-adv-x="2323" d="M1614 287l369 1027l-209 55v44h498v-44l-179 -59l-501 -1329h-60l-365 1042l-376 -1042h-61l-487 1333l-180 53v46h605v-46l-225 -53l369 -1023l301 884l-48 139l-179 53v46h605v-46l-225 -53z" />
<glyph unicode="X" horiz-adv-x="1543" d="M1258 1310l-399 -559l451 -658l171 -47v-46h-599v46l198 47l-341 515l-361 -505l198 -57v-46h-513v44l175 53l446 593l-420 620l-173 57v46h599v-44l-207 -53l320 -483l328 481l-197 55v44h503v-46z" />
<glyph unicode="Y" horiz-adv-x="1471" d="M648 592l-449 724l-157 51v46h606v-44l-224 -55l367 -616l354 616l-221 55v44h507v-44l-167 -55l-420 -696v-519l215 -53v-46h-626v46l215 53v493z" />
<glyph unicode="Z" horiz-adv-x="1307" d="M1202 424l-19 -424h-1109v42l840 1293h-625l-102 -286h-54v364h1031v-42l-842 -1295h695l137 348h48z" />
<glyph unicode="[" horiz-adv-x="902" d="M394 -272h383v-60h-566v2001h566v-59h-383v-1882z" />
<glyph unicode="\" horiz-adv-x="1129" d="M966 -495l-924 2130h123l924 -2130h-123z" />
<glyph unicode="]" horiz-adv-x="902" d="M509 1610h-382v59h565v-2001h-565v60h382v1882z" />
<glyph unicode="^" d="M527 1393h105l412 -773l-104 -57l-360 683l-361 -683l-103 57z" />
<glyph unicode="_" d="M1171 -226v-110h-1181v110h1181z" />
<glyph unicode="`" horiz-adv-x="843" d="M606 1204l-51 -27q-40 28 -93 71.5t-103.5 91t-85.5 91.5t-35 67q0 29 36.5 45t113.5 23q16 -41 53.5 -107.5t80.5 -133t84 -121.5z" />
<glyph unicode="a" horiz-adv-x="994" d="M950 50v-46q-32 -13 -89.5 -23.5t-103.5 -10.5q-63 0 -100 31t-37 88v38q-50 -66 -130.5 -111.5t-171.5 -45.5q-67 0 -121 21t-88.5 67.5t-34.5 112.5q0 136 140.5 223t405.5 119v248q0 111 -39.5 160t-113.5 49q-91 0 -147.5 -64.5t-59.5 -190.5h-41q-66 0 -92 21.5 t-26 60.5q0 66 61 120t157 83t202 29q272 0 272 -280v-570q0 -72 23 -100.5t80 -28.5h54zM262 213q0 -44 15.5 -75.5t44.5 -48.5t70 -17q61 0 123 39.5t105 103.5v238q-164 -26 -261 -89t-97 -151z" />
<glyph unicode="b" horiz-adv-x="1182" d="M185 -30v1411l-153 20v50l326 81v-661q67 71 152 114.5t182 43.5q111 0 199 -59.5t137.5 -169t49.5 -249.5q0 -114 -28 -210.5t-76 -164t-113 -114.5t-138 -69.5t-151 -22.5q-69 0 -145.5 18t-135.5 44l-59 -62h-47zM597 900q-59 0 -121 -28t-118 -83v-673 q105 -86 228 -86q65 0 123 32t101 88t68 138.5t25 178.5q0 198 -81.5 315.5t-224.5 117.5z" />
<glyph unicode="c" horiz-adv-x="1028" d="M105 426q0 87 18.5 171.5t58.5 163t97.5 138t142.5 95t186 35.5q137 0 230.5 -59.5t93.5 -146.5q0 -51 -43.5 -77.5t-121.5 -26.5q-2 76 -22 131.5t-61 87.5t-100 32q-130 0 -215 -123t-85 -330q0 -206 88.5 -318t243.5 -112q143 0 300 116l30 -49q-86 -80 -195 -132 t-211 -52q-95 0 -175 31.5t-137.5 89t-90 144t-32.5 191.5z" />
<glyph unicode="d" horiz-adv-x="1214" d="M998 1532v-1411l143 -20v-51l-316 -80v157q-67 -70 -151.5 -113.5t-182.5 -43.5q-111 0 -198.5 59t-137.5 167.5t-50 248.5q0 96 19.5 179.5t54.5 146.5t82.5 113t104.5 81t119 47.5t127 16.5q96 0 213 -37v389l-161 20v50zM586 99q58 0 120.5 28t118.5 84v673 q-104 86 -228 86q-64 0 -122 -32.5t-101 -89.5t-68.5 -140t-25.5 -179q0 -197 81.5 -313.5t224.5 -116.5z" />
<glyph unicode="e" horiz-adv-x="1067" d="M536 -30q-194 0 -312.5 130t-118.5 357q0 169 59.5 299t168 201.5t249.5 71.5q176 0 278 -95t102 -270q0 -42 -4 -67h-671q-3 -30 -3 -66q0 -210 90.5 -329.5t243.5 -119.5t310 114l30 -49q-82 -80 -196 -128.5t-226 -48.5zM568 970q-45 0 -87.5 -18.5t-80 -55 t-65.5 -97.5t-41 -139h467q4 48 4 63q0 115 -50 181t-147 66z" />
<glyph unicode="f" horiz-adv-x="735" d="M411 89l188 -47v-42h-515v42l154 47v829h-154v82h154v83q0 81 26.5 153.5t71 125.5t102 92t121.5 58.5t127 19.5q33 0 52 -19.5t19 -59.5q0 -16 -5 -33t-13 -32t-18.5 -27t-22.5 -19q-35 25 -90 43t-93 18q-56 0 -85 -32t-29 -107q0 -78 10 -264h253v-82h-253v-829z" />
<glyph unicode="g" horiz-adv-x="1051" d="M103 694q0 106 50 183t133.5 114.5t188.5 37.5q145 0 248 -73q53 4 74.5 26.5t21.5 66.5q0 34 -11 96h31q140 0 139 -105q0 -41 -29.5 -69t-75.5 -40t-108 -13q83 -89 83 -224q0 -105 -50.5 -182.5t-134 -115.5t-188.5 -38q-68 0 -135 20q-39 -25 -65 -66t-26 -82 q0 -49 37.5 -68t120.5 -19h233q173 0 261.5 -69.5t88.5 -204.5q0 -84 -45.5 -154t-123 -115.5t-178.5 -70t-215 -24.5q-79 0 -147.5 13.5t-122.5 41t-85 73t-31 103.5q0 45 17.5 87.5t46 74t57 54.5t56.5 38q-56 14 -88 51.5t-32 95.5q0 42 18 82.5t47.5 73t62 58t67.5 43.5 q-89 38 -140 115.5t-51 184.5zM495 -431q95 0 181.5 33.5t139.5 90.5t53 122q0 72 -54 112.5t-151 40.5h-402q-15 -15 -28.5 -38.5t-23 -58.5t-9.5 -72q0 -113 75.5 -171.5t218.5 -58.5zM278 707q0 -59 12 -110.5t35.5 -93t63 -66t90.5 -24.5q84 0 139 71.5t55 197.5 q0 137 -58 214.5t-144 77.5q-41 0 -76 -17.5t-61 -51t-41 -84.5t-15 -114z" />
<glyph unicode="h" horiz-adv-x="1226" d="M544 0h-481v42l154 47v1292l-154 20v50l327 81v-661q64 66 159 112t187 46q134 0 212.5 -85.5t78.5 -236.5v-618l154 -47v-42h-481v42l154 47v577q0 118 -57.5 178.5t-156.5 60.5q-65 0 -130 -30t-120 -84v-702l154 -47v-42z" />
<glyph unicode="i" horiz-adv-x="610" d="M559 0h-481v42l154 47v791l-154 18v52l327 79v-940l154 -47v-42zM320 1236q-34 0 -62.5 16t-45 43.5t-16.5 61.5q0 49 36 84.5t88 35.5q49 0 87 -36t38 -84q0 -51 -37.5 -86t-87.5 -35z" />
<glyph unicode="j" horiz-adv-x="573" d="M76 898v52l327 79v-1069q0 -101 -35.5 -188.5t-92 -145t-126.5 -89.5t-141 -32q-78 0 -78 71q0 31 19 63t43 49q91 -68 159 -68q22 0 37 7.5t23 18.5t12.5 32.5t5.5 40.5t1 51v1110zM318 1246q-52 0 -88 35t-36 86q0 32 16 59.5t45 44t63 16.5q32 0 61 -16.5t46.5 -44 t17.5 -59.5q0 -50 -37.5 -85.5t-87.5 -35.5z" />
<glyph unicode="k" horiz-adv-x="1157" d="M801 916l-143 42v42h395v-42l-146 -46l-319 -328l344 -430q28 -36 51 -57t56.5 -35.5t75.5 -15.5v-42q-24 -14 -64.5 -24t-76.5 -10q-58 0 -99 15.5t-74 56.5l-364 469zM544 0h-481v42l154 47v1292l-154 20v50l327 81v-1443l154 -47v-42z" />
<glyph unicode="l" horiz-adv-x="606" d="M544 0h-481v42l154 47v1292l-154 20v50l327 81v-1443l154 -47v-42z" />
<glyph unicode="m" horiz-adv-x="1836" d="M559 0h-481v42l154 47v791l-154 18v52l327 79v-158q63 65 156 111.5t180 46.5q100 0 166 -48.5t97 -128.5q63 71 161.5 124t191.5 53q132 0 206 -83t74 -235v-622l154 -47v-42h-481v42l154 47v582q0 79 -24.5 131.5t-69.5 77.5t-110 25q-61 0 -123.5 -32t-115.5 -88v-696 l154 -47v-42h-481v42l154 47v582q0 118 -53 176t-151 58q-62 0 -124 -30t-115 -84v-702l154 -47v-42z" />
<glyph unicode="n" horiz-adv-x="1242" d="M559 0h-481v42l154 47v791l-154 18v52l327 79v-158q63 66 158 112t188 46q134 0 212.5 -83.5t78.5 -234.5v-622l154 -47v-42h-481v42l154 47v582q0 78 -27 131.5t-74.5 78t-113.5 24.5q-65 0 -130 -30t-119 -84v-702l154 -47v-42z" />
<glyph unicode="o" horiz-adv-x="1184" d="M595 30q139 0 211 112.5t72 359.5q0 124 -19.5 215t-57.5 146t-90 81t-121 26q-139 0 -210.5 -112t-71.5 -358t74 -358t213 -112zM590 -30q-95 0 -174.5 28t-136.5 77t-96.5 115t-58.5 143t-19 160q0 113 31.5 209.5t91.5 170t154.5 115t212.5 41.5q95 0 175 -27.5 t136.5 -76t96 -114.5t58.5 -142t19 -160q0 -90 -19.5 -170.5t-59.5 -148t-97.5 -116.5t-138 -76.5t-175.5 -27.5z" />
<glyph unicode="p" horiz-adv-x="1204" d="M555 -485h-502v42l154 46v1277l-154 18v52l327 79v-158q150 158 333 158q111 0 198.5 -59.5t137.5 -169t50 -249.5q0 -114 -28 -210.5t-76 -164t-113 -114.5t-138 -69.5t-152 -22.5q-86 0 -212 36v-403l175 -46v-42zM618 900q-59 0 -120.5 -28t-117.5 -83v-673 q104 -86 228 -86q64 0 122 32t101 88t68 138.5t25 178.5q0 198 -82 315.5t-224 117.5z" />
<glyph unicode="q" horiz-adv-x="1172" d="M650 -443l175 46v524q-67 -70 -151.5 -113.5t-182.5 -43.5q-111 0 -198.5 59t-137.5 167.5t-50 248.5q0 96 19.5 179.5t54.5 146.5t82.5 113t104.5 81t119 47.5t127 16.5q69 0 145.5 -17.5t134.5 -43.5l60 61h46v-1426l154 -46v-42h-502v42zM586 99q58 0 120.5 28 t118.5 84v671q-110 88 -228 88q-64 0 -122 -32.5t-101 -89.5t-68.5 -140t-25.5 -179q0 -197 81.5 -313.5t224.5 -116.5z" />
<glyph unicode="r" horiz-adv-x="876" d="M592 0h-514v42l154 47v791l-154 18v52l327 79v-226q70 89 163 157.5t160 68.5q41 0 69 -24.5t28 -72.5q0 -47 -38 -115q-106 37 -165 37q-38 0 -74 -15.5t-70.5 -46t-72.5 -77.5v-626l187 -47v-42z" />
<glyph unicode="s" horiz-adv-x="887" d="M799 266q0 -91 -51.5 -159.5t-136 -102.5t-187.5 -34q-89 0 -166.5 20t-130.5 63.5t-53 103.5q0 31 18.5 57t51.5 42.5t73 19.5q3 -122 58 -184t156 -62q59 0 107.5 20t77 57.5t28.5 86.5q0 27 -10 50.5t-26.5 42.5t-48 40.5t-63.5 39.5t-85 44q-41 21 -67.5 35 t-60.5 34.5t-55.5 38.5t-45 42.5t-36.5 49.5t-21.5 56.5t-8.5 66.5q0 89 49 157.5t127.5 103t169.5 34.5q89 0 156 -20.5t106 -61.5t39 -99q0 -54 -42.5 -77.5t-110.5 -23.5q0 101 -42.5 161t-136.5 60q-77 0 -126.5 -43t-49.5 -122q0 -21 7.5 -41t17 -35.5t31 -33.5 t36.5 -29t47.5 -28.5t50.5 -26.5t59 -29q39 -19 64.5 -32.5t59.5 -33.5t56 -37.5t46 -42t37.5 -48.5t22.5 -55t9 -65z" />
<glyph unicode="t" horiz-adv-x="737" d="M415 -30q-223 0 -223 229v719h-129v82h131l86 244h85v-244h291v-82h-291v-686q0 -91 31.5 -129t92.5 -38q33 0 78 15.5t79 37.5l18 -57q-43 -37 -114 -64t-135 -27z" />
<glyph unicode="u" horiz-adv-x="1182" d="M803 880l-153 18v52l326 79v-908l144 -20v-51l-317 -80v159q-30 -31 -68 -59t-81.5 -50.5t-92 -36t-92.5 -13.5q-133 0 -208.5 83.5t-75.5 235.5v591l-153 18v52l326 79v-700q0 -117 56 -175.5t154 -58.5q39 0 82.5 15t81.5 40.5t71 58.5v671z" />
<glyph unicode="v" horiz-adv-x="1170" d="M360 907l274 -677l278 673l-165 55v42h392v-42l-143 -58l-384 -900h-66l-377 907l-137 51v42h487v-42z" />
<glyph unicode="w" horiz-adv-x="1683" d="M854 1000h64l255 -760l262 663l-165 55v42h392v-42l-143 -58l-374 -900h-65l-247 692l-253 -692h-65l-356 907l-138 51v42h466v-48l-137 -45l247 -660z" />
<glyph unicode="x" horiz-adv-x="1168" d="M557 958l-142 -46l205 -302l215 295l-130 53v42h368v-42l-145 -58l-268 -349l314 -462l141 -47v-42h-467v42l127 47l-229 333l-248 -327l133 -53v-42h-378v42l152 57l302 384l-292 429l-128 46v42h470v-42z" />
<glyph unicode="y" horiz-adv-x="1170" d="M519 958l-159 -51l282 -675l267 668l-162 58v42h392v-42l-143 -58l-441 -1054q-67 -164 -156.5 -252.5t-208.5 -88.5q-35 0 -62.5 6t-49 24t-21.5 47q0 31 18 63.5t41 54.5q98 -50 178 -50q23 0 43 8t40 29t37.5 46t41.5 71t44.5 90.5t52.5 117.5l-384 895l-137 51v42 h487v-42z" />
<glyph unicode="z" horiz-adv-x="1014" d="M903 0h-819v46l580 882h-390l-95 -209h-48l10 281h747v-42l-578 -886h467l94 217h49z" />
<glyph unicode="{" horiz-adv-x="978" d="M105 644v50q46 10 80.5 24t58 28.5t39 40.5t24 45.5t12.5 59t4.5 66t0.5 80.5v280q0 52 5 94.5t16.5 75.5t23.5 59t35 44.5t41 32t51 21.5t56 13t64.5 7.5t68.5 3t76 0.5h91v-59h-91q-32 0 -53.5 -1t-46.5 -5t-41.5 -11.5t-34 -19.5t-28 -31t-19.5 -45t-13 -61t-4 -79 v-254q0 -108 -11.5 -178t-42.5 -122.5t-81.5 -83t-132.5 -51.5q66 -16 110.5 -39.5t76 -56t49 -81.5t25 -110t7.5 -147v-253q0 -39 3.5 -71.5t9.5 -57t16.5 -43.5t21.5 -32t28 -22t32.5 -14.5t38.5 -8t42.5 -3.5t47.5 -1h91v-60h-91q-54 0 -84 1t-75 4t-70 9.5t-59 18 t-52.5 29.5t-40 44t-31.5 60.5t-17.5 81t-7.5 103.5v281q0 54 -0.5 80.5t-4.5 66t-12.5 59t-24 45.5t-39 40.5t-58 28.5t-80.5 24z" />
<glyph unicode="|" horiz-adv-x="632" d="M373 -495h-113v2130h113v-2130z" />
<glyph unicode="}" horiz-adv-x="978" d="M873 694v-50q-46 -10 -80 -24t-58 -28.5t-39.5 -40.5t-24 -45.5t-12 -59t-4.5 -66t-1 -80.5v-281q0 -57 -7 -103.5t-17.5 -81t-32 -60.5t-39.5 -44t-52.5 -29.5t-59 -18t-70 -9.5t-75 -4t-84.5 -1h-90v60h90q33 0 54 1t46.5 5t41.5 11t34 19.5t28 31.5t19.5 44.5t13 61 t3.5 79.5v253q0 86 8 147t25.5 110t49 81.5t76.5 56t110 39.5q-81 21 -132 51.5t-82 83t-43 122.5t-12 178v254q0 44 -3.5 79t-13 61t-19.5 45t-28 31t-34 19.5t-41.5 11.5t-46.5 5t-54 1h-90v59h90q49 0 76 -0.5t68.5 -3t65 -7.5t56 -13t51 -21.5t41 -32t34.5 -44.5t24 -59 t16.5 -75.5t4.5 -94.5v-280q0 -42 0.5 -63.5t2.5 -54.5t6 -50.5t11 -42t18.5 -37.5t27.5 -30t38 -27.5t50.5 -20.5t64.5 -18z" />
<glyph unicode="~" d="M952 777l103 -28q-28 -114 -88.5 -178t-151.5 -64q-48 0 -116 20t-125 44.5t-121 45t-105 20.5q-58 0 -88.5 -37t-50.5 -111l-104 28q28 114 89 178t152 64q48 0 116 -20.5t124.5 -45t120.5 -45t105 -20.5q57 0 88.5 37.5t51.5 111.5z" />
<glyph unicode="&#xa2;" d="M555 -240v212q-194 13 -311 133.5t-117 320.5q0 77 15.5 152.5t50 147.5t84 130.5t121 101t157.5 59.5v233h82v-221h31q59 0 113 -10t97 -29t74.5 -44t49 -57t17.5 -66q0 -51 -44.5 -77.5t-122.5 -26.5q-3 115 -57.5 183t-150.5 68h-7v-888h29q161 0 336 121l32 -49 q-83 -71 -190 -122t-207 -60v-212h-82zM310 517q0 -169 64 -278t181 -142v859q-108 -36 -176.5 -152.5t-68.5 -286.5z" />
<glyph unicode="&#xa3;" d="M137 648v73h209q-57 148 -57 243q0 195 115 312t303 117q79 0 155 -21.5t130 -67t54 -104.5q0 -114 -170 -117q-2 113 -53 177.5t-141 64.5q-47 0 -86.5 -18t-68 -51t-44.5 -80.5t-16 -104.5q0 -52 13.5 -108t40.5 -133.5t36 -108.5h343v-73h-326q8 -52 8 -72 q0 -62 -22 -123.5t-62 -115t-76.5 -92.5t-83.5 -80h594l72 232h49l-19 -397h-927v44q48 39 85 71.5t81 78.5t73 87t49 90t20 94q0 67 -39 183h-239z" />
<glyph unicode="&#xa5;" d="M203 622v74h254l-298 570l-123 50v47h515v-45l-182 -54l268 -519l268 519l-166 54v45h398v-45l-131 -54l-310 -568h270v-74h-280v-145h280v-74h-280v-304l200 -53v-46h-597v46l200 53v304h-286v74h286v145h-286z" />
<glyph unicode="&#xad;" horiz-adv-x="737" d="M664 471h-590v117h590v-117z" />
<glyph unicode="&#x192;" d="M272 785v74h219l6 57q8 68 29.5 129.5t53 109t72 87t86 67t94.5 47t97.5 28.5t95.5 9q36 0 55 -20t19 -53q0 -34 -17.5 -68t-41.5 -50q-99 60 -217 60q-18 0 -33 -4.5t-27 -12t-22 -21t-17.5 -27.5t-14.5 -37t-11.5 -43.5t-9 -52.5t-8 -58.5t-7.5 -67.5l-9 -79h317v-74 h-325l-66 -620q-25 -231 -149.5 -358t-305.5 -127q-95 0 -95 58q0 25 10 51.5t23.5 46.5t29.5 33q34 -28 86 -53t95 -25q61 0 85 59.5t40 223.5l74 711h-211z" />
<glyph unicode="&#x2000;" horiz-adv-x="834" />
<glyph unicode="&#x2001;" horiz-adv-x="1669" />
<glyph unicode="&#x2002;" horiz-adv-x="834" />
<glyph unicode="&#x2003;" horiz-adv-x="1669" />
<glyph unicode="&#x2004;" horiz-adv-x="556" />
<glyph unicode="&#x2005;" horiz-adv-x="417" />
<glyph unicode="&#x2006;" horiz-adv-x="278" />
<glyph unicode="&#x2007;" horiz-adv-x="278" />
<glyph unicode="&#x2008;" horiz-adv-x="208" />
<glyph unicode="&#x2009;" horiz-adv-x="333" />
<glyph unicode="&#x200a;" horiz-adv-x="92" />
<glyph unicode="&#x2010;" horiz-adv-x="737" d="M664 471h-590v117h590v-117z" />
<glyph unicode="&#x2011;" horiz-adv-x="737" d="M664 471h-590v117h590v-117z" />
<glyph unicode="&#x2012;" horiz-adv-x="737" d="M664 471h-590v117h590v-117z" />
<glyph unicode="&#x2013;" horiz-adv-x="1264" d="M1192 471h-1118v117h1118v-117z" />
<glyph unicode="&#x2014;" horiz-adv-x="1898" d="M1825 471h-1751v117h1751v-117z" />
<glyph unicode="&#x2018;" horiz-adv-x="535" d="M262 926q-58 0 -94.5 39t-36.5 108q0 104 59.5 207.5t153.5 162.5l40 -55q-59 -39 -105 -102.5t-53 -121.5h25q52 0 92.5 -29.5t40.5 -88.5q0 -35 -17 -63t-45 -42.5t-60 -14.5z" />
<glyph unicode="&#x2019;" horiz-adv-x="535" d="M274 1443q57 0 94 -39.5t37 -108.5q0 -104 -60 -207t-153 -162l-41 55q60 39 106 102t53 121h-26q-51 0 -92 30t-41 89q0 53 36 86.5t87 33.5z" />
<glyph unicode="&#x201c;" horiz-adv-x="900" d="M626 926q-37 0 -66.5 17t-47 50.5t-17.5 79.5q0 104 60 207.5t154 162.5l40 -55q-59 -39 -105 -102.5t-54 -121.5h26q51 0 92 -29.5t41 -88.5q0 -35 -17.5 -63t-45 -42.5t-60.5 -14.5zM262 926q-58 0 -94.5 39t-36.5 108q0 104 59.5 207.5t153.5 162.5l40 -55 q-59 -39 -105 -102.5t-53 -121.5h25q52 0 92.5 -29.5t40.5 -88.5q0 -35 -17 -63t-45 -42.5t-60 -14.5z" />
<glyph unicode="&#x201d;" horiz-adv-x="900" d="M274 1443q57 0 94 -39.5t37 -108.5q0 -104 -60 -207t-153 -162l-41 55q60 39 106 102t53 121h-26q-51 0 -92 30t-41 89q0 53 36 86.5t87 33.5zM640 1443q57 0 93.5 -39.5t36.5 -108.5q0 -104 -59.5 -207t-153.5 -162l-40 55q38 25 72 61.5t57.5 79.5t28.5 82h-25 q-51 0 -92 30t-41 89q0 35 17 63t45 42.5t61 14.5z" />
<glyph unicode="&#x2026;" horiz-adv-x="1582" d="M135 98.5q0 52.5 38 91t90.5 38.5t90.5 -38.5t38 -91t-38 -90.5t-90.5 -38t-90.5 38t-38 90.5zM662 98.5q0 52.5 38.5 91t91 38.5t90.5 -38.5t38 -91t-38 -90.5t-90.5 -38t-91 38t-38.5 90.5zM1190 98.5q0 52.5 38 91t90.5 38.5t90.5 -38.5t38 -91t-38 -90.5t-90.5 -38 t-90.5 38t-38 90.5z" />
<glyph unicode="&#x202f;" horiz-adv-x="333" />
<glyph unicode="&#x205f;" horiz-adv-x="417" />
<glyph unicode="&#x20ac;" d="M84 759v74h150q36 260 174.5 410t330.5 150q75 0 166.5 -24t145.5 -51l8 -308h-72q-16 72 -37.5 127t-52 99t-73.5 67.5t-96 23.5q-63 0 -114.5 -39.5t-86.5 -109t-57 -156.5t-31 -189h409v-74h-415v-145h415v-74h-411q30 -500 299 -500q111 0 174.5 94t74.5 267h74 l-28 -344q-59 -36 -144.5 -61.5t-158.5 -25.5q-203 0 -337 154t-161 416h-146v74h140v50q0 31 4 95h-144z" />
<glyph unicode="&#x25fc;" horiz-adv-x="1001" d="M0 1002h1002v-1002h-1002v1002z" />
</font>
</defs>
</svg>
