<?xml version="1.0" encoding="UTF-8" standalone="no"?>
<svg width="452px" height="402px" viewBox="0 0 452 402" version="1.1" xmlns="http://www.w3.org/2000/svg" xmlns:xlink="http://www.w3.org/1999/xlink" xmlns:sketch="http://www.bohemiancoding.com/sketch/ns">
    <title>GitHub</title>
    <defs>
        <linearGradient x1="100%" y1="50%" x2="0%" y2="70%" id="linearGradient-1">
            <stop stop-color="#FCF184" offset="0%"></stop>
            <stop stop-color="#FBCA89" offset="25%"></stop>
            <stop stop-color="#D6949B" offset="50%"></stop>
            <stop stop-color="#9ABDD2" offset="75%"></stop>
            <stop stop-color="#98EDDA" offset="100%"></stop>
        </linearGradient>
        <filter x="-20%" y="-20%" width="140%" height="140%" filterUnits="objectBoundingBox" id="filter-2">
            <feGaussianBlur stdDeviation="10" in="SourceGraphic" result="blur"></feGaussianBlur>
        </filter>
    </defs>
    <g id="Page-1" stroke="none" stroke-width="1" fill="none" fill-rule="evenodd" sketch:type="MSPage">
        <path d="M431.633,195.645 L432,191.826 C409.104,189.605 386.333,189.407 364.21,191.096 C367.767,179.749 369.64,166.932 369.505,152.357 C369.213,121.392 358.889,97.276 342.662,77.261 C345.778,58.409 343.431,39.559 337.551,20.7 C314.364,22.598 293.498,30.193 274.917,43.386 C240.192,36.342 205.47,35.893 170.745,43.386 C149.072,28.759 127.789,21.584 106.836,20.7 C100.626,41.465 99.667,61.933 104.919,82.057 C86.639,101.454 79.651,125.001 79.994,151.076 C80.19,166.003 82.49,179.285 86.732,191.028 C64.936,189.429 42.531,189.642 20,191.826 L20.367,195.645 C43.314,193.417 66.127,193.234 88.286,194.967 C89.1,196.941 89.919,198.906 90.853,200.782 C66.844,200.149 45.235,202.235 24.999,207.212 L25.913,210.935 C46.451,205.887 68.453,203.854 93.02,204.681 C109.266,233.545 140.54,250.505 186.083,255.886 C175.502,264.48 169.814,274.617 168.348,286.087 L144.227,286.087 C111.833,286.087 103.001,244.783 69.448,248.858 C102,265 95.5,316.599 147.587,316.599 L169.468,316.599 L169.468,363.895 C169.702,371.538 166.375,376.649 160.999,380.192 C179.653,382.076 193.673,372.762 193.673,361.338 L193.673,298.82 C193.673,293.25 199.506,292.82 199.506,292.82 L199.506,365.812 C199.751,373.077 196.222,377.204 192.475,381.151 C208.909,381.805 224.367,378.522 225.067,364.536 L225.067,294.679 C225.067,291.167 230.823,291.08 230.823,294.679 L230.823,361.259 C230.992,373.059 241.184,382.626 262.776,381.152 C257,376.502 255.227,371.802 255.227,365.002 L255.227,292.821 C255.227,292.821 261.177,292.515 261.177,298.821 L261.177,359.702 C261.177,373.252 277.444,378.842 296.006,378.317 C289.925,373.759 285.81,368.326 285.783,361.061 L285.783,287.844 C285.154,277.082 280.78,266.938 272.201,257.486 C313.831,251.094 343.838,234.475 358.779,204.69 C383.426,203.843 405.494,205.873 426.086,210.936 L427,207.213 C406.606,202.199 384.819,200.117 360.584,200.798 C361.423,198.907 362.254,197.009 362.973,195.013 C385.363,193.215 408.431,193.391 431.633,195.645 C431.633,195.645 408.431,193.391 431.633,195.645 L431.633,195.645 L431.633,195.645 Z M84,255.023 C82.977,255.023 82.147,254.435 82.147,253.71 C82.147,252.982 82.977,252.395 84,252.395 C85.024,252.395 85.854,252.983 85.854,253.71 C85.854,254.436 85.024,255.023 84,255.023 L84,255.023 L84,255.023 L84,255.023 Z M89.833,259.003 C88.696,259.003 87.773,258.35 87.773,257.543 C87.773,256.736 88.696,256.081 89.833,256.081 C90.97,256.081 91.892,256.736 91.892,257.543 C91.892,258.35 90.97,259.003 89.833,259.003 L89.833,259.003 L89.833,259.003 L89.833,259.003 Z M95.75,264.172 C94.417,264.172 93.335,263.406 93.335,262.46 C93.335,261.514 94.417,260.746 95.75,260.746 C97.083,260.746 98.166,261.514 98.166,262.46 C98.166,263.406 97.083,264.172 95.75,264.172 L95.75,264.172 L95.75,264.172 L95.75,264.172 Z M101.5,270.379 C99.94,270.379 98.675,269.483 98.675,268.376 C98.675,267.269 99.94,266.371 101.5,266.371 C103.06,266.371 104.325,267.269 104.325,268.376 C104.325,269.483 103.06,270.379 101.5,270.379 L101.5,270.379 L101.5,270.379 L101.5,270.379 Z M107.833,277.394 C106.1,277.394 104.694,276.398 104.694,275.168 C104.694,273.938 106.1,272.94 107.833,272.94 C109.566,272.94 110.972,273.938 110.972,275.168 C110.972,276.398 109.566,277.394 107.833,277.394 L107.833,277.394 L107.833,277.394 L107.833,277.394 Z M115.167,284.517 C113.241,284.517 111.679,283.41 111.679,282.043 C111.679,280.676 113.241,279.567 115.167,279.567 C117.092,279.567 118.654,280.676 118.654,282.043 C118.654,283.41 117.092,284.517 115.167,284.517 L115.167,284.517 L115.167,284.517 L115.167,284.517 Z M125.083,291.291 C122.943,291.291 121.208,290.06 121.208,288.542 C121.208,287.023 122.943,285.791 125.083,285.791 C127.223,285.791 128.958,287.023 128.958,288.542 C128.958,290.06 127.223,291.291 125.083,291.291 L125.083,291.291 L125.083,291.291 L125.083,291.291 Z M137.375,294.916 C135.235,294.916 133.5,293.685 133.5,292.167 C133.5,290.648 135.235,289.416 137.375,289.416 C139.515,289.416 141.25,290.648 141.25,292.167 C141.25,293.685 139.515,294.916 137.375,294.916 L137.375,294.916 L137.375,294.916 L137.375,294.916 Z M150.333,295.333 C148.193,295.333 146.458,294.102 146.458,292.584 C146.458,291.065 148.193,289.833 150.333,289.833 C152.473,289.833 154.208,291.065 154.208,292.584 C154.208,294.102 152.473,295.333 150.333,295.333 L150.333,295.333 L150.333,295.333 L150.333,295.333 Z M163.125,295.583 C160.985,295.583 159.25,294.352 159.25,292.834 C159.25,291.315 160.985,290.083 163.125,290.083 C165.265,290.083 167,291.315 167,292.834 C167,294.352 165.265,295.583 163.125,295.583 L163.125,295.583 L163.125,295.583 L163.125,295.583 Z M163.125,295.583" id="github-2-icon" fill="url(#linearGradient-1)" filter="url(#filter-2)" sketch:type="MSShapeGroup"></path>
    </g>
</svg>