<svg width="640" height="480" ViewBox="0 0 640 480" xmlns="http://www.w3.org/2000/svg">
 <!-- Created with SVG-edit - http://svg-edit.googlecode.com/ -->
 <g>
  <title>Layer 1</title>
  <path d="m69,6c0,1 0.49755,3.9258 1,9c0.98537,9.95133 0.44061,19.00647 0,34c-0.50021,17.02204 -2.49973,35.97503 -3,51c-0.53245,15.99113 2.05798,33.99286 4,50c2.06158,16.99265 3,36 3,54c0,19 -0.38558,38.02878 1,54c1.56532,18.043 3.49976,33.97659 4,50c0.46806,14.99271 -0.45623,31.01233 -1,43c-0.50051,11.03403 -2.48873,22.90515 -4,32c-1.48436,8.93289 -2.60827,19.18726 -1,26c1.54123,6.52875 3.48873,12.02997 3,16c-0.50378,4.09222 -2.84723,7.04132 -4,11c-0.88413,3.03616 -2.48626,5.82376 -3,8c-0.4595,1.9465 0,5 0,7c0,2 0,3 0,4c0,1 0,3 0,4l0,1" id="svg_5" stroke-width="12" stroke="#C4C4C4" fill="none"/>
  <path d="m574,6c0,1 0.43646,3.02388 0,7c-1.00598,9.16449 -2.7915,24.01908 -5,47c-1.82758,19.01736 -3.49976,36.97796 -4,54c-0.58746,19.99136 0,38 0,55c0,18 -0.99805,30.90665 -2,47c-0.93207,14.97101 0,29 0,41c0,15 -0.4989,30.00958 0,43c0.50037,13.02881 1.49921,25.95847 2,35c0.60828,10.98315 0.29602,22.96091 2,37c1.21088,9.97665 2,18 2,26c0,6 1,13 1,19c0,6 0.35925,12.05164 1,16c0.50653,3.12143 0.56952,6.133 2,10c0.77582,2.09717 1,5 1,6c0,1 0,3 0,5c0,2 0,4 0,5l0,1" id="svg_6" stroke-width="12" stroke="#C4C4C4" fill="none"/>
  <path d="m15,52c1,0 2,0 3,0c3,0 6.98875,1.13257 18,2c14.98687,1.18061 35.00566,0.47863 59,1c23.0163,0.50012 39.0295,2.73729 58,5c15.02625,1.79226 30,3 48,3c17,0 36,0 50,0c14,0 29.97797,2.49979 47,3c17.99222,0.52872 39.00146,-0.97231 58,-2c18.00143,-0.97376 36,-2 51,-2c15,0 29.00327,0.0414 42,-1c12.00311,-0.96178 23,-2 28,-2c7,0 13.84464,-1.54691 20,-3c6.8819,-1.6246 13.98453,-2.08074 19,-3c5.98309,-1.09661 10.93799,-1.49829 17,-2c4.98297,-0.4124 10.90778,-0.49623 15,-1c2.97754,-0.36655 7,0 14,0c6,0 14,0 20,0c6,0 10,0 15,0c4,0 9,0 13,0c4,0 6.92578,-0.49755 12,-1c4.97565,-0.49269 11,-1 14,-1l2,0l2,0l-1,0" id="svg_7" stroke-width="12" stroke="#C4C4C4" fill="none"/>
  <path d="m15,410c1,0 4,0 7,0c7,0 16,1 26,1c11,0 23,0 34,0c13,0 29.0073,0.46808 44,0c16.02341,-0.50024 32.99622,-2.05859 48,-3c16.99597,-1.06641 31.0078,-1.50073 47,-2c16.02341,-0.50024 33,-2 46,-2c12,0 25,-1 37,-1c12,0 23.00821,0.63748 31,1c11.03403,0.50052 19,1 28,1c9,0 16.98828,0.09882 25,1c9.98691,1.12335 21.00705,1.93839 30,3c8.00665,0.94519 18.99631,2.04135 30,3c11.99615,1.0451 24,2 32,3c8,1 16,1 24,1c8,0 14.95331,1.49902 23,2c6.98645,0.43497 13,0 18,0c6,0 14,0 21,0c8,0 12,-1 14,-2c2,-1 3.02673,-1.77023 4,-2c2.17627,-0.51373 4,-2 7,-2c1,0 4.03876,-0.51944 7,-1c3.12146,-0.50653 5.92578,-1.49756 11,-2c3.98053,-0.39417 8,-1 10,-1c2,0 3,0 4,0c1,0 2,0 3,0c2,0 3.29291,0.70709 4,0c0.70709,-0.70709 2,-1 5,-1l3,-1l3,-1" id="svg_9" stroke-width="12" stroke="#C4C4C4" fill="none"/>
 </g>
</svg>