<svg class="line" ViewBox="0 0 640 16" width="640" height="16" xmlns="http://www.w3.org/2000/svg">
 <!-- Created with SVG-edit - http://svg-edit.googlecode.com/ -->
 <g>
  <title>Layer 1</title>
  <path d="m1.383331,5c1,0 3,0 4,0c1,0 3,0 4,0c1,0 4,0 7,0c2,0 5,0 8,0c2,0 3,0 5,0c3,0 6,0 10,0c4,0 7,0 10,0c3,0 5,1 7,1c2,0 6.038738,-0.480547 9,0c3.121445,0.506541 7,1 11,1c5,0 9,0 12,0c3,0 8,2 13,2c9,0 11,0 14,0c4,0 7,0 11,0c4,0 6,0 7,0c2,0 6,0 9,0c5,0 10,1 22,1c7,0 24,0 29,0c4,0 8,0 12,0c4,0 9,-1 16,-1c4,0 7,0 10,0c4,0 8.712006,-0.981625 14,-2c10.801514,-2.080183 14,0 19,0c3,0 8,2 11,2c6,0 17,0 22,0c5,0 9,-2 11,-2c4,0 6,0 18,0c5,0 9,0 15,0c4,0 9,-1 17,-1c7,0 10.585785,1.414214 12,0c0.707092,-0.707107 4,-1 9,-1c4,0 14,0 19,0c4,0 11,0 18,0c5,0 9.953308,0.499032 18,1c2.994202,0.186412 6,0 10,0c2,0 6.011078,-0.297505 10,0c20.167725,1.504166 23.925781,3.497555 29,4c3.98053,0.394151 7,0 11,0c4,0 9,0 10,0c2,0 4,0 7,0c2.999969,0 8.962555,0.499378 18.999969,1c3.995056,0.199255 7.106995,0.919012 11,0c2.17627,-0.513743 5.031799,-0.564361 8,-1c10.329651,-1.516069 13.038757,-2.519453 16,-3c3.12146,-0.506541 5,-1 7,-1c8,0 17.907654,-1.338597 21,-2c9.827576,-2.10197 14,-1 15,-1c1,0 2,0 4,0c1,0 5,0 7,0c2,0 3,0 5,0c3,0 5,0 6,0c2,0 3,0 5,0l1,0l1,0" id="svg_15" stroke-linecap="null" stroke-linejoin="null" stroke-dasharray="null" stroke-width="1" stroke="#000000" fill="none"/>
 </g>
</svg>