<svg class="line" ViewBox="0 0 640 16" xmlns="http://www.w3.org/2000/svg">
 <!-- Created with SVG-edit - http://svg-edit.googlecode.com/ -->
 <g>
  <title>Layer 1</title>
  <path d="m8,8c0.93423,0 1.868461,0 2.802691,0c0.934231,0 1.868461,0 2.802691,0c0.934231,0 1.868461,0 2.802691,0c0.934231,0 1.868462,0 2.802691,0c0.934231,0 2.14209,-0.707108 2.802691,0c0.660603,0.707108 1.868462,1 2.802691,1c0.934231,0 1.868462,0 2.802691,0c2.802691,0 3.45052,0.458805 4.671152,1c1.726227,0.765366 2.802689,0 4.67115,0c0.934231,0 1.868462,0 2.802692,0c0.934231,0 2.802689,0 3.736919,0c0.934231,0 1.868462,0 2.802692,0c1.868458,0 3.736919,0 4.67115,0c0.934231,0 1.868458,0 2.802689,0c1.868462,0 2.638031,-0.486256 4.671154,-1c0.909241,-0.229752 1.868458,0 2.802689,0c0.934231,0 1.868462,0 3.736923,0c1.868462,0 2.802689,0 3.736916,0c0.934235,0 2.802696,0 4.671158,0c2.802689,0 4.67115,0 6.539604,0c1.868462,0 3.736923,0 4.671158,0c0.934227,0 1.868454,-1 2.802689,-1c0.934227,0 2.802689,0 3.736923,0c1.868454,0 2.802689,0 4.67115,0c1.868454,0 2.802689,0 4.67115,0c1.868462,0 3.736916,0 5.605377,0c1.868462,0 3.736923,0 4.67115,0c1.868462,0 3.736923,0 5.605385,0c0.934227,0 4.506485,0.486256 6.539612,1c1.818481,0.459507 4.67115,0 6.539604,0c2.802704,0 4.671158,0 6.539612,0c1.868469,0 3.572266,0.486256 5.605392,1c2.727722,0.689259 4.671143,0 6.539612,0c2.802689,0 4.671143,0 6.539612,0c0.934219,0 1.868454,0 2.802689,0c0.934219,0 2.802689,0 6.539612,0c3.736923,0 6.539612,0 8.408066,0c1.868469,0 3.736923,0 5.605377,0c0.934235,0 1.868469,0 3.736923,0c2.802689,0 5.655365,-0.459507 7.473846,0c2.033112,0.513744 3.736923,1 5.605377,1c1.868469,0 3.736923,0 5.605377,0c2.802704,0 5.605392,0 9.342316,0c2.802689,0 4.671143,0 7.473831,0c2.802689,0 5.605392,0 7.473846,0c2.802689,0 5.605377,0 8.408066,0c1.868469,0 3.736923,0 6.539612,0c0.934235,0 2.802689,0 4.671158,0c0.934235,0 2.802689,0 3.736923,0c0.934219,0 2.802689,0 4.671143,0c1.868469,0 3.736938,-1 5.605377,-1c0.934235,0 2.802704,0 3.736938,0c1.868439,0 3.736908,-1 6.539612,-1c1.868439,0 2.802673,0 3.736908,0c0.934235,0 2.516296,-0.458805 3.736938,-1c2.589325,-1.148048 5.605377,0 7.473816,0c2.802704,0 4.384766,-0.458805 5.605377,-1c2.589355,-1.148048 3.736938,0 6.539612,0c1.868469,0 3.736938,1 6.539612,1c2.802704,0 4.671173,0 6.539612,0c1.868469,0 3.736938,0 5.605408,0c1.868439,0 3.736908,0 5.605377,0c1.868439,0 3.736908,0 4.671143,0c1.868469,0 3.736908,0 5.605377,0c1.868469,0 3.736938,0 5.605377,0c1.868469,0 2.802704,0 3.736938,0c1.868439,0 2.802673,0 4.671143,0c1.868469,0 2.802704,0 4.671143,0c1.868469,0 3.736938,0 6.539612,0c1.868469,0 4.671173,0 6.539612,0c2.802704,0 4.671143,0 6.539612,0c1.868469,0 4.671143,0 6.539612,0c0.934235,0 1.868469,0 2.802704,0c0.934235,0 3.076324,0.707108 3.736908,0c0.660583,-0.707108 2.802704,-1 3.736938,-1c1.868439,0 4.671143,0 6.539612,0c1.868439,0 3.736908,0 5.605377,0c0.934235,0 1.868439,0 3.736908,0c0.934235,0 6.539612,1 8.408081,1c1.868469,0 3.736908,0 5.605377,0c0.934235,0 2.516266,0.458805 3.736908,1c0.863129,0.382683 2.852722,-0.459507 4.671173,0c2.033142,0.513744 2.802673,1 4.671143,1c0.934235,0 4.671143,0 6.539612,0c0.934235,0 1.868469,0 2.802704,0c2.802673,0 3.736908,0 5.605377,0c0.934235,0 2.802673,0 4.671143,0c1.868469,0 2.802673,0 4.671143,0c1.868469,0 5.605377,0 6.539612,0c1.868469,0 2.802704,0 3.736938,0c0.934204,0 4.671143,0 6.539612,0c0.934204,0 1.868439,0 2.802673,0c1.868469,0 2.802704,0 6.539612,0c0.934235,0 2.802704,0 4.671143,0c1.868469,0 2.802704,0 6.539612,0c1.868469,0 2.802704,0 3.736938,0c0.934235,0 1.868469,0 2.802673,0c2.802704,0 4.671173,0 5.605408,0c1.868439,0 2.873779,0.382683 3.736908,0c1.220642,-0.541195 1.868469,-1 5.605377,-1c1.868439,0 2.802704,0 3.736908,0c0.934265,0 2.802734,0 6.539612,0c0.934265,0 2.802734,0 3.736938,0c1.868469,0 3.736938,0 5.605408,0c2.802673,0 4.671143,0 5.605347,0c0.934265,0 2.802673,0 3.736938,0c1.868469,0 2.802673,0 4.671143,0c1.868469,0 2.802673,0 4.671143,0c0.934265,0 1.868469,0 5.605408,0c0.934204,0 1.868469,0 3.736877,0c0.934265,0 2.802734,0 6.539612,0c0.934265,0 1.939575,-0.382683 2.802734,0c1.220642,0.541195 3.736877,1 4.671143,1c3.736877,0 4.671143,1 6.539612,1c0.934204,0 1.868469,0 2.802673,0c0.934204,0 1.939575,-0.382683 2.802673,0c1.220642,0.541195 2.802734,1 3.736938,1c0.934204,0 2.802673,0 3.736938,0c0.934204,0 1.868469,0 3.736877,0c0.934265,0 1.868469,1 2.802734,1c0.934204,0 1.868469,0 2.802673,0c0.934204,0 1.868469,0 2.802673,0c0.934265,0 1.868469,0 3.736938,0c0.934204,0 1.868469,0 2.802673,0c0.934265,0 1.868469,0 2.802734,0c0.934204,0 1.868408,0 2.802673,0c0.934204,0 1.868469,0 2.802673,0c0.934265,0 1.868469,0 2.802673,0c0.934265,0 1.868469,0 2.802734,0c0.934204,0 2.802673,0 3.736877,0c0.934265,0 1.868469,0 2.802734,0l0.934204,-1" id="svg_11" stroke-linecap="null" stroke-linejoin="null" stroke-dasharray="null" stroke-width="1" stroke="#000000" fill="none"/>
 </g>
</svg>