<?xml version="1.0" encoding="UTF-8" standalone="no"?>
<svg width="451px" height="376px" viewBox="0 0 451 376" version="1.1" xmlns="http://www.w3.org/2000/svg" xmlns:xlink="http://www.w3.org/1999/xlink">
    <title>twitter</title>
    <defs>
        <linearGradient x1="100%" y1="50%" x2="0%" y2="10%" id="linearGradient-1">
            <stop stop-color="#FCF184" offset="0%"></stop>
            <stop stop-color="#FBCA89" offset="10%"></stop>
            <stop stop-color="#D6949B" offset="40%"></stop>
            <stop stop-color="#9ABDD2" offset="70%"></stop>
            <stop stop-color="#98EDDA" offset="100%"></stop>
        </linearGradient>
        <filter x="-20%" y="-20%" width="140%" height="140%" filterUnits="objectBoundingBox" id="filter-2">
            <feGaussianBlur stdDeviation="10" in="SourceGraphic" result="blur"></feGaussianBlur>
        </filter>
    </defs>
    <g id="Page-1" stroke="none" stroke-width="1" fill="none" fill-rule="evenodd">
        <path d="M431,60.223 C415.842,66.947 399.551,71.492 382.453,73.533 C399.902,63.072 413.307,46.508 419.617,26.769 C403.284,36.456 385.195,43.49 365.941,47.28 C350.523,30.852 328.555,20.589 304.243,20.589 C249.683,20.589 209.575,71.505 221.906,124.376 C151.656,120.852 89.372,87.199 47.683,36.062 C25.541,74.045 36.198,123.753 73.841,148.912 C59.987,148.474 46.95,144.671 35.556,138.338 C34.639,177.5 62.702,214.119 103.351,222.287 C91.455,225.524 78.425,226.265 65.181,223.734 C75.935,257.314 107.153,281.752 144.141,282.433 C108.604,310.282 63.846,322.721 19,317.436 C56.406,341.418 100.837,355.413 148.571,355.413 C305.503,355.413 394.166,222.862 388.822,103.978 C405.339,92.061 419.668,77.174 431,60.223 C431,60.223 419.668,77.174 431,60.223 L431,60.223 L431,60.223 Z M431,60.223" id="twitter-icon" fill="url(#linearGradient-1)" filter="url(#filter-2)"></path>
    </g>
</svg>