<svg ViewBox="0 0 16 480" width="16" height="480" xmlns="http://www.w3.org/2000/svg">
 <!-- Created with SVG-edit - http://svg-edit.googlecode.com/ -->
 <g>
  <title>Layer 1</title>
  <path d="m11,3c0,1 0,2 0,3c0,1 0,2 0,4c0,1 0,2 0,3c0,1 0,2 0,3c0,1 0,2 0,3c0,2 0.29289,2.29289 1,3c1.41421,1.41421 0,3 0,4c0,1 0,2 0,3c0,1 0,2 0,3c0,1 0,2 0,3c0,1 0,2 0,3c0,1 0,2 0,3c0,1 0,3 0,4c0,1 0,2 0,3c0,1 0,2 0,3c0,1 0,2 0,3c0,1 0,2 0,3c0,1 0,2 0,3c0,2 0,3 0,4c0,2 0,3 0,4c0,1 0,2 0,3c0,1 0,2 0,3c0,1 0,2 0,3c0,1 0,2 0,3c0,1 0,2 0,3c0,1 0,3 0,5c0,1 0,2 0,3c0,1 -0.29289,1.29289 -1,2c-1.41421,1.41422 0,3 0,5c0,1 0,2 0,3c0,1 0,2 0,4c0,2 0,3 0,5c0,1 0,3 0,4c0,1 0,2 0,3c0,2 0,3 0,4c0,1 0.4588,1.69344 1,3c0.38268,0.92388 0,2 0,3c0,2 0,3 0,4c0,1 0,3 0,4c0,1 0,2 0,3c0,2 0,3 0,4c0,1 0,2 0,3c0,2 0,3 0,4c0,1 0,2 0,3c0,2 0,4 0,5c0,1 -0.4588,2.69344 -1,4c-0.76537,1.84776 0,3 0,5c0,1 0,3 0,5c0,1 0,2 0,3c0,1 0,2 0,4c0,1 0.38268,2.07613 0,3c-0.5412,1.30656 -1,3 -1,5c0,1 0,2 0,3c0,1 0,2 0,4c0,1 0,2 0,4c0,1 -0.48626,2.82375 -1,5c-0.22975,0.97325 0,3 0,5c0,1 0,2 0,4c0,2 0,3 0,4c0,1 0,2 0,4c0,3 0,5 0,7c0,2 0,4 0,6c0,2 0,3 0,5c0,1 0,2 0,3c0,1 0.29289,1.29289 1,2c1.41421,1.41422 0,3 0,5c0,2 0,5 0,7c0,3 0,5 0,8c0,1 0,3 0,4c0,2 0,3 0,5c0,2 0,4 0,7c0,3 -1,4 -1,6c0,2 0,4 0,6c0,3 -0.48626,3.82376 -1,6c-0.22975,0.97324 0,3 0,5c0,2 0,4 0,5c0,3 0,5 0,6c0,2 0,4 0,6c0,1 0,3 0,5c0,1 0,3 0,5c0,2 0,4 0,6c0,2 0,4 0,7c0,2 0,4 0,6c0,2 0,3 0,5c0,1 0,4 0,6c0,2 0.32036,3.02582 0,5c-0.50654,3.12143 -1,6 -1,8c0,3 0,5 0,7c0,2 0,4 0,6c0,2 0,3 0,5c0,2 0.48626,2.82376 1,5c0.45951,1.9465 0,3 0,5c0,1 0,3 0,5c0,2 1,3 1,5c0,1 0,3 0,6c0,1 0,3 0,5c0,2 0,4 0,6c0,1 0,2 0,4c0,1 0,2 0,3c0,2 0.22975,4.02676 0,5c-0.51374,2.17624 -1,3 -1,4c0,2 -0.75,2.5 0,6c0.75,3.5 1.5,13.5 1.5,15.5l1.25,7l0.25,8.5" id="svg_1" stroke-width="0.5" stroke="#000000" fill="none"/>
 </g>
</svg>