<?xml version="1.0" encoding="UTF-8" standalone="no"?>
<svg id="hline_mobile" viewBox="0 0 828 27" version="1.1" xmlns="http://www.w3.org/2000/svg" xmlns:xlink="http://www.w3.org/1999/xlink">
    <title>hline</title>
    <defs></defs>
    <g id="hline" stroke="none" stroke-width="1" fill="none" fill-rule="evenodd">
        <path d="M5.81577202,15.9934695 C3.05982513,17.7233664 0.999999851,20.2324395 1,23.1311854 C1,23.2203822 1.03486443,23.3093063 1.0922077,23.3979431 L1.0922077,23.3979431 C1.03230342,23.5879488 1,23.790202 1,24 C1,25.1045696 1.89543045,26 3,26 C4.10456955,26 5,25.1045696 5,24 C5,22.8954304 4.10456955,22 3,22 C2.84815266,22 2.70025773,22.0169223 2.55809824,22.048984 C3.15622674,19.6198565 4.23133321,17.5553748 6.34505342,16.144082 C8.1370165,14.9476207 10.2691237,13.6618095 12.5655603,13.5140658 C12.7097403,13.5047899 12.854568,13.5 13,13.5 L14,13.5 C11.8001847,13.5 9.29031463,14.1517971 7.06639233,15.28516 C7.81128718,14.4581659 8.65638075,13.24078 10,13.5 C8.70047576,13.7361434 7.86703628,13.032131 7.13979869,12.5100176 C8.65469474,13.1105158 10.3252464,13.4311108 12,13.4311108 C13.8727695,13.4311108 11.905826,13.3833312 11.721323,13.3637881 C11.3212778,13.3214143 10.9270987,13.2593834 10.5397698,13.1786797 C6.56878503,12.3512864 3.89676362,8.91676652 2.65463272,4.97029037 C2.7668227,4.98981946 2.88222245,5 3,5 C4.10456955,5 5,4.10456955 5,3 C5,1.89543045 4.10456955,1 3,1 C1.89543045,1 1,1.89543045 1,3 C1,3.13143749 1.01267898,3.25991365 1.03688059,3.38427213 L1.03688059,3.38427213 C1.013316,3.66969741 1,4.01466666 1,4.43111082 C0.99999985,7.84903485 3.10481495,10.4879497 6.02053229,12.0002144 C6.013696,12.0000718 6.006852,12 6,12 C4.89543045,12 1,12.8954304 1,14 C1,15.0497597 4.51843159,15.9106207 5.81577202,15.9934695 Z M14,13.5 L164,13.5 L14,13.5 Z M14,13.5" 
          id="Linie-links"
          stroke="#000000"
          stroke-linecap="square" 
          >
        </path>
        <path d="M518.815772,15.9934695 C516.059825,17.7233664 514,20.2324395 514,23.1311854 C514,23.2203822 514.034864,23.3093063 514.092208,23.3979431 L514.092208,23.3979431 C514.032303,23.5879488 514,23.790202 514,24 C514,25.1045696 514.89543,26 516,26 C517.10457,26 518,25.1045696 518,24 C518,22.8954304 517.10457,22 516,22 C515.848153,22 515.700258,22.0169223 515.558098,22.048984 C516.156227,19.6198565 517.231333,17.5553748 519.345053,16.144082 C521.137017,14.9476207 523.269124,13.6618095 525.56556,13.5140658 C525.70974,13.5047899 525.854568,13.5 526,13.5 L527,13.5 C524.800185,13.5 522.290315,14.1517971 520.066392,15.28516 C520.811287,14.4581659 521.656381,13.24078 523,13.5 C521.700476,13.7361434 520.867036,13.032131 520.139799,12.5100176 C521.654695,13.1105158 523.325246,13.4311108 525,13.4311108 C526.872769,13.4311108 524.905826,13.3833312 524.721323,13.3637881 C524.321278,13.3214143 523.927099,13.2593834 523.53977,13.1786797 C519.568785,12.3512864 516.896764,8.91676652 515.654633,4.97029037 C515.766823,4.98981946 515.882222,5 516,5 C517.10457,5 518,4.10456955 518,3 C518,1.89543045 517.10457,1 516,1 C514.89543,1 514,1.89543045 514,3 C514,3.13143749 514.012679,3.25991365 514.036881,3.38427213 L514.036881,3.38427213 C514.013316,3.66969741 514,4.01466666 514,4.43111082 C514,7.84903485 516.104815,10.4879497 519.020532,12.0002144 C519.013696,12.0000718 519.006852,12 519,12 C517.89543,12 514,12.8954304 514,14 C514,15.0497597 517.518432,15.9106207 518.815772,15.9934695 Z M527,13.5 L677,13.5 L527,13.5 Z M527,13.5"
          id="Linie-rechts"
          stroke="#000000"
          stroke-linecap="square"
          transform="translate(670.500000, 13.500000) scale(-1, -1) translate(-670.500000, -13.500000) "></path>
    </g>
</svg>