<svg viewBox="0 -5 81 77" version="1.1" xmlns="http://www.w3.org/2000/svg" xmlns:xlink="http://www.w3.org/1999/xlink">
    <g id="b" stroke="none" stroke-width="1" fill="none" fill-rule="evenodd" sketch:type="MSPage">
        <path d="M21.08,5.192 L21.08,3.464 L32.24,0.728 L32.24,23.264 C35.648017,19.663982 39.4399791,17.864 43.616,17.864 C47.4560192,17.864 50.6119876,19.3759849 53.084,22.4 C55.5560124,25.4240151 56.792,29.3599758 56.792,34.208 C56.792,40.5440317 55.1000169,45.4279828 51.716,48.86 C48.3319831,52.2920172 44.2640238,54.008 39.512,54.008 C36.2959839,54.008 33.1040158,53.312007 29.936,51.92 L27.92,54.008 L26.336,54.008 L26.336,5.84 L21.08,5.192 Z M32.24,49.04 C34.640012,51.0080098 37.2319861,51.992 40.016,51.992 C43.0400151,51.992 45.5959896,50.6000139 47.684,47.816 C49.7720104,45.0319861 50.816,41.4560218 50.816,37.088 C50.816,32.5759774 49.8920092,28.9760134 48.044,26.288 C46.1959908,23.5999866 43.6400163,22.256 40.376,22.256 C37.4959856,22.256 34.7840127,23.5279873 32.24,26.072 C32.24,26.072 34.7840127,23.5279873 32.24,26.072 L32.24,49.04 Z M32.24,49.04" 
            id="b-60deg" 
            opacity="0.5" 
            fill="#31DCB5" 
            sketch:type="MSShapeGroup" 
            transform="rotate(-20 41 37)"
            >
                <animateTransform
                    attributeName="transform"
                    begin="0.7s"
                    type="rotate"
                    values="-20 41 37; -40 41 37; 360 41 37; 330 41 37; 345 41 37; 340 41 37"
                    calcMode="spline"
                    keyTimes="0;.15;.65;0.85;0.92;1"
                    keySplines=".4 0 .6 1; .4 0 .6 1; .4 0 .6 1; .4 0 .6 1; 0 0 1 1"
                    dur="1.41s"
                    repeatCount="1"
                    />
                <animate
                    attributeName="opacity"
                    begin="0.7s"
                    dur=".81s"
                    values="0.5;0;0.5"
                    calcMode="spline"
                    keySplines="0 .5 1 1;.5 0 1 1"
                    />
        </path>

        <path d="M21.08,5.192 L21.08,3.464 L32.24,0.728 L32.24,23.264 C35.648017,19.663982 39.4399791,17.864 43.616,17.864 C47.4560192,17.864 50.6119876,19.3759849 53.084,22.4 C55.5560124,25.4240151 56.792,29.3599758 56.792,34.208 C56.792,40.5440317 55.1000169,45.4279828 51.716,48.86 C48.3319831,52.2920172 44.2640238,54.008 39.512,54.008 C36.2959839,54.008 33.1040158,53.312007 29.936,51.92 L27.92,54.008 L26.336,54.008 L26.336,5.84 L21.08,5.192 Z M32.24,49.04 C34.640012,51.0080098 37.2319861,51.992 40.016,51.992 C43.0400151,51.992 45.5959896,50.6000139 47.684,47.816 C49.7720104,45.0319861 50.816,41.4560218 50.816,37.088 C50.816,32.5759774 49.8920092,28.9760134 48.044,26.288 C46.1959908,23.5999866 43.6400163,22.256 40.376,22.256 C37.4959856,22.256 34.7840127,23.5279873 32.24,26.072 C32.24,26.072 34.7840127,23.5279873 32.24,26.072 L32.24,49.04 Z M32.24,49.04" 
            id="b-120deg" 
            opacity="0.5" 
            fill="#357CA6" 
            sketch:type="MSShapeGroup" 
            transform="rotate(-10 41 37)"
            >
                <animateTransform
                    attributeName="transform"
                    begin="0.6s"
                    type="rotate"
                    values="-10 41 37; -30 41 37; 370 41 37; 340 41 37; 355 41 37; 350 41 37"
                    calcMode="spline"
                    keyTimes="0;.15;.65;0.85;0.92;1"
                    keySplines=".4 0 .6 1; .4 0 .6 1; .4 0 .6 1; .4 0 .6 1; 0 0 1 1"
                    dur="1.41s"
                    repeatCount="1"
                    />
                <animate
                    attributeName="opacity"
                    begin="0.6s"
                    dur="0.81s"
                    values="0.5;0;0.5"
                    calcMode="spline"
                    keySplines="0 .5 1 1;.5 0 1 1"
                    />
        </path>

        <path d="M21.08,5.192 L21.08,3.464 L32.24,0.728 L32.24,23.264 C35.648017,19.663982 39.4399791,17.864 43.616,17.864 C47.4560192,17.864 50.6119876,19.3759849 53.084,22.4 C55.5560124,25.4240151 56.792,29.3599758 56.792,34.208 C56.792,40.5440317 55.1000169,45.4279828 51.716,48.86 C48.3319831,52.2920172 44.2640238,54.008 39.512,54.008 C36.2959839,54.008 33.1040158,53.312007 29.936,51.92 L27.92,54.008 L26.336,54.008 L26.336,5.84 L21.08,5.192 Z M32.24,49.04 C34.640012,51.0080098 37.2319861,51.992 40.016,51.992 C43.0400151,51.992 45.5959896,50.6000139 47.684,47.816 C49.7720104,45.0319861 50.816,41.4560218 50.816,37.088 C50.816,32.5759774 49.8920092,28.9760134 48.044,26.288 C46.1959908,23.5999866 43.6400163,22.256 40.376,22.256 C37.4959856,22.256 34.7840127,23.5279873 32.24,26.072 C32.24,26.072 34.7840127,23.5279873 32.24,26.072 L32.24,49.04 Z M32.24,49.04" 
            id="b-180deg" 
            opacity="0.5" 
            fill="#AD2938" 
            sketch:type="MSShapeGroup" 
            transform=" rotate(10 41 37)"
            >
                <animateTransform
                    attributeName="transform"
                    begin="0.5s"
                    type="rotate"
                    values="10 41 37; -10 41 37; 390 41 37; 360 41 37; 375 41 37; 370 41 37"
                    calcMode="spline"
                    keyTimes="0;.15;.65;0.85;0.92;1"
                    keySplines=".4 0 .6 1; .4 0 .6 1; .4 0 .6 1; .4 0 .6 1; 0 0 1 1"
                    dur="1.41s"
                    repeatCount="1"
                    />
                <animate
                    attributeName="opacity"
                    begin="0.5s"
                    dur="0.81s"
                    values="0.5;0;0.5"
                    calcMode="spline"
                    keySplines="0 .5 1 1;.5 0 1 1"
                    />
        </path>

        <path d="M21.08,5.192 L21.08,3.464 L32.24,0.728 L32.24,23.264 C35.648017,19.663982 39.4399791,17.864 43.616,17.864 C47.4560192,17.864 50.6119876,19.3759849 53.084,22.4 C55.5560124,25.4240151 56.792,29.3599758 56.792,34.208 C56.792,40.5440317 55.1000169,45.4279828 51.716,48.86 C48.3319831,52.2920172 44.2640238,54.008 39.512,54.008 C36.2959839,54.008 33.1040158,53.312007 29.936,51.92 L27.92,54.008 L26.336,54.008 L26.336,5.84 L21.08,5.192 Z M32.24,49.04 C34.640012,51.0080098 37.2319861,51.992 40.016,51.992 C43.0400151,51.992 45.5959896,50.6000139 47.684,47.816 C49.7720104,45.0319861 50.816,41.4560218 50.816,37.088 C50.816,32.5759774 49.8920092,28.9760134 48.044,26.288 C46.1959908,23.5999866 43.6400163,22.256 40.376,22.256 C37.4959856,22.256 34.7840127,23.5279873 32.24,26.072 C32.24,26.072 34.7840127,23.5279873 32.24,26.072 L32.24,49.04 Z M32.24,49.04" 
            id="b-240deg" 
            opacity="0.5" 
            fill="#F89614" 
            sketch:type="MSShapeGroup" 
            transform="rotate(20 41 37)"
            >
                <animateTransform
                    attributeName="transform"
                    begin="0.4s"
                    type="rotate"
                    values="20 41 37; 0 41 37; 400 41 37; 370 41 37; 385 41 37; 380 41 37"
                    calcMode="spline"
                    keyTimes="0;.15;.65;0.85;0.92;1"
                    keySplines=".4 0 .6 1; .4 0 .6 1; .4 0 .6 1; .4 0 .6 1; 0 0 1 1"
                    dur="1.41s"
                    repeatCount="1"
                    />
                <animate
                    attributeName="opacity"
                    begin="0.4s"
                    dur="0.81s"
                    values="0.5;0;0.5"
                    calcMode="spline"
                    keySplines="0 .5 1 1;.5 0 1 1"
                    />
                </path>

        <path d="M21.08,5.192 L21.08,3.464 L32.24,0.728 L32.24,23.264 C35.648017,19.663982 39.4399791,17.864 43.616,17.864 C47.4560192,17.864 50.6119876,19.3759849 53.084,22.4 C55.5560124,25.4240151 56.792,29.3599758 56.792,34.208 C56.792,40.5440317 55.1000169,45.4279828 51.716,48.86 C48.3319831,52.2920172 44.2640238,54.008 39.512,54.008 C36.2959839,54.008 33.1040158,53.312007 29.936,51.92 L27.92,54.008 L26.336,54.008 L26.336,5.84 L21.08,5.192 Z M32.24,49.04 C34.640012,51.0080098 37.2319861,51.992 40.016,51.992 C43.0400151,51.992 45.5959896,50.6000139 47.684,47.816 C49.7720104,45.0319861 50.816,41.4560218 50.816,37.088 C50.816,32.5759774 49.8920092,28.9760134 48.044,26.288 C46.1959908,23.5999866 43.6400163,22.256 40.376,22.256 C37.4959856,22.256 34.7840127,23.5279873 32.24,26.072 C32.24,26.072 34.7840127,23.5279873 32.24,26.072 L32.24,49.04 Z M32.24,49.04" 
            id="b-300deg" 
            opacity="0.5" 
            fill="#FAE309" 
            sketch:type="MSShapeGroup" 
            transform="rotate(30 41 37)"
            >
                <animateTransform
                    attributeName="transform"
                    begin="0.3s"
                    type="rotate"
                    values="30 41 37; 10 41 37; 410 41 37; 380 41 37; 395 41 37; 390 41 37"
                    calcMode="spline"
                    keyTimes="0;.15;.65;0.85;0.92;1"
                    keySplines=".4 0 .6 1; .4 0 .6 1; .4 0 .6 1; .4 0 .6 1; 0 0 1 1"
                    dur="1.41s"
                    repeatCount="1"
                    />
                <animate
                    attributeName="opacity"
                    begin="0.3s"
                    dur="0.81s"
                    values="0.5;0;0.5"
                    calcMode="spline"
                    keySplines="0 .5 1 1;.5 0 1 1"
                    />
        </path>

        <path d="M21.08,5.192 L21.08,3.464 L32.24,0.728 L32.24,23.264 C35.648017,19.663982 39.4399791,17.864 43.616,17.864 C47.4560192,17.864 50.6119876,19.3759849 53.084,22.4 C55.5560124,25.4240151 56.792,29.3599758 56.792,34.208 C56.792,40.5440317 55.1000169,45.4279828 51.716,48.86 C48.3319831,52.2920172 44.2640238,54.008 39.512,54.008 C36.2959839,54.008 33.1040158,53.312007 29.936,51.92 L27.92,54.008 L26.336,54.008 L26.336,5.84 L21.08,5.192 Z M32.24,49.04 C34.640012,51.0080098 37.2319861,51.992 40.016,51.992 C43.0400151,51.992 45.5959896,50.6000139 47.684,47.816 C49.7720104,45.0319861 50.816,41.4560218 50.816,37.088 C50.816,32.5759774 49.8920092,28.9760134 48.044,26.288 C46.1959908,23.5999866 43.6400163,22.256 40.376,22.256 C37.4959856,22.256 34.7840127,23.5279873 32.24,26.072 C32.24,26.072 34.7840127,23.5279873 32.24,26.072 L32.24,49.04 Z M32.24,49.04" 
            id="b" 
            fill="#2A3140" 
            sketch:type="MSShapeGroup"
            transform="">
        </path>
    </g>
</svg>