<?xml version="1.0" encoding="UTF-8" standalone="no"?>

<svg
   xmlns:dc="http://purl.org/dc/elements/1.1/"
   xmlns:cc="http://creativecommons.org/ns#"
   xmlns:rdf="http://www.w3.org/1999/02/22-rdf-syntax-ns#"
   xmlns:svg="http://www.w3.org/2000/svg"
   xmlns="http://www.w3.org/2000/svg"
   version="1.1"
   viewbox="271 507 208 51"
   id="svg3907">
  <defs
     id="defs3909" />
  <metadata
     id="metadata3912">
    <rdf:RDF>
      <cc:Work
         rdf:about="">
        <dc:format>image/svg+xml</dc:format>
        <dc:type
           rdf:resource="http://purl.org/dc/dcmitype/StillImage" />
        <dc:title></dc:title>
      </cc:Work>
    </rdf:RDF>
  </metadata>
  <g
     id="layer1">
    <path
       d="m 273.13944,521.55142 c 1.2985,-8.04434 10.37556,-2.95072 5.93461,1.06284 5.18542,-2.1127 -1.40876,-11.25205 -5.27373,-5.94464 -5.18861,7.12502 0.54584,10.56532 7.63656,11.33389 15.81314,0.65926 27.70432,-2.75055 43.22868,-5.19862 10.24144,-2.76022 24.66111,-4.63593 34.75211,-7.84804 14.40324,-2.08814 29.66369,-1.49442 43.22813,4.10788 8.55156,5.43235 4.82283,16.56987 0.33837,23.40909 -9.30965,13.38263 -65.7192,17.15002 -66.91906,1.21709 -0.39952,-5.30525 11.23129,-16.03843 85.34834,1.25805 17.28153,3.89295 57.44436,7.32538 56.78031,-15.16741 -5.49449,-14.09296 -31.22372,-11.15096 -32.65514,1.37246 0.1586,2.39443 0.26573,5.24467 3.0858,6.08732 -2.40518,-11.85556 27.55212,-23.02514 23.59273,-4.74029 -8.38367,38.71659 -143.25462,-29.35766 -140.85462,11.26835 -0.36751,11.34184 54.66814,26.53311 82.31514,-5.93214 3.65083,-9.0878 0.59655,-20.91801 -8.77132,-25.12568 -11.53006,-5.61768 -25.00247,-7.06943 -37.33836,-3.30454 -14.05789,3.88782 -28.55984,10.20724 -42.98182,12.68449 -12.73341,2.7971 -53.03324,9.28848 -51.44673,-0.5401 z"
       id="path3836"
       style="fill:#000000;fill-opacity:1;stroke:#000000;stroke-width:0.30000001;stroke-linecap:butt;stroke-linejoin:miter;stroke-miterlimit:4;stroke-opacity:1;stroke-dasharray:none;display:inline" />
  </g>
</svg>
