<?xml version="1.0" encoding="UTF-8" standalone="no"?>
<!-- Created with Inkscape (http://www.inkscape.org/) -->

<svg
   xmlns:dc="http://purl.org/dc/elements/1.1/"
   xmlns:cc="http://creativecommons.org/ns#"
   xmlns:rdf="http://www.w3.org/1999/02/22-rdf-syntax-ns#"
   xmlns:svg="http://www.w3.org/2000/svg"
   xmlns="http://www.w3.org/2000/svg"
   version="1.1"
   viewBox="314.8 524.4 121 16"
   id="svg4012">
  <defs
     id="defs4014" />
  <metadata
     id="metadata4017">
    <rdf:RDF>
      <cc:Work
         rdf:about="">
        <dc:format>image/svg+xml</dc:format>
        <dc:type
           rdf:resource="http://purl.org/dc/dcmitype/StillImage" />
        <dc:title></dc:title>
      </cc:Work>
    </rdf:RDF>
  </metadata>
  <g
     id="layer1">
    <path
       d="m 434.89776,536.42706 c 0.79456,-4.23537 0.27628,-5.11483 -4.37166,-7.41829 -6.01885,-2.98286 -16.71163,-4.33199 -29.27767,-3.69401 -10.80628,0.54864 -39.52604,2.02927 -53.65194,4.05872 -13.71235,1.97004 -25.78228,1.87579 -29.74352,-2.50134 -1.00045,-1.10548 -2.37611,-2.00996 -3.05702,-2.00996 1.8323,9.53873 25.15616,9.45215 33.29546,8.29935 9.075,-1.31645 20.12049,-0.84522 24.23688,-1.4221 4.11638,-0.57688 7.87189,-1.2884 8.34558,-1.58115 0.47368,-0.29275 8.18635,-0.47473 17.13926,-0.4044 18.69068,0.14683 23.30637,1.15163 29.82418,6.49248 2.42694,1.9887 4.90839,3.61582 5.51432,3.61582 0.60593,0 1.39169,-1.5458 1.74613,-3.43512 z"
       id="path3875"
       style="fill:#000000;display:inline" />
  </g>
</svg>
